SplineFontDB: 3.0
FontName: FiraMath-Thin
FullName: Fira Math Thin
FamilyName: Fira Math
Weight: Thin
Copyright: 
Version: 
ItalicAngle: 0
UnderlinePosition: -100
UnderlineWidth: 50
Ascent: 800
Descent: 200
InvalidEm: 0
LayerCount: 2
Layer: 0 0 "Back" 1
Layer: 1 0 "Fore" 0
XUID: [1021 728 -285233693 18329]
OS2Version: 0
OS2_WeightWidthSlopeOnly: 0
OS2_UseTypoMetrics: 1
CreationTime: 1541747921
OS2TypoAscent: 0
OS2TypoAOffset: 1
OS2TypoDescent: 0
OS2TypoDOffset: 1
OS2TypoLinegap: 0
OS2WinAscent: 0
OS2WinAOffset: 1
OS2WinDescent: 0
OS2WinDOffset: 1
HheadAscent: 0
HheadAOffset: 1
HheadDescent: 0
HheadDOffset: 1
OS2Vendor: 'PfEd'
DEI: 91125
Encoding: UnicodeFull
Compacted: 1
UnicodeInterp: none
NameList: AGL For New Fonts
AntiAlias: 1
BeginChars: 1114137 1090

StartChar: uni0021
Encoding: 33 33 1
Width: 238
Flags: W
LayerCount: 2
Fore
SplineSet
129 681 m 1
 129 202 l 1
 108 202 l 1
 108 681 l 1
 129 681 l 1
119 38 m 0
 134 38 143 28 143 14 c 0
 143 2 134 -8 119 -8 c 0
 105 -8 96 2 96 14 c 0
 96 28 105 38 119 38 c 0
EndSplineSet
EndChar

StartChar: uni0022
Encoding: 34 34 2
Width: 327
Flags: W
LayerCount: 2
Fore
SplineSet
86 441 m 1
 83 681 l 1
 106 681 l 1
 103 441 l 1
 86 441 l 1
224 441 m 1
 221 681 l 1
 245 681 l 1
 242 441 l 1
 224 441 l 1
EndSplineSet
EndChar

StartChar: uni0023
Encoding: 35 35 3
Width: 488
Flags: W
LayerCount: 2
Fore
SplineSet
473 460 m 1
 390 460 l 1
 359 220 l 1
 436 220 l 1
 436 200 l 1
 356 200 l 1
 330 0 l 1
 308 0 l 1
 334 200 l 1
 120 200 l 1
 93 0 l 1
 71 0 l 1
 98 200 l 1
 15 200 l 1
 15 220 l 1
 100 220 l 1
 132 460 l 1
 52 460 l 1
 52 479 l 1
 135 479 l 1
 159 662 l 1
 181 662 l 1
 157 479 l 1
 371 479 l 1
 395 662 l 1
 417 662 l 1
 393 479 l 1
 473 479 l 1
 473 460 l 1
337 220 m 1
 368 460 l 1
 154 460 l 1
 122 220 l 1
 337 220 l 1
EndSplineSet
EndChar

StartChar: uni0024
Encoding: 36 36 4
Width: 523
Flags: W
LayerCount: 2
Fore
SplineSet
454 177 m 0
 454 71 378 -3 267 -10 c 1
 267 -146 l 1
 248 -146 l 1
 248 -10 l 1
 163 -9 104 23 54 68 c 1
 68 83 l 1
 115 41 167 11 250 11 c 0
 359 11 432 76 432 176 c 0
 432 272 382 308 259 347 c 0
 125 390 79 430 79 517 c 0
 79 602 146 667 249 670 c 1
 249 811 l 1
 269 811 l 1
 269 670 l 1
 343 667 389 642 433 603 c 1
 418 587 l 1
 372 630 326 650 256 650 c 0
 162 650 101 594 101 517 c 0
 101 437 144 405 267 367 c 0
 396 326 454 284 454 177 c 0
EndSplineSet
EndChar

StartChar: uni0025
Encoding: 37 37 5
Width: 760
Flags: W
LayerCount: 2
Fore
SplineSet
606 695 m 1
 624 684 l 1
 163 -15 l 1
 144 -4 l 1
 606 695 l 1
198 673 m 0
 279 673 332 614 332 519 c 0
 332 424 282 361 198 361 c 0
 116 361 63 422 63 516 c 0
 63 612 113 673 198 673 c 0
198 654 m 0
 121 654 86 595 86 516 c 0
 86 440 122 380 198 380 c 0
 274 380 310 440 310 519 c 0
 310 596 273 654 198 654 c 0
562 302 m 0
 644 302 697 243 697 148 c 0
 697 53 647 -10 562 -10 c 0
 481 -10 428 51 428 145 c 0
 428 241 478 302 562 302 c 0
562 283 m 0
 486 283 450 224 450 145 c 0
 450 69 486 9 562 9 c 0
 639 9 674 69 674 148 c 0
 674 225 638 283 562 283 c 0
EndSplineSet
EndChar

StartChar: uni0026
Encoding: 38 38 6
Width: 715
Flags: W
LayerCount: 2
Fore
SplineSet
302 692 m 0
 390 692 450 632 450 548 c 0
 450 467 394 421 285 362 c 1
 522 140 l 1
 556 207 577 271 593 354 c 1
 615 348 l 1
 597 262 573 192 536 126 c 1
 666 5 l 1
 648 -7 l 1
 525 107 l 1
 475 38 409 -10 300 -10 c 0
 190 -10 104 62 104 165 c 0
 104 258 159 313 252 365 c 1
 180 434 148 472 148 544 c 0
 148 628 213 692 302 692 c 0
302 672 m 0
 223 672 171 615 171 545 c 0
 171 488 184 458 271 376 c 1
 376 431 428 476 428 548 c 0
 428 626 373 672 302 672 c 0
267 352 m 1
 176 302 127 248 127 165 c 0
 127 76 199 11 300 11 c 0
 399 11 461 52 510 121 c 1
 267 352 l 1
EndSplineSet
EndChar

StartChar: uni0027
Encoding: 39 39 7
Width: 189
Flags: W
LayerCount: 2
Fore
SplineSet
86 441 m 1
 83 681 l 1
 106 681 l 1
 103 441 l 1
 86 441 l 1
EndSplineSet
EndChar

StartChar: uni0028
Encoding: 40 40 8
Width: 325
Flags: W
LayerCount: 2
Fore
SplineSet
241 829 m 1
 256 820 l 1
 167 689 91 572 91 350 c 0
 91 128 167 11 256 -120 c 1
 241 -129 l 1
 147 5 69 122 69 350 c 0
 69 578 147 695 241 829 c 1
EndSplineSet
EndChar

StartChar: uni0029
Encoding: 41 41 9
Width: 325
Flags: W
LayerCount: 2
Fore
SplineSet
84 829 m 1
 178 695 256 578 256 350 c 0
 256 122 178 5 84 -129 c 1
 69 -120 l 1
 158 11 234 128 234 350 c 0
 234 572 158 689 69 820 c 1
 84 829 l 1
EndSplineSet
EndChar

StartChar: uni002A
Encoding: 42 42 10
Width: 432
Flags: W
LayerCount: 2
Fore
SplineSet
382 603 m 1
 230 557 l 1
 325 429 l 1
 307 416 l 1
 216 546 l 1
 124 416 l 1
 106 429 l 1
 202 556 l 1
 49 603 l 1
 56 623 l 1
 207 572 l 1
 205 732 l 1
 227 732 l 1
 226 572 l 1
 376 623 l 1
 382 603 l 1
EndSplineSet
EndChar

StartChar: uni002B
Encoding: 43 43 11
Width: 485
Flags: W
LayerCount: 2
Fore
SplineSet
254 496 m 1
 254 341 l 1
 407 341 l 1
 407 320 l 1
 254 320 l 1
 254 165 l 1
 232 165 l 1
 232 320 l 1
 78 320 l 1
 78 341 l 1
 232 341 l 1
 232 496 l 1
 254 496 l 1
EndSplineSet
EndChar

StartChar: uni002C
Encoding: 44 44 12
Width: 163
Flags: W
LayerCount: 2
Fore
SplineSet
81 38 m 0
 96 38 105 28 105 14 c 0
 105 4 100 -7 96 -17 c 2
 52 -130 l 1
 35 -130 l 1
 73 -6 l 1
 63 -3 58 5 58 14 c 0
 58 28 67 38 81 38 c 0
EndSplineSet
EndChar

StartChar: uni002D
Encoding: 45 45 13
Width: 399
Flags: W
LayerCount: 2
Fore
SplineSet
78 302 m 1
 78 323 l 1
 321 323 l 1
 321 302 l 1
 78 302 l 1
EndSplineSet
EndChar

StartChar: uni002E
Encoding: 46 46 14
Width: 163
Flags: W
LayerCount: 2
Fore
SplineSet
81 38 m 0
 96 38 105 28 105 14 c 0
 105 2 96 -8 81 -8 c 0
 67 -8 58 2 58 14 c 0
 58 28 67 38 81 38 c 0
EndSplineSet
EndChar

StartChar: uni002F
Encoding: 47 47 15
Width: 520
Flags: W
LayerCount: 2
Fore
SplineSet
366 798 m 1
 386 792 l 1
 154 -95 l 1
 134 -89 l 1
 366 798 l 1
EndSplineSet
EndChar

StartChar: uni0030
Encoding: 48 48 16
Width: 541
Flags: W
LayerCount: 2
Fore
SplineSet
271 673 m 0
 397 673 465 559 465 330 c 0
 465 104 397 -10 271 -10 c 0
 144 -10 76 105 76 332 c 0
 76 559 144 673 271 673 c 0
271 652 m 0
 160 652 99 547 99 332 c 0
 99 117 159 11 271 11 c 0
 383 11 442 116 442 330 c 0
 442 545 384 652 271 652 c 0
EndSplineSet
EndChar

StartChar: uni0031
Encoding: 49 49 17
Width: 393
Flags: W
LayerCount: 2
Fore
SplineSet
260 661 m 1
 260 0 l 1
 238 0 l 1
 238 635 l 1
 64 525 l 1
 53 542 l 1
 242 661 l 1
 260 661 l 1
EndSplineSet
EndChar

StartChar: uni0032
Encoding: 50 50 18
Width: 464
Flags: W
LayerCount: 2
Fore
SplineSet
221 673 m 0
 328 673 390 600 390 506 c 0
 390 369 319 292 75 22 c 1
 405 22 l 1
 401 0 l 1
 47 0 l 1
 47 21 l 1
 305 305 367 378 367 504 c 0
 367 592 311 652 221 652 c 0
 150 652 101 621 60 572 c 1
 43 583 l 1
 93 643 146 673 221 673 c 0
EndSplineSet
EndChar

StartChar: uni0033
Encoding: 51 51 19
Width: 474
Flags: W
LayerCount: 2
Fore
SplineSet
217 673 m 0
 321 673 385 606 385 512 c 0
 385 413 322 361 250 353 c 1
 333 351 403 292 403 182 c 0
 403 69 326 -10 208 -10 c 0
 131 -10 77 17 28 73 c 1
 43 85 l 1
 93 30 141 11 208 11 c 0
 316 11 380 81 380 181 c 0
 380 291 312 342 212 342 c 2
 174 342 l 1
 177 362 l 1
 211 362 l 2
 285 362 362 407 362 511 c 0
 362 597 305 652 216 652 c 0
 158 652 109 634 60 586 c 1
 46 600 l 1
 94 649 147 673 217 673 c 0
EndSplineSet
EndChar

StartChar: uni0034
Encoding: 52 52 20
Width: 503
Flags: W
LayerCount: 2
Fore
SplineSet
463 207 m 1
 463 187 l 1
 370 187 l 1
 370 0 l 1
 348 0 l 1
 348 187 l 1
 51 187 l 1
 51 205 l 1
 257 673 l 1
 276 665 l 1
 75 207 l 1
 348 207 l 1
 351 418 l 1
 370 418 l 1
 370 207 l 1
 463 207 l 1
EndSplineSet
EndChar

StartChar: uni0035
Encoding: 53 53 21
Width: 474
Flags: W
LayerCount: 2
Fore
SplineSet
393 661 m 1
 389 641 l 1
 109 641 l 1
 109 376 l 1
 139 397 177 415 232 415 c 0
 345 415 414 339 414 214 c 0
 414 84 341 -10 217 -10 c 0
 143 -10 87 18 43 65 c 1
 59 79 l 1
 100 35 149 11 218 11 c 0
 326 11 391 93 391 214 c 0
 391 332 328 394 232 394 c 0
 178 394 146 381 105 354 c 1
 87 354 l 1
 87 661 l 1
 393 661 l 1
EndSplineSet
EndChar

StartChar: uni0036
Encoding: 54 54 22
Width: 513
Flags: W
LayerCount: 2
Fore
SplineSet
283 427 m 0
 378 427 451 361 451 222 c 0
 451 76 381 -10 274 -10 c 0
 129 -10 76 126 76 288 c 0
 76 524 160 673 303 673 c 0
 349 673 382 658 412 636 c 1
 399 619 l 1
 371 641 342 652 302 652 c 0
 173 652 103 505 99 310 c 1
 140 375 198 427 283 427 c 0
274 11 m 0
 375 11 429 98 429 221 c 0
 429 347 367 406 282 406 c 0
 201 406 140 352 99 278 c 1
 102 125 150 11 274 11 c 0
EndSplineSet
EndChar

StartChar: uni0037
Encoding: 55 55 23
Width: 432
Flags: W
LayerCount: 2
Fore
SplineSet
389 661 m 1
 389 643 l 1
 114 -6 l 1
 93 2 l 1
 365 641 l 1
 38 641 l 1
 38 661 l 1
 389 661 l 1
EndSplineSet
EndChar

StartChar: uni0038
Encoding: 56 56 24
Width: 526
Flags: W
LayerCount: 2
Fore
SplineSet
308 345 m 1
 418 302 463 258 463 167 c 0
 463 59 382 -10 263 -10 c 0
 139 -10 63 62 63 168 c 0
 63 260 117 324 217 362 c 1
 130 398 93 438 93 513 c 0
 93 613 173 673 263 673 c 0
 353 673 434 618 434 512 c 0
 434 438 397 391 308 345 c 1
116 512 m 0
 116 446 145 410 242 371 c 2
 289 353 l 1
 375 397 412 441 412 511 c 0
 412 604 345 652 263 652 c 0
 182 652 116 601 116 512 c 0
263 12 m 0
 367 12 440 68 440 167 c 0
 440 258 390 294 281 337 c 2
 241 352 l 1
 132 312 86 257 86 168 c 0
 86 68 157 12 263 12 c 0
EndSplineSet
EndChar

StartChar: uni0039
Encoding: 57 57 25
Width: 508
Flags: W
LayerCount: 2
Fore
SplineSet
250 673 m 0
 382 673 437 569 437 397 c 0
 437 149 322 48 126 -15 c 1
 119 3 l 1
 300 61 405 154 415 365 c 1
 369 294 310 255 236 255 c 0
 136 255 61 333 61 459 c 0
 61 591 140 673 250 673 c 0
238 276 m 0
 314 276 368 318 415 394 c 1
 413 558 368 652 250 652 c 0
 152 652 85 582 85 458 c 0
 85 344 147 276 238 276 c 0
EndSplineSet
EndChar

StartChar: uni003A
Encoding: 58 58 26
Width: 163
Flags: W
LayerCount: 2
Fore
SplineSet
81 453 m 0
 96 453 105 442 105 429 c 0
 105 417 96 406 81 406 c 0
 67 406 58 417 58 429 c 0
 58 442 67 453 81 453 c 0
81 38 m 0
 96 38 105 28 105 14 c 0
 105 2 96 -8 81 -8 c 0
 67 -8 58 2 58 14 c 0
 58 28 67 38 81 38 c 0
EndSplineSet
EndChar

StartChar: uni003B
Encoding: 59 59 27
Width: 163
Flags: W
LayerCount: 2
Fore
SplineSet
81 453 m 0
 96 453 105 442 105 429 c 0
 105 417 96 406 81 406 c 0
 67 406 58 417 58 429 c 0
 58 442 67 453 81 453 c 0
81 38 m 0
 96 38 105 28 105 14 c 0
 105 4 100 -7 96 -17 c 2
 52 -130 l 1
 35 -130 l 1
 73 -6 l 1
 63 -3 58 5 58 14 c 0
 58 28 67 38 81 38 c 0
EndSplineSet
EndChar

StartChar: uni003C
Encoding: 60 60 28
Width: 495
Flags: W
LayerCount: 2
Fore
SplineSet
406 503 m 1
 415 484 l 1
 104 333 l 1
 415 178 l 1
 406 159 l 1
 79 325 l 1
 79 341 l 1
 406 503 l 1
EndSplineSet
EndChar

StartChar: uni003D
Encoding: 61 61 29
Width: 485
Flags: W
LayerCount: 2
Fore
SplineSet
78 399 m 1
 78 420 l 1
 407 420 l 1
 407 399 l 1
 78 399 l 1
78 241 m 1
 78 263 l 1
 407 263 l 1
 407 241 l 1
 78 241 l 1
EndSplineSet
EndChar

StartChar: uni003E
Encoding: 62 62 30
Width: 495
Flags: W
LayerCount: 2
Fore
SplineSet
88 503 m 1
 415 341 l 1
 415 325 l 1
 88 159 l 1
 79 178 l 1
 390 333 l 1
 79 484 l 1
 88 503 l 1
EndSplineSet
EndChar

StartChar: uni003F
Encoding: 63 63 31
Width: 441
Flags: W
LayerCount: 2
Fore
SplineSet
232 691 m 0
 326 691 385 631 385 555 c 0
 385 408 201 428 201 271 c 2
 201 202 l 1
 180 202 l 1
 180 273 l 2
 180 440 362 418 362 555 c 0
 362 624 310 671 232 671 c 0
 163 671 119 646 72 594 c 1
 56 606 l 1
 106 664 158 691 232 691 c 0
192 38 m 0
 207 38 215 28 215 14 c 0
 215 2 207 -8 192 -8 c 0
 178 -8 169 2 169 14 c 0
 169 28 178 38 192 38 c 0
EndSplineSet
EndChar

StartChar: uni0040
Encoding: 64 64 32
Width: 1020
Flags: W
LayerCount: 2
Fore
SplineSet
527 692 m 0
 788 692 920 511 920 309 c 0
 920 80 833 15 755 15 c 0
 692 15 649 61 639 137 c 1
 608 59 558 17 488 17 c 0
 400 17 326 88 326 232 c 0
 326 402 417 477 523 477 c 0
 575 477 621 461 655 443 c 1
 655 184 l 2
 655 84 694 34 755 34 c 0
 825 34 897 92 897 308 c 0
 897 503 769 671 527 671 c 0
 285 671 123 478 123 240 c 0
 123 -21 291 -176 525 -176 c 0
 597 -176 656 -164 709 -144 c 1
 715 -164 l 1
 662 -183 605 -197 525 -197 c 0
 281 -197 100 -35 100 240 c 0
 100 488 271 692 527 692 c 0
490 37 m 0
 559 37 611 93 633 168 c 1
 633 430 l 1
 602 445 568 456 524 456 c 0
 422 456 349 379 349 232 c 0
 349 102 408 37 490 37 c 0
EndSplineSet
EndChar

StartChar: uni0041
Encoding: 65 65 33
Width: 557
Flags: W
LayerCount: 2
Fore
SplineSet
505 0 m 1
 436 203 l 1
 120 203 l 1
 51 0 l 1
 28 0 l 1
 265 681 l 1
 292 681 l 1
 530 0 l 1
 505 0 l 1
128 224 m 1
 429 224 l 1
 278 663 l 1
 128 224 l 1
EndSplineSet
EndChar

StartChar: uni0042
Encoding: 66 66 34
Width: 587
Flags: W
LayerCount: 2
Fore
SplineSet
362 361 m 1
 450 356 525 301 525 184 c 0
 525 61 438 0 299 0 c 2
 123 0 l 1
 123 681 l 1
 264 681 l 2
 408 681 490 624 490 513 c 0
 490 424 438 374 362 361 c 1
267 660 m 2
 146 660 l 1
 146 370 l 1
 316 370 l 2
 406 370 467 427 467 512 c 0
 467 611 396 660 267 660 c 2
300 21 m 2
 422 21 502 71 502 184 c 0
 502 294 426 350 321 350 c 2
 146 350 l 1
 146 21 l 1
 300 21 l 2
EndSplineSet
EndChar

StartChar: uni0043
Encoding: 67 67 35
Width: 538
Flags: W
LayerCount: 2
Fore
SplineSet
344 691 m 0
 419 691 463 668 505 633 c 1
 492 617 l 1
 449 651 411 670 346 670 c 0
 208 670 101 570 101 340 c 0
 101 123 205 12 342 12 c 0
 419 12 461 39 499 71 c 1
 513 54 l 1
 472 19 421 -10 342 -10 c 0
 189 -10 78 113 78 340 c 0
 78 577 195 691 344 691 c 0
EndSplineSet
EndChar

StartChar: uni0044
Encoding: 68 68 36
Width: 619
Flags: W
LayerCount: 2
Fore
SplineSet
245 681 m 2
 390 681 542 627 542 348 c 0
 542 63 384 0 249 0 c 2
 123 0 l 1
 123 681 l 1
 245 681 l 2
243 660 m 2
 146 660 l 1
 146 21 l 1
 250 21 l 2
 380 21 518 82 518 348 c 0
 518 617 376 660 243 660 c 2
EndSplineSet
EndChar

StartChar: uni0045
Encoding: 69 69 37
Width: 494
Flags: W
LayerCount: 2
Fore
SplineSet
444 681 m 1
 441 660 l 1
 146 660 l 1
 146 370 l 1
 400 370 l 1
 400 349 l 1
 146 349 l 1
 146 21 l 1
 451 21 l 1
 451 0 l 1
 123 0 l 1
 123 681 l 1
 444 681 l 1
EndSplineSet
EndChar

StartChar: uni0046
Encoding: 70 70 38
Width: 471
Flags: W
LayerCount: 2
Fore
SplineSet
123 0 m 1
 123 681 l 1
 439 681 l 1
 436 660 l 1
 146 660 l 1
 146 356 l 1
 396 356 l 1
 396 335 l 1
 146 335 l 1
 146 0 l 1
 123 0 l 1
EndSplineSet
EndChar

StartChar: uni0047
Encoding: 71 71 39
Width: 605
Flags: W
LayerCount: 2
Fore
SplineSet
348 691 m 0
 417 691 465 672 516 632 c 1
 503 616 l 1
 455 653 409 670 348 670 c 0
 228 670 101 576 101 345 c 0
 101 122 202 12 353 12 c 0
 419 12 467 28 510 53 c 1
 510 333 l 1
 365 333 l 1
 362 354 l 1
 533 354 l 1
 533 41 l 1
 480 10 418 -10 353 -10 c 0
 189 -10 78 110 78 345 c 0
 78 583 215 691 348 691 c 0
EndSplineSet
EndChar

StartChar: uni0048
Encoding: 72 72 40
Width: 660
Flags: W
LayerCount: 2
Fore
SplineSet
514 0 m 1
 514 349 l 1
 146 349 l 1
 146 0 l 1
 123 0 l 1
 123 681 l 1
 146 681 l 1
 146 371 l 1
 514 371 l 1
 514 681 l 1
 537 681 l 1
 537 0 l 1
 514 0 l 1
EndSplineSet
EndChar

StartChar: uni0049
Encoding: 73 73 41
Width: 268
Flags: W
LayerCount: 2
Fore
SplineSet
146 681 m 1
 146 0 l 1
 123 0 l 1
 123 681 l 1
 146 681 l 1
EndSplineSet
EndChar

StartChar: uni004A
Encoding: 74 74 42
Width: 277
Flags: W
LayerCount: 2
Fore
SplineSet
161 681 m 1
 161 87 l 2
 161 -13 138 -53 30 -100 c 1
 23 -83 l 1
 116 -40 138 -4 138 89 c 2
 138 681 l 1
 161 681 l 1
EndSplineSet
EndChar

StartChar: uni004B
Encoding: 75 75 43
Width: 510
Flags: W
LayerCount: 2
Fore
SplineSet
146 681 m 1
 146 0 l 1
 123 0 l 1
 123 681 l 1
 146 681 l 1
490 681 m 1
 178 367 l 1
 506 0 l 1
 478 0 l 1
 149 367 l 1
 463 681 l 1
 490 681 l 1
EndSplineSet
EndChar

StartChar: uni004C
Encoding: 76 76 44
Width: 456
Flags: W
LayerCount: 2
Fore
SplineSet
146 681 m 1
 146 22 l 1
 434 22 l 1
 430 0 l 1
 123 0 l 1
 123 681 l 1
 146 681 l 1
EndSplineSet
EndChar

StartChar: uni004D
Encoding: 77 77 45
Width: 762
Flags: W
LayerCount: 2
Fore
SplineSet
609 681 m 1
 684 0 l 1
 662 0 l 1
 623 345 l 2
 611 458 596 592 589 660 c 1
 392 84 l 1
 370 84 l 1
 170 660 l 1
 165 605 148 463 137 354 c 2
 100 0 l 1
 78 0 l 1
 151 681 l 1
 185 681 l 1
 381 112 l 1
 575 681 l 1
 609 681 l 1
EndSplineSet
EndChar

StartChar: uni004E
Encoding: 78 78 46
Width: 661
Flags: W
LayerCount: 2
Fore
SplineSet
538 681 m 1
 538 0 l 1
 510 0 l 1
 142 656 l 1
 144 621 145 576 145 477 c 2
 145 0 l 1
 123 0 l 1
 123 681 l 1
 152 681 l 1
 519 26 l 1
 518 66 516 127 516 205 c 2
 516 681 l 1
 538 681 l 1
EndSplineSet
EndChar

StartChar: uni004F
Encoding: 79 79 47
Width: 689
Flags: W
LayerCount: 2
Fore
SplineSet
344 691 m 0
 505 691 611 569 611 340 c 0
 611 119 511 -10 344 -10 c 0
 185 -10 78 115 78 339 c 0
 78 563 187 691 344 691 c 0
344 670 m 0
 200 670 101 554 101 339 c 0
 101 127 199 12 344 12 c 0
 498 12 588 127 588 340 c 0
 588 557 492 670 344 670 c 0
EndSplineSet
EndChar

StartChar: uni0050
Encoding: 80 80 48
Width: 558
Flags: W
LayerCount: 2
Fore
SplineSet
261 681 m 2
 416 681 501 623 501 484 c 0
 501 337 401 282 256 282 c 2
 146 282 l 1
 146 0 l 1
 123 0 l 1
 123 681 l 1
 261 681 l 2
258 303 m 2
 388 303 477 348 477 483 c 0
 477 612 402 660 261 660 c 2
 146 660 l 1
 146 303 l 1
 258 303 l 2
EndSplineSet
EndChar

StartChar: uni0051
Encoding: 81 81 49
Width: 689
Flags: W
LayerCount: 2
Fore
SplineSet
413 6 m 1
 495 4 572 -11 630 -62 c 1
 614 -81 l 1
 545 -23 471 -8 344 -8 c 0
 185 -8 78 115 78 339 c 0
 78 563 187 691 344 691 c 0
 505 691 611 569 611 340 c 0
 611 134 529 29 413 6 c 1
101 339 m 0
 101 127 199 12 344 12 c 0
 498 12 588 127 588 340 c 0
 588 557 492 670 344 670 c 0
 200 670 101 554 101 339 c 0
EndSplineSet
EndChar

StartChar: uni0052
Encoding: 82 82 50
Width: 572
Flags: W
LayerCount: 2
Fore
SplineSet
501 0 m 1
 313 324 l 1
 146 324 l 1
 146 0 l 1
 123 0 l 1
 123 681 l 1
 272 681 l 2
 431 681 496 616 496 504 c 0
 496 393 428 343 337 327 c 1
 528 0 l 1
 501 0 l 1
146 345 m 1
 287 345 l 2
 398 345 473 393 473 504 c 0
 473 602 420 660 269 660 c 2
 146 660 l 1
 146 345 l 1
EndSplineSet
EndChar

StartChar: uni0053
Encoding: 83 83 51
Width: 536
Flags: W
LayerCount: 2
Fore
SplineSet
265 691 m 0
 348 691 397 664 445 622 c 1
 430 605 l 1
 383 649 336 670 265 670 c 0
 166 670 103 613 103 534 c 0
 103 451 148 417 274 378 c 0
 407 337 466 293 466 182 c 0
 466 68 381 -10 258 -10 c 0
 168 -10 108 23 54 72 c 1
 69 87 l 1
 118 42 171 12 257 12 c 0
 369 12 444 78 444 181 c 0
 444 281 393 318 266 358 c 0
 128 401 80 443 80 534 c 0
 80 623 153 691 265 691 c 0
EndSplineSet
EndChar

StartChar: uni0054
Encoding: 84 84 52
Width: 476
Flags: W
LayerCount: 2
Fore
SplineSet
463 681 m 1
 459 659 l 1
 249 659 l 1
 249 0 l 1
 226 0 l 1
 226 659 l 1
 16 659 l 1
 16 681 l 1
 463 681 l 1
EndSplineSet
EndChar

StartChar: uni0055
Encoding: 85 85 53
Width: 640
Flags: W
LayerCount: 2
Fore
SplineSet
528 681 m 1
 528 207 l 2
 528 82 467 -10 321 -10 c 0
 173 -10 113 82 113 207 c 2
 113 681 l 1
 136 681 l 1
 136 210 l 2
 136 93 188 12 321 12 c 0
 454 12 505 95 505 210 c 2
 505 681 l 1
 528 681 l 1
EndSplineSet
EndChar

StartChar: uni0056
Encoding: 86 86 54
Width: 534
Flags: W
LayerCount: 2
Fore
SplineSet
506 681 m 1
 281 0 l 1
 253 0 l 1
 28 681 l 1
 52 681 l 1
 267 21 l 1
 482 681 l 1
 506 681 l 1
EndSplineSet
EndChar

StartChar: uni0057
Encoding: 87 87 55
Width: 790
Flags: W
LayerCount: 2
Fore
SplineSet
752 681 m 1
 593 0 l 1
 567 0 l 1
 395 659 l 1
 223 0 l 1
 197 0 l 1
 38 681 l 1
 62 681 l 1
 212 24 l 1
 381 681 l 1
 409 681 l 1
 580 24 l 1
 729 681 l 1
 752 681 l 1
EndSplineSet
EndChar

StartChar: uni0058
Encoding: 88 88 56
Width: 486
Flags: W
LayerCount: 2
Fore
SplineSet
254 370 m 1
 469 0 l 1
 444 0 l 1
 240 355 l 1
 41 0 l 1
 16 0 l 1
 227 369 l 1
 41 681 l 1
 67 681 l 1
 240 384 l 1
 413 681 l 1
 437 681 l 1
 254 370 l 1
EndSplineSet
EndChar

StartChar: uni0059
Encoding: 89 89 57
Width: 494
Flags: W
LayerCount: 2
Fore
SplineSet
473 681 m 1
 260 271 l 1
 260 0 l 1
 237 0 l 1
 237 270 l 1
 21 681 l 1
 47 681 l 1
 249 292 l 1
 447 681 l 1
 473 681 l 1
EndSplineSet
EndChar

StartChar: uni005A
Encoding: 90 90 58
Width: 509
Flags: W
LayerCount: 2
Fore
SplineSet
459 681 m 1
 459 662 l 1
 69 22 l 1
 446 22 l 1
 443 0 l 1
 41 0 l 1
 41 21 l 1
 432 660 l 1
 79 660 l 1
 79 681 l 1
 459 681 l 1
EndSplineSet
EndChar

StartChar: uni005B
Encoding: 91 91 59
Width: 312
Flags: W
LayerCount: 2
Fore
SplineSet
229 796 m 1
 229 778 l 1
 123 778 l 1
 123 -88 l 1
 229 -88 l 1
 229 -106 l 1
 103 -106 l 1
 103 796 l 1
 229 796 l 1
EndSplineSet
EndChar

StartChar: uni005C
Encoding: 92 92 60
Width: 520
Flags: W
LayerCount: 2
Fore
SplineSet
154 798 m 1
 386 -89 l 1
 366 -95 l 1
 134 792 l 1
 154 798 l 1
EndSplineSet
EndChar

StartChar: uni005D
Encoding: 93 93 61
Width: 312
Flags: W
LayerCount: 2
Fore
SplineSet
209 796 m 1
 209 -106 l 1
 83 -106 l 1
 83 -88 l 1
 189 -88 l 1
 189 778 l 1
 83 778 l 1
 83 796 l 1
 209 796 l 1
EndSplineSet
EndChar

StartChar: uni005E
Encoding: 94 94 62
Width: 524
Flags: W
LayerCount: 2
Fore
SplineSet
269 823 m 1
 446 527 l 1
 418 527 l 1
 261 796 l 1
 104 527 l 1
 76 527 l 1
 253 823 l 1
 269 823 l 1
EndSplineSet
EndChar

StartChar: uni005F
Encoding: 95 95 63
Width: 520
Flags: W
LayerCount: 2
Fore
SplineSet
42 -100 m 1
 42 -79 l 1
 478 -79 l 1
 478 -100 l 1
 42 -100 l 1
EndSplineSet
EndChar

StartChar: uni0060
Encoding: 96 96 64
Width: 246
Flags: W
LayerCount: 2
Fore
SplineSet
40 761 m 1
 216 670 l 1
 208 654 l 1
 30 738 l 1
 40 761 l 1
EndSplineSet
EndChar

StartChar: uni0061
Encoding: 97 97 65
Width: 524
Flags: W
LayerCount: 2
Fore
SplineSet
406 110 m 2
 406 41 419 18 453 6 c 1
 448 -10 l 1
 407 3 388 29 387 91 c 1
 350 25 296 -10 219 -10 c 0
 120 -10 63 52 63 144 c 0
 63 250 143 308 266 308 c 2
 384 308 l 1
 384 370 l 2
 384 460 351 509 252 509 c 0
 206 509 160 497 108 476 c 1
 102 495 l 1
 155 517 202 529 252 529 c 0
 362 529 406 474 406 372 c 2
 406 110 l 2
219 11 m 0
 299 11 350 51 384 118 c 1
 384 288 l 1
 270 288 l 2
 156 288 86 239 86 144 c 0
 86 62 136 11 219 11 c 0
EndSplineSet
EndChar

StartChar: uni0062
Encoding: 98 98 66
Width: 564
Flags: W
LayerCount: 2
Fore
SplineSet
308 529 m 0
 427 529 491 434 491 264 c 0
 491 95 426 -10 302 -10 c 0
 227 -10 173 31 139 81 c 1
 137 0 l 1
 118 0 l 1
 118 733 l 1
 140 736 l 1
 140 436 l 1
 179 490 232 529 308 529 c 0
301 11 m 0
 410 11 469 103 469 264 c 0
 469 424 413 509 308 509 c 0
 231 509 184 469 140 410 c 1
 140 106 l 1
 178 50 230 11 301 11 c 0
EndSplineSet
EndChar

StartChar: uni0063
Encoding: 99 99 67
Width: 464
Flags: W
LayerCount: 2
Fore
SplineSet
283 529 m 0
 339 529 379 514 418 479 c 1
 405 464 l 1
 372 493 335 509 284 509 c 0
 174 509 96 421 96 257 c 0
 96 95 175 11 283 11 c 0
 337 11 377 30 410 59 c 1
 423 44 l 1
 387 12 342 -10 284 -10 c 0
 159 -10 73 87 73 257 c 0
 73 426 156 529 283 529 c 0
EndSplineSet
EndChar

StartChar: uni0064
Encoding: 100 100 68
Width: 569
Flags: W
LayerCount: 2
Fore
SplineSet
429 736 m 1
 451 733 l 1
 451 0 l 1
 432 0 l 1
 429 89 l 1
 400 36 351 -10 265 -10 c 0
 149 -10 73 89 73 258 c 0
 73 418 148 529 275 529 c 0
 356 529 402 487 429 446 c 1
 429 736 l 1
266 11 m 0
 347 11 394 54 429 123 c 1
 429 418 l 1
 399 465 352 509 276 509 c 0
 168 509 95 413 96 258 c 0
 96 101 162 11 266 11 c 0
EndSplineSet
EndChar

StartChar: uni0065
Encoding: 101 101 69
Width: 526
Flags: W
LayerCount: 2
Fore
SplineSet
461 284 m 0
 461 270 460 257 459 246 c 1
 96 246 l 1
 100 87 175 11 280 11 c 0
 342 11 382 31 427 68 c 1
 439 51 l 1
 394 13 347 -10 280 -10 c 0
 154 -10 73 87 73 255 c 0
 73 426 152 529 272 529 c 0
 400 529 461 429 461 284 c 0
439 265 m 1
 439 292 l 2
 439 418 388 509 274 509 c 0
 175 509 99 430 96 265 c 1
 439 265 l 1
EndSplineSet
EndChar

StartChar: uni0066
Encoding: 102 102 70
Width: 307
Flags: W
LayerCount: 2
Fore
SplineSet
246 716 m 0
 184 716 143 686 143 614 c 2
 143 519 l 1
 290 519 l 1
 286 499 l 1
 143 499 l 1
 143 0 l 1
 121 0 l 1
 121 499 l 1
 31 499 l 1
 31 519 l 1
 121 519 l 1
 121 617 l 2
 121 695 171 737 244 737 c 0
 286 737 327 725 360 706 c 1
 352 689 l 1
 319 706 285 716 246 716 c 0
EndSplineSet
EndChar

StartChar: uni0067
Encoding: 103 103 71
Width: 495
Flags: W
LayerCount: 2
Fore
SplineSet
463 550 m 1
 471 526 l 1
 440 518 396 512 318 512 c 1
 382 490 422 440 422 356 c 0
 422 254 354 190 245 190 c 0
 217 190 192 196 171 204 c 1
 139 186 119 161 119 129 c 0
 119 91 147 64 218 64 c 2
 305 64 l 2
 403 64 458 15 458 -57 c 0
 458 -145 393 -197 251 -197 c 0
 107 -197 44 -159 44 -58 c 1
 66 -58 l 1
 68 -146 117 -176 251 -176 c 0
 381 -176 436 -132 436 -58 c 0
 436 5 387 43 304 43 c 2
 216 43 l 2
 137 43 96 78 96 126 c 0
 96 163 120 191 153 212 c 1
 97 241 66 287 66 358 c 0
 66 461 135 529 243 529 c 0
 393 528 422 537 463 550 c 1
244 509 m 0
 142 509 88 446 88 358 c 0
 88 260 160 210 245 210 c 0
 341 210 399 263 399 356 c 0
 399 453 340 509 244 509 c 0
EndSplineSet
EndChar

StartChar: uni0068
Encoding: 104 104 72
Width: 581
Flags: W
LayerCount: 2
Fore
SplineSet
330 529 m 0
 424 529 469 469 469 369 c 2
 469 0 l 1
 447 0 l 1
 447 367 l 2
 447 459 409 509 330 509 c 0
 246 509 189 459 140 384 c 1
 140 0 l 1
 118 0 l 1
 118 733 l 1
 140 736 l 1
 140 414 l 1
 187 484 248 529 330 529 c 0
EndSplineSet
EndChar

StartChar: uni0069
Encoding: 105 105 73
Width: 258
Flags: W
LayerCount: 2
Fore
SplineSet
129 724 m 0
 142 724 149 714 149 704 c 0
 149 694 142 685 129 685 c 0
 116 685 109 694 109 704 c 0
 109 714 116 724 129 724 c 0
140 519 m 1
 140 0 l 1
 118 0 l 1
 118 519 l 1
 140 519 l 1
EndSplineSet
EndChar

StartChar: uni006A
Encoding: 106 106 74
Width: 258
Flags: W
LayerCount: 2
Fore
SplineSet
129 724 m 0
 143 724 150 714 150 704 c 0
 150 694 143 685 129 685 c 0
 117 685 109 694 109 704 c 0
 109 714 117 724 129 724 c 0
141 519 m 1
 141 6 l 2
 141 -122 105 -155 28 -195 c 1
 22 -178 l 1
 90 -142 119 -111 119 7 c 2
 119 519 l 1
 141 519 l 1
EndSplineSet
EndChar

StartChar: uni006B
Encoding: 107 107 75
Width: 463
Flags: W
LayerCount: 2
Fore
SplineSet
140 736 m 1
 140 0 l 1
 118 0 l 1
 118 733 l 1
 140 736 l 1
420 519 m 1
 174 284 l 1
 445 0 l 1
 418 0 l 1
 146 284 l 1
 392 519 l 1
 420 519 l 1
EndSplineSet
EndChar

StartChar: uni006C
Encoding: 108 108 76
Width: 285
Flags: W
LayerCount: 2
Fore
SplineSet
185 -10 m 0
 142 -10 113 16 113 72 c 2
 113 733 l 1
 135 736 l 1
 135 73 l 2
 135 32 152 11 186 11 c 0
 200 11 214 14 226 19 c 1
 232 0 l 1
 219 -5 203 -10 185 -10 c 0
EndSplineSet
EndChar

StartChar: uni006D
Encoding: 109 109 77
Width: 848
Flags: W
LayerCount: 2
Fore
SplineSet
606 529 m 0
 690 529 735 469 735 369 c 2
 735 0 l 1
 713 0 l 1
 713 367 l 2
 713 459 676 509 606 509 c 0
 535 509 480 459 437 384 c 1
 437 0 l 1
 415 0 l 1
 415 369 l 2
 415 459 379 509 308 509 c 0
 238 509 183 459 140 384 c 1
 140 0 l 1
 118 0 l 1
 118 519 l 1
 137 519 l 1
 139 414 l 1
 181 484 240 529 309 529 c 0
 381 529 425 485 435 410 c 1
 477 482 535 529 606 529 c 0
EndSplineSet
EndChar

StartChar: uni006E
Encoding: 110 110 78
Width: 581
Flags: W
LayerCount: 2
Fore
SplineSet
330 529 m 0
 425 529 469 471 469 369 c 2
 469 0 l 1
 447 0 l 1
 447 367 l 2
 447 461 409 509 330 509 c 0
 246 509 189 459 140 384 c 1
 140 0 l 1
 118 0 l 1
 118 519 l 1
 137 519 l 1
 139 413 l 1
 186 483 248 529 330 529 c 0
EndSplineSet
EndChar

StartChar: uni006F
Encoding: 111 111 79
Width: 560
Flags: W
LayerCount: 2
Fore
SplineSet
281 529 m 0
 408 529 488 434 488 262 c 0
 488 89 406 -10 280 -10 c 0
 151 -10 73 91 73 259 c 0
 73 431 156 529 281 529 c 0
281 509 m 0
 169 509 96 422 96 259 c 0
 96 101 165 11 280 11 c 0
 393 11 465 99 465 262 c 0
 465 421 396 509 281 509 c 0
EndSplineSet
EndChar

StartChar: uni0070
Encoding: 112 112 80
Width: 564
Flags: W
LayerCount: 2
Fore
SplineSet
308 529 m 0
 426 529 491 435 491 264 c 0
 491 94 426 -10 303 -10 c 0
 228 -10 174 31 140 80 c 1
 140 -192 l 1
 118 -196 l 1
 118 519 l 1
 137 519 l 1
 139 434 l 1
 177 489 231 529 308 529 c 0
302 11 m 0
 410 11 469 103 469 264 c 0
 469 424 413 509 308 509 c 0
 231 509 184 469 140 410 c 1
 140 106 l 1
 179 50 230 11 302 11 c 0
EndSplineSet
EndChar

StartChar: uni0071
Encoding: 113 113 81
Width: 569
Flags: W
LayerCount: 2
Fore
SplineSet
432 519 m 1
 451 519 l 1
 451 -196 l 1
 429 -192 l 1
 429 88 l 1
 401 37 352 -10 265 -10 c 0
 149 -10 73 89 73 258 c 0
 73 418 147 529 275 529 c 0
 357 529 403 486 430 446 c 1
 432 519 l 1
266 11 m 0
 347 11 393 53 429 121 c 1
 429 418 l 1
 400 465 353 509 276 509 c 0
 167 509 95 413 96 258 c 0
 96 101 162 11 266 11 c 0
EndSplineSet
EndChar

StartChar: uni0072
Encoding: 114 114 82
Width: 362
Flags: W
LayerCount: 2
Fore
SplineSet
294 529 m 0
 317 529 333 526 345 523 c 1
 340 504 l 1
 327 507 312 509 294 509 c 0
 216 509 173 456 140 344 c 1
 140 0 l 1
 118 0 l 1
 118 519 l 1
 137 519 l 1
 138 390 l 1
 167 485 215 529 294 529 c 0
EndSplineSet
EndChar

StartChar: uni0073
Encoding: 115 115 83
Width: 450
Flags: W
LayerCount: 2
Fore
SplineSet
224 529 m 0
 286 529 332 511 378 474 c 1
 365 458 l 1
 321 492 283 509 225 509 c 0
 147 509 89 467 89 401 c 0
 89 340 128 313 231 285 c 0
 348 253 392 220 392 134 c 0
 392 48 322 -10 223 -10 c 0
 142 -10 92 19 48 56 c 1
 61 71 l 1
 106 34 149 11 223 11 c 0
 306 11 369 55 369 134 c 0
 369 209 334 236 221 267 c 0
 111 296 66 331 66 401 c 0
 66 477 136 529 224 529 c 0
EndSplineSet
EndChar

StartChar: uni0074
Encoding: 116 116 84
Width: 331
Flags: W
LayerCount: 2
Fore
SplineSet
317 37 m 1
 327 20 l 1
 299 3 267 -10 226 -10 c 0
 156 -10 113 33 113 117 c 2
 113 499 l 1
 28 499 l 1
 28 519 l 1
 113 519 l 1
 113 650 l 1
 135 652 l 1
 135 519 l 1
 279 519 l 1
 276 499 l 1
 135 499 l 1
 135 118 l 2
 135 48 167 11 227 11 c 0
 263 11 291 22 317 37 c 1
EndSplineSet
EndChar

StartChar: uni0075
Encoding: 117 117 85
Width: 576
Flags: W
LayerCount: 2
Fore
SplineSet
459 519 m 1
 459 0 l 1
 439 0 l 1
 439 106 l 1
 403 41 345 -10 259 -10 c 0
 167 -10 113 46 113 149 c 2
 113 519 l 1
 135 519 l 1
 135 151 l 2
 135 56 181 11 262 11 c 0
 342 11 396 61 437 133 c 1
 437 519 l 1
 459 519 l 1
EndSplineSet
EndChar

StartChar: uni0076
Encoding: 118 118 86
Width: 447
Flags: W
LayerCount: 2
Fore
SplineSet
424 519 m 1
 243 0 l 1
 214 0 l 1
 23 519 l 1
 48 519 l 1
 229 19 l 1
 400 519 l 1
 424 519 l 1
EndSplineSet
EndChar

StartChar: uni0077
Encoding: 119 119 87
Width: 680
Flags: W
LayerCount: 2
Fore
SplineSet
647 519 m 1
 511 0 l 1
 482 0 l 1
 341 497 l 1
 200 0 l 1
 171 0 l 1
 33 519 l 1
 57 519 l 1
 186 21 l 1
 328 519 l 1
 355 519 l 1
 496 21 l 1
 624 519 l 1
 647 519 l 1
EndSplineSet
EndChar

StartChar: uni0078
Encoding: 120 120 88
Width: 433
Flags: W
LayerCount: 2
Fore
SplineSet
229 279 m 1
 415 0 l 1
 389 0 l 1
 215 265 l 1
 43 0 l 1
 18 0 l 1
 202 278 l 1
 43 519 l 1
 69 519 l 1
 216 292 l 1
 364 519 l 1
 390 519 l 1
 229 279 l 1
EndSplineSet
EndChar

StartChar: uni0079
Encoding: 121 121 89
Width: 444
Flags: W
LayerCount: 2
Fore
SplineSet
421 519 m 1
 240 -1 l 2
 200 -116 169 -163 59 -195 c 1
 56 -177 l 1
 159 -146 181 -103 219 0 c 1
 211 0 l 1
 23 519 l 1
 47 519 l 1
 225 17 l 1
 396 519 l 1
 421 519 l 1
EndSplineSet
EndChar

StartChar: uni007A
Encoding: 122 122 90
Width: 405
Flags: W
LayerCount: 2
Fore
SplineSet
374 519 m 1
 374 501 l 1
 59 21 l 1
 366 21 l 1
 364 0 l 1
 31 0 l 1
 31 18 l 1
 346 499 l 1
 58 499 l 1
 58 519 l 1
 374 519 l 1
EndSplineSet
EndChar

StartChar: uni007B
Encoding: 123 123 91
Width: 328
Flags: W
LayerCount: 2
Fore
SplineSet
244 818 m 1
 244 800 l 1
 188 800 164 771 164 712 c 2
 164 441 l 2
 164 379 139 356 88 349 c 1
 139 342 164 319 164 257 c 2
 164 -14 l 2
 164 -73 188 -102 244 -102 c 1
 244 -120 l 1
 183 -120 144 -90 144 -17 c 2
 144 266 l 2
 144 319 111 338 64 338 c 1
 64 360 l 1
 111 360 144 379 144 432 c 2
 144 715 l 2
 144 788 183 818 244 818 c 1
EndSplineSet
EndChar

StartChar: uni007C
Encoding: 124 124 92
Width: 413
Flags: W
LayerCount: 2
Fore
SplineSet
217 801 m 1
 217 -98 l 1
 195 -98 l 1
 195 801 l 1
 217 801 l 1
EndSplineSet
EndChar

StartChar: uni007D
Encoding: 125 125 93
Width: 328
Flags: W
LayerCount: 2
Fore
SplineSet
84 818 m 1
 145 818 184 788 184 715 c 2
 184 432 l 2
 184 379 217 360 264 360 c 1
 264 338 l 1
 217 338 184 319 184 266 c 2
 184 -17 l 2
 184 -90 145 -120 84 -120 c 1
 84 -102 l 1
 140 -102 164 -73 164 -14 c 2
 164 257 l 2
 164 319 189 342 240 349 c 1
 189 356 164 379 164 441 c 2
 164 712 l 2
 164 771 140 800 84 800 c 1
 84 818 l 1
EndSplineSet
EndChar

StartChar: uni007E
Encoding: 126 126 94
Width: 457
Flags: W
LayerCount: 2
Fore
SplineSet
305 280 m 0
 253 280 202 335 155 335 c 0
 121 335 105 317 86 293 c 1
 71 302 l 1
 93 334 115 357 155 357 c 0
 210 357 257 302 305 302 c 0
 337 302 353 319 371 343 c 1
 386 335 l 1
 365 303 343 280 305 280 c 0
EndSplineSet
EndChar

StartChar: uni00A1
Encoding: 161 161 96
Width: 238
Flags: W
LayerCount: 2
Fore
SplineSet
119 453 m 0
 133 453 143 442 143 430 c 0
 143 417 133 406 119 406 c 0
 104 406 96 417 96 430 c 0
 96 442 104 453 119 453 c 0
130 252 m 1
 130 -192 l 1
 109 -192 l 1
 109 252 l 1
 130 252 l 1
EndSplineSet
EndChar

StartChar: uni00A2
Encoding: 162 162 97
Width: 464
Flags: W
LayerCount: 2
Fore
SplineSet
423 44 m 1
 388 13 346 -8 291 -10 c 1
 291 -146 l 1
 271 -146 l 1
 271 -10 l 1
 153 -3 73 93 73 257 c 0
 73 422 152 523 273 529 c 1
 273 676 l 1
 292 676 l 1
 292 529 l 1
 343 527 381 512 418 479 c 1
 405 464 l 1
 372 493 335 509 284 509 c 0
 174 509 96 421 96 257 c 0
 96 95 175 11 283 11 c 0
 337 11 377 30 410 59 c 1
 423 44 l 1
EndSplineSet
EndChar

StartChar: uni00A3
Encoding: 163 163 98
Width: 498
Flags: W
LayerCount: 2
Fore
SplineSet
167 137 m 2
 167 70 144 44 95 21 c 1
 434 21 l 1
 431 0 l 1
 63 0 l 1
 63 21 l 1
 121 48 145 72 145 135 c 2
 145 343 l 1
 83 343 l 1
 83 364 l 1
 145 364 l 1
 145 505 l 2
 145 598 196 673 300 673 c 0
 362 673 405 650 443 606 c 1
 428 592 l 1
 394 631 358 652 300 652 c 0
 211 652 167 588 167 505 c 2
 167 364 l 1
 384 364 l 1
 384 343 l 1
 167 343 l 1
 167 137 l 2
EndSplineSet
EndChar

StartChar: uni00A4
Encoding: 164 164 99
Width: 560
Flags: W
LayerCount: 2
Fore
SplineSet
453 340 m 0
 453 290 436 246 407 213 c 1
 487 134 l 1
 472 119 l 1
 391 199 l 1
 363 175 325 161 280 161 c 0
 236 161 198 175 169 199 c 1
 88 119 l 1
 73 134 l 1
 154 214 l 1
 125 246 108 291 108 340 c 0
 108 389 124 432 152 465 c 1
 73 544 l 1
 88 559 l 1
 167 479 l 1
 196 505 235 520 280 520 c 0
 326 520 364 505 393 480 c 1
 472 559 l 1
 487 544 l 1
 408 465 l 1
 437 433 453 389 453 340 c 0
130 340 m 0
 130 247 186 181 280 181 c 0
 377 181 431 248 431 340 c 0
 431 432 379 500 280 500 c 0
 184 500 130 432 130 340 c 0
EndSplineSet
EndChar

StartChar: uni00A5
Encoding: 165 165 100
Width: 485
Flags: W
LayerCount: 2
Fore
SplineSet
464 661 m 1
 265 329 l 1
 388 329 l 1
 388 308 l 1
 255 308 l 1
 255 190 l 1
 388 190 l 1
 388 168 l 1
 255 168 l 1
 255 0 l 1
 233 0 l 1
 233 168 l 1
 101 168 l 1
 101 190 l 1
 233 190 l 1
 233 308 l 1
 101 308 l 1
 101 329 l 1
 223 329 l 1
 21 661 l 1
 48 661 l 1
 244 331 l 1
 438 661 l 1
 464 661 l 1
EndSplineSet
EndChar

StartChar: uni00A6
Encoding: 166 166 101
Width: 413
Flags: W
LayerCount: 2
Fore
SplineSet
217 801 m 1
 217 443 l 1
 195 443 l 1
 195 801 l 1
 217 801 l 1
217 262 m 1
 217 -98 l 1
 195 -98 l 1
 195 262 l 1
 217 262 l 1
EndSplineSet
EndChar

StartChar: uni00A7
Encoding: 167 167 102
Width: 532
Flags: W
LayerCount: 2
Fore
SplineSet
352 160 m 1
 392 137 409 109 409 62 c 0
 409 -15 344 -64 257 -64 c 0
 192 -64 147 -48 102 -20 c 1
 114 -2 l 1
 156 -30 200 -43 257 -43 c 0
 337 -43 386 0 386 61 c 0
 386 117 363 142 257 178 c 0
 143 217 99 245 99 322 c 0
 99 372 127 413 184 451 c 1
 140 476 126 504 126 547 c 0
 126 623 192 672 271 672 c 0
 335 672 375 655 417 629 c 1
 405 612 l 1
 362 639 325 652 272 652 c 0
 200 652 148 607 148 548 c 0
 148 492 173 468 286 430 c 0
 393 393 432 358 432 285 c 0
 432 233 407 194 352 160 c 1
122 322 m 0
 122 259 152 234 263 196 c 0
 292 186 315 178 335 168 c 1
 388 201 410 236 410 284 c 0
 410 344 387 375 280 411 c 0
 248 422 222 432 201 442 c 1
 146 406 122 369 122 322 c 0
EndSplineSet
EndChar

StartChar: uni00A8
Encoding: 168 168 103
Width: 265
Flags: W
LayerCount: 2
Fore
SplineSet
50 712 m 0
 62 712 70 703 70 692 c 0
 70 681 62 673 50 673 c 0
 38 673 30 681 30 692 c 0
 30 703 38 712 50 712 c 0
216 712 m 0
 228 712 235 703 235 692 c 0
 235 681 228 673 216 673 c 0
 203 673 195 681 195 692 c 0
 195 703 203 712 216 712 c 0
EndSplineSet
EndChar

StartChar: uni00A9
Encoding: 169 169 104
Width: 810
Flags: W
LayerCount: 2
Fore
SplineSet
405 722 m 0
 565 722 683 605 683 435 c 0
 683 268 565 148 405 148 c 0
 245 148 127 265 127 435 c 0
 127 602 245 722 405 722 c 0
406 701 m 0
 257 701 149 591 149 435 c 0
 149 276 257 169 406 169 c 0
 553 169 661 279 661 435 c 0
 661 594 553 701 406 701 c 0
404 606 m 0
 443 606 468 595 491 577 c 1
 480 562 l 1
 460 577 440 586 404 586 c 0
 357 586 295 551 295 437 c 0
 295 330 343 285 405 285 c 0
 446 285 470 298 490 314 c 1
 500 297 l 1
 479 280 448 265 405 265 c 0
 328 265 272 324 272 437 c 0
 272 558 343 606 404 606 c 0
EndSplineSet
EndChar

StartChar: uni00AA
Encoding: 170 170 105
Width: 500
Flags: W
LayerCount: 2
Fore
SplineSet
218 277 m 0
 139 277 92 323 92 393 c 0
 92 473 158 517 256 517 c 2
 349 517 l 1
 349 561 l 2
 349 627 324 661 244 661 c 0
 208 661 171 652 131 637 c 1
 124 656 l 1
 166 672 203 681 244 681 c 0
 334 681 371 641 371 563 c 2
 371 367 l 2
 371 316 382 301 407 292 c 1
 402 277 l 1
 369 286 353 305 352 349 c 1
 321 302 278 277 218 277 c 0
260 496 m 2
 171 496 116 463 116 393 c 0
 116 332 156 297 218 297 c 0
 281 297 321 328 349 377 c 1
 349 496 l 1
 260 496 l 2
91 21 m 1
 421 21 l 1
 421 0 l 1
 91 0 l 1
 91 21 l 1
EndSplineSet
EndChar

StartChar: uni00AB
Encoding: 171 171 106
Width: 533
Flags: W
LayerCount: 2
Fore
SplineSet
240 503 m 1
 255 494 l 1
 115 288 l 1
 255 83 l 1
 240 74 l 1
 89 281 l 1
 89 295 l 1
 240 503 l 1
429 503 m 1
 444 494 l 1
 304 288 l 1
 444 83 l 1
 429 74 l 1
 278 281 l 1
 278 295 l 1
 429 503 l 1
EndSplineSet
EndChar

StartChar: uni00AC
Encoding: 172 172 107
Width: 495
Flags: W
LayerCount: 2
Fore
SplineSet
417 331 m 1
 417 198 l 1
 394 198 l 1
 394 309 l 1
 78 309 l 1
 78 331 l 1
 417 331 l 1
EndSplineSet
EndChar

StartChar: uni00AD
Encoding: 173 173 108
Width: 399
Flags: W
LayerCount: 2
Fore
SplineSet
78 302 m 1
 78 323 l 1
 321 323 l 1
 321 302 l 1
 78 302 l 1
EndSplineSet
EndChar

StartChar: uni00AE
Encoding: 174 174 109
Width: 637
Flags: W
LayerCount: 2
Fore
SplineSet
318 721 m 0
 446 721 541 628 541 502 c 0
 541 379 449 278 318 278 c 0
 191 278 96 372 96 498 c 0
 96 620 188 721 318 721 c 0
318 297 m 0
 436 297 521 389 521 502 c 0
 521 616 435 702 318 702 c 0
 201 702 116 611 116 498 c 0
 116 383 204 297 318 297 c 0
407 560 m 0
 407 519 382 498 344 490 c 1
 418 369 l 1
 391 369 l 1
 322 487 l 1
 267 487 l 1
 267 369 l 1
 245 369 l 1
 245 638 l 1
 305 638 l 2
 373 638 407 612 407 560 c 0
267 618 m 1
 267 506 l 1
 320 506 l 2
 359 506 385 521 385 560 c 0
 385 603 357 618 309 618 c 2
 267 618 l 1
EndSplineSet
EndChar

StartChar: uni00AF
Encoding: 175 175 110
Width: 267
Flags: W
LayerCount: 2
Fore
SplineSet
237 685 m 1
 30 685 l 1
 30 706 l 1
 237 706 l 1
 237 685 l 1
EndSplineSet
EndChar

StartChar: uni00B0
Encoding: 176 176 111
Width: 520
Flags: W
LayerCount: 2
Fore
SplineSet
219 411 m 0
 148 411 84 464 84 552 c 0
 84 635 148 691 219 691 c 0
 298 691 355 636 355 551 c 0
 355 467 298 411 219 411 c 0
219 432 m 0
 290 432 333 480 333 551 c 0
 333 623 290 671 219 671 c 0
 155 671 107 623 107 552 c 0
 107 480 155 432 219 432 c 0
EndSplineSet
EndChar

StartChar: uni00B1
Encoding: 177 177 112
Width: 485
Flags: W
LayerCount: 2
Fore
SplineSet
78 80 m 1
 78 101 l 1
 407 101 l 1
 407 80 l 1
 78 80 l 1
78 320 m 1
 78 341 l 1
 232 341 l 1
 232 496 l 1
 254 496 l 1
 254 341 l 1
 407 341 l 1
 407 320 l 1
 254 320 l 1
 254 165 l 1
 232 165 l 1
 232 320 l 1
 78 320 l 1
EndSplineSet
EndChar

StartChar: uni00B2
Encoding: 178 178 113
Width: 400
Flags: W
LayerCount: 2
Fore
SplineSet
198 738 m 0
 268 738 309 693 309 633 c 0
 309 548 265 502 111 343 c 1
 321 343 l 1
 317 322 l 1
 84 322 l 1
 84 342 l 1
 249 513 286 557 286 632 c 0
 286 685 253 718 198 718 c 0
 152 718 121 699 96 670 c 1
 79 682 l 1
 113 721 150 738 198 738 c 0
EndSplineSet
EndChar

StartChar: uni00B3
Encoding: 179 179 114
Width: 400
Flags: W
LayerCount: 2
Fore
SplineSet
201 740 m 0
 269 740 314 698 314 639 c 0
 314 581 275 547 226 541 c 1
 280 539 324 503 324 436 c 0
 324 365 273 315 194 315 c 0
 144 315 107 333 75 368 c 1
 90 379 l 1
 122 346 154 335 193 335 c 0
 264 335 302 377 302 435 c 0
 302 502 260 530 197 530 c 2
 172 530 l 1
 175 549 l 1
 195 549 l 2
 241 549 292 575 292 638 c 0
 292 689 255 720 200 720 c 0
 162 720 133 709 99 681 c 1
 86 694 l 1
 120 724 152 740 201 740 c 0
EndSplineSet
EndChar

StartChar: uni00B4
Encoding: 180 180 115
Width: 246
Flags: W
LayerCount: 2
Fore
SplineSet
206 761 m 1
 216 738 l 1
 38 654 l 1
 30 670 l 1
 206 761 l 1
EndSplineSet
EndChar

StartChar: uni00B5
Encoding: 181 181 116
Width: 582
Flags: W
LayerCount: 2
Fore
SplineSet
485 -3 m 1
 465 -5 l 1
 449 38 441 69 438 123 c 1
 400 49 345 -10 258 -10 c 0
 191 -10 152 22 136 74 c 1
 139 21 140 -16 140 -64 c 2
 140 -192 l 1
 118 -194 l 1
 118 519 l 1
 140 519 l 1
 140 142 l 2
 140 45 196 11 258 11 c 0
 337 11 394 68 434 152 c 1
 434 519 l 1
 456 519 l 1
 456 170 l 2
 456 97 467 47 485 -3 c 1
EndSplineSet
EndChar

StartChar: uni00B6
Encoding: 182 182 117
Width: 686
Flags: W
LayerCount: 2
Fore
SplineSet
333 681 m 2
 517 681 l 1
 517 -192 l 1
 495 -196 l 1
 495 662 l 1
 353 662 l 1
 353 -192 l 1
 331 -196 l 1
 331 306 l 1
 170 309 116 395 116 494 c 0
 116 614 197 681 333 681 c 2
EndSplineSet
EndChar

StartChar: uni00B7
Encoding: 183 183 118
Width: 163
Flags: W
LayerCount: 2
Fore
SplineSet
81 350 m 0
 96 350 105 339 105 326 c 0
 105 314 96 303 81 303 c 0
 67 303 58 314 58 326 c 0
 58 339 67 350 81 350 c 0
EndSplineSet
EndChar

StartChar: uni00B8
Encoding: 184 184 119
Width: 212
Flags: W
LayerCount: 2
Fore
SplineSet
92 9 m 1
 91 -74 l 1
 151 -77 182 -99 182 -140 c 0
 182 -187 142 -212 98 -212 c 0
 67 -212 47 -204 30 -194 c 1
 40 -177 l 1
 54 -186 72 -192 98 -192 c 0
 130 -192 159 -176 159 -140 c 0
 159 -107 132 -91 70 -90 c 1
 76 9 l 1
 92 9 l 1
EndSplineSet
EndChar

StartChar: uni00B9
Encoding: 185 185 120
Width: 400
Flags: W
LayerCount: 2
Fore
SplineSet
241 732 m 1
 241 322 l 1
 219 322 l 1
 219 707 l 1
 109 642 l 1
 98 658 l 1
 224 732 l 1
 241 732 l 1
EndSplineSet
EndChar

StartChar: uni00BA
Encoding: 186 186 121
Width: 500
Flags: W
LayerCount: 2
Fore
SplineSet
249 681 m 0
 352 681 416 611 416 481 c 0
 416 351 350 277 248 277 c 0
 144 277 81 352 81 479 c 0
 81 607 148 681 249 681 c 0
250 661 m 0
 161 661 104 599 104 479 c 0
 104 363 159 297 248 297 c 0
 338 297 393 361 393 481 c 0
 393 598 340 661 250 661 c 0
84 0 m 1
 84 21 l 1
 413 21 l 1
 413 0 l 1
 84 0 l 1
EndSplineSet
EndChar

StartChar: uni00BB
Encoding: 187 187 122
Width: 524
Flags: W
LayerCount: 2
Fore
SplineSet
104 503 m 1
 255 295 l 1
 255 281 l 1
 104 74 l 1
 89 83 l 1
 230 288 l 1
 90 494 l 1
 104 503 l 1
284 503 m 1
 435 295 l 1
 435 281 l 1
 284 74 l 1
 269 83 l 1
 410 288 l 1
 269 494 l 1
 284 503 l 1
EndSplineSet
EndChar

StartChar: uni00BC
Encoding: 188 188 123
Width: 892
Flags: W
LayerCount: 2
Fore
SplineSet
641 742 m 1
 659 733 l 1
 251 -66 l 1
 233 -57 l 1
 641 742 l 1
241 271 m 1
 219 271 l 1
 219 656 l 1
 109 591 l 1
 98 607 l 1
 224 681 l 1
 241 681 l 1
 241 271 l 1
827 132 m 1
 827 112 l 1
 769 112 l 1
 769 0 l 1
 747 0 l 1
 747 112 l 1
 556 112 l 1
 556 130 l 1
 688 418 l 1
 706 411 l 1
 578 132 l 1
 747 132 l 1
 750 259 l 1
 769 259 l 1
 769 132 l 1
 827 132 l 1
EndSplineSet
EndChar

StartChar: uni00BD
Encoding: 189 189 124
Width: 892
Flags: W
LayerCount: 2
Fore
SplineSet
641 742 m 1
 659 733 l 1
 251 -66 l 1
 233 -57 l 1
 641 742 l 1
241 681 m 1
 241 271 l 1
 219 271 l 1
 219 656 l 1
 109 591 l 1
 98 607 l 1
 224 681 l 1
 241 681 l 1
690 416 m 0
 760 416 801 371 801 311 c 0
 801 226 757 180 603 21 c 1
 813 21 l 1
 809 0 l 1
 576 0 l 1
 576 20 l 1
 741 191 778 235 778 310 c 0
 778 363 745 396 690 396 c 0
 644 396 613 377 588 348 c 1
 571 360 l 1
 605 399 642 416 690 416 c 0
EndSplineSet
EndChar

StartChar: uni00BE
Encoding: 190 190 125
Width: 892
Flags: W
LayerCount: 2
Fore
SplineSet
641 742 m 1
 659 733 l 1
 251 -66 l 1
 233 -57 l 1
 641 742 l 1
324 385 m 0
 324 314 273 264 194 264 c 0
 144 264 107 282 75 317 c 1
 90 328 l 1
 122 295 154 284 193 284 c 0
 264 284 302 326 302 384 c 0
 302 451 260 479 197 479 c 2
 172 479 l 1
 175 498 l 1
 195 498 l 2
 241 498 292 524 292 587 c 0
 292 638 255 669 200 669 c 0
 162 669 133 658 99 630 c 1
 86 643 l 1
 120 673 152 689 201 689 c 0
 269 689 314 647 314 588 c 0
 314 530 275 496 226 490 c 1
 280 488 324 452 324 385 c 0
827 132 m 1
 827 112 l 1
 769 112 l 1
 769 0 l 1
 747 0 l 1
 747 112 l 1
 556 112 l 1
 556 130 l 1
 688 418 l 1
 706 411 l 1
 578 132 l 1
 747 132 l 1
 750 259 l 1
 769 259 l 1
 769 132 l 1
 827 132 l 1
EndSplineSet
EndChar

StartChar: uni00BF
Encoding: 191 191 126
Width: 441
Flags: W
LayerCount: 2
Fore
SplineSet
249 406 m 0
 234 406 225 417 225 430 c 0
 225 442 234 453 249 453 c 0
 263 453 272 442 272 430 c 0
 272 417 263 406 249 406 c 0
209 -197 m 0
 115 -197 56 -136 56 -69 c 0
 56 78 239 63 239 206 c 2
 239 252 l 1
 261 252 l 1
 261 204 l 2
 261 50 79 67 79 -69 c 0
 79 -129 131 -176 209 -176 c 0
 277 -176 322 -152 369 -99 c 1
 385 -112 l 1
 335 -169 282 -197 209 -197 c 0
EndSplineSet
EndChar

StartChar: uni00C0
Encoding: 192 192 127
Width: 557
Flags: W
LayerCount: 2
Fore
SplineSet
199 861 m 1
 373 779 l 1
 366 764 l 1
 187 838 l 1
 199 861 l 1
505 0 m 1
 436 203 l 1
 120 203 l 1
 51 0 l 1
 28 0 l 1
 265 681 l 1
 292 681 l 1
 530 0 l 1
 505 0 l 1
128 224 m 1
 429 224 l 1
 278 663 l 1
 128 224 l 1
EndSplineSet
EndChar

StartChar: uni00C1
Encoding: 193 193 128
Width: 557
Flags: W
LayerCount: 2
Fore
SplineSet
371 838 m 1
 192 764 l 1
 185 779 l 1
 360 861 l 1
 371 838 l 1
505 0 m 1
 435 203 l 1
 121 203 l 1
 51 0 l 1
 28 0 l 1
 265 681 l 1
 292 681 l 1
 530 0 l 1
 505 0 l 1
128 224 m 1
 428 224 l 1
 278 663 l 1
 128 224 l 1
EndSplineSet
EndChar

StartChar: uni00C2
Encoding: 194 194 129
Width: 557
Flags: W
LayerCount: 2
Fore
SplineSet
164 766 m 1
 153 780 l 1
 273 869 l 1
 285 869 l 1
 405 780 l 1
 393 766 l 1
 279 845 l 1
 164 766 l 1
505 0 m 1
 436 203 l 1
 120 203 l 1
 51 0 l 1
 28 0 l 1
 265 681 l 1
 292 681 l 1
 530 0 l 1
 505 0 l 1
128 224 m 1
 429 224 l 1
 278 663 l 1
 128 224 l 1
EndSplineSet
EndChar

StartChar: uni00C3
Encoding: 195 195 130
Width: 557
Flags: W
LayerCount: 2
Fore
SplineSet
337 804 m 0
 311 804 288 816 270 828 c 0
 252 840 236 847 220 847 c 0
 196 847 181 837 160 812 c 1
 146 821 l 1
 168 851 190 867 220 867 c 0
 241 867 261 857 282 844 c 0
 300 833 317 824 337 824 c 0
 360 824 375 835 396 865 c 1
 410 857 l 1
 389 819 366 804 337 804 c 0
505 0 m 1
 436 203 l 1
 120 203 l 1
 51 0 l 1
 28 0 l 1
 265 681 l 1
 292 681 l 1
 530 0 l 1
 505 0 l 1
128 224 m 1
 429 224 l 1
 278 663 l 1
 128 224 l 1
EndSplineSet
EndChar

StartChar: uni00C4
Encoding: 196 196 131
Width: 557
Flags: W
LayerCount: 2
Fore
SplineSet
196 838 m 0
 208 838 216 829 216 818 c 0
 216 807 208 799 196 799 c 0
 184 799 176 807 176 818 c 0
 176 829 184 838 196 838 c 0
362 838 m 0
 374 838 381 829 381 818 c 0
 381 807 374 799 362 799 c 0
 349 799 341 807 341 818 c 0
 341 829 349 838 362 838 c 0
505 0 m 1
 436 203 l 1
 120 203 l 1
 51 0 l 1
 28 0 l 1
 265 681 l 1
 292 681 l 1
 530 0 l 1
 505 0 l 1
128 224 m 1
 429 224 l 1
 278 663 l 1
 128 224 l 1
EndSplineSet
EndChar

StartChar: uni00C5
Encoding: 197 197 132
Width: 557
Flags: W
LayerCount: 2
Fore
SplineSet
278 927 m 0
 327 927 358 896 358 849 c 0
 358 801 326 770 278 770 c 0
 230 770 199 801 199 848 c 0
 199 896 231 927 278 927 c 0
278 909 m 0
 241 909 220 886 220 848 c 0
 220 811 241 788 278 788 c 0
 316 788 337 811 337 849 c 0
 337 886 316 909 278 909 c 0
505 0 m 1
 436 203 l 1
 120 203 l 1
 51 0 l 1
 28 0 l 1
 265 681 l 1
 292 681 l 1
 530 0 l 1
 505 0 l 1
128 224 m 1
 429 224 l 1
 278 663 l 1
 128 224 l 1
EndSplineSet
EndChar

StartChar: uni00C6
Encoding: 198 198 133
Width: 755
Flags: W
LayerCount: 2
Fore
SplineSet
481 21 m 1
 712 21 l 1
 712 0 l 1
 464 0 l 1
 412 196 l 1
 110 196 l 1
 35 0 l 1
 12 0 l 1
 275 681 l 1
 659 681 l 1
 656 660 l 1
 313 660 l 1
 389 370 l 1
 651 370 l 1
 651 349 l 1
 395 349 l 1
 481 21 l 1
119 218 m 1
 406 218 l 1
 289 663 l 1
 119 218 l 1
EndSplineSet
EndChar

StartChar: uni00C7
Encoding: 199 199 134
Width: 538
Flags: W
LayerCount: 2
Fore
SplineSet
342 -74 m 1
 402 -77 433 -99 433 -140 c 0
 433 -187 393 -212 349 -212 c 0
 318 -212 298 -204 281 -194 c 1
 291 -177 l 1
 305 -186 323 -192 349 -192 c 0
 381 -192 410 -176 410 -140 c 0
 410 -107 383 -91 321 -90 c 1
 326 -10 l 1
 181 -1 78 121 78 340 c 0
 78 577 195 691 344 691 c 0
 419 691 463 668 505 633 c 1
 492 617 l 1
 449 651 411 670 346 670 c 0
 208 670 101 570 101 340 c 0
 101 123 205 12 342 12 c 0
 419 12 461 39 499 71 c 1
 513 54 l 1
 472 19 421 -10 343 -10 c 1
 342 -74 l 1
EndSplineSet
EndChar

StartChar: uni00C8
Encoding: 200 200 135
Width: 494
Flags: W
LayerCount: 2
Fore
SplineSet
208 861 m 1
 382 779 l 1
 375 764 l 1
 196 838 l 1
 208 861 l 1
444 681 m 1
 441 660 l 1
 146 660 l 1
 146 370 l 1
 400 370 l 1
 400 349 l 1
 146 349 l 1
 146 21 l 1
 451 21 l 1
 451 0 l 1
 123 0 l 1
 123 681 l 1
 444 681 l 1
EndSplineSet
EndChar

StartChar: uni00C9
Encoding: 201 201 136
Width: 494
Flags: W
LayerCount: 2
Fore
SplineSet
368 861 m 1
 379 838 l 1
 200 764 l 1
 193 779 l 1
 368 861 l 1
444 681 m 1
 441 660 l 1
 146 660 l 1
 146 370 l 1
 400 370 l 1
 400 349 l 1
 146 349 l 1
 146 21 l 1
 451 21 l 1
 451 0 l 1
 123 0 l 1
 123 681 l 1
 444 681 l 1
EndSplineSet
EndChar

StartChar: uni00CA
Encoding: 202 202 137
Width: 494
Flags: W
LayerCount: 2
Fore
SplineSet
172 766 m 1
 161 780 l 1
 281 869 l 1
 293 869 l 1
 413 780 l 1
 401 766 l 1
 287 845 l 1
 172 766 l 1
444 681 m 1
 441 660 l 1
 146 660 l 1
 146 370 l 1
 400 370 l 1
 400 349 l 1
 146 349 l 1
 146 21 l 1
 451 21 l 1
 451 0 l 1
 123 0 l 1
 123 681 l 1
 444 681 l 1
EndSplineSet
EndChar

StartChar: uni00CB
Encoding: 203 203 138
Width: 494
Flags: W
LayerCount: 2
Fore
SplineSet
204 838 m 0
 216 838 224 829 224 818 c 0
 224 807 216 799 204 799 c 0
 192 799 184 807 184 818 c 0
 184 829 192 838 204 838 c 0
370 838 m 0
 382 838 389 829 389 818 c 0
 389 807 382 799 370 799 c 0
 357 799 349 807 349 818 c 0
 349 829 357 838 370 838 c 0
444 681 m 1
 441 660 l 1
 146 660 l 1
 146 370 l 1
 400 370 l 1
 400 349 l 1
 146 349 l 1
 146 21 l 1
 451 21 l 1
 451 0 l 1
 123 0 l 1
 123 681 l 1
 444 681 l 1
EndSplineSet
EndChar

StartChar: uni00CC
Encoding: 204 204 139
Width: 268
Flags: W
LayerCount: 2
Fore
SplineSet
55 861 m 1
 229 779 l 1
 222 764 l 1
 43 838 l 1
 55 861 l 1
146 681 m 1
 146 0 l 1
 123 0 l 1
 123 681 l 1
 146 681 l 1
EndSplineSet
EndChar

StartChar: uni00CD
Encoding: 205 205 140
Width: 268
Flags: W
LayerCount: 2
Fore
SplineSet
215 861 m 1
 226 838 l 1
 47 764 l 1
 40 779 l 1
 215 861 l 1
146 681 m 1
 146 0 l 1
 123 0 l 1
 123 681 l 1
 146 681 l 1
EndSplineSet
EndChar

StartChar: uni00CE
Encoding: 206 206 141
Width: 268
Flags: W
LayerCount: 2
Fore
SplineSet
19 766 m 1
 8 780 l 1
 128 869 l 1
 140 869 l 1
 260 780 l 1
 248 766 l 1
 134 845 l 1
 19 766 l 1
146 681 m 1
 146 0 l 1
 123 0 l 1
 123 681 l 1
 146 681 l 1
EndSplineSet
EndChar

StartChar: uni00CF
Encoding: 207 207 142
Width: 268
Flags: W
LayerCount: 2
Fore
SplineSet
51 838 m 0
 63 838 71 829 71 818 c 0
 71 807 63 799 51 799 c 0
 39 799 31 807 31 818 c 0
 31 829 39 838 51 838 c 0
217 838 m 0
 229 838 236 829 236 818 c 0
 236 807 229 799 217 799 c 0
 204 799 196 807 196 818 c 0
 196 829 204 838 217 838 c 0
146 681 m 1
 146 0 l 1
 123 0 l 1
 123 681 l 1
 146 681 l 1
EndSplineSet
EndChar

StartChar: uni00D0
Encoding: 208 208 143
Width: 617
Flags: W
LayerCount: 2
Fore
SplineSet
242 681 m 2
 388 681 539 627 539 348 c 0
 539 63 382 0 246 0 c 2
 120 0 l 1
 120 341 l 1
 26 341 l 1
 26 363 l 1
 120 363 l 1
 120 681 l 1
 242 681 l 2
247 21 m 2
 378 21 516 82 516 348 c 0
 516 617 373 660 240 660 c 2
 143 660 l 1
 143 363 l 1
 335 363 l 1
 335 341 l 1
 143 341 l 1
 143 21 l 1
 247 21 l 2
EndSplineSet
EndChar

StartChar: uni00D1
Encoding: 209 209 144
Width: 661
Flags: W
LayerCount: 2
Fore
SplineSet
395 804 m 0
 369 804 346 816 328 828 c 0
 310 840 294 847 278 847 c 0
 254 847 239 837 218 812 c 1
 204 821 l 1
 226 851 248 867 278 867 c 0
 299 867 319 857 340 844 c 0
 358 833 375 824 395 824 c 0
 418 824 433 835 454 865 c 1
 468 857 l 1
 447 819 424 804 395 804 c 0
538 681 m 1
 538 0 l 1
 510 0 l 1
 142 656 l 1
 144 621 145 576 145 477 c 2
 145 0 l 1
 123 0 l 1
 123 681 l 1
 152 681 l 1
 519 26 l 1
 518 66 516 127 516 205 c 2
 516 681 l 1
 538 681 l 1
EndSplineSet
EndChar

StartChar: uni00D2
Encoding: 210 210 145
Width: 689
Flags: W
LayerCount: 2
Fore
SplineSet
265 861 m 1
 439 779 l 1
 432 764 l 1
 253 838 l 1
 265 861 l 1
344 691 m 0
 505 691 611 569 611 340 c 0
 611 119 511 -10 344 -10 c 0
 185 -10 78 115 78 339 c 0
 78 563 187 691 344 691 c 0
344 670 m 0
 200 670 101 554 101 339 c 0
 101 127 199 12 344 12 c 0
 498 12 588 127 588 340 c 0
 588 557 492 670 344 670 c 0
EndSplineSet
EndChar

StartChar: uni00D3
Encoding: 211 211 146
Width: 689
Flags: W
LayerCount: 2
Fore
SplineSet
426 861 m 1
 437 838 l 1
 258 764 l 1
 251 779 l 1
 426 861 l 1
344 691 m 0
 505 691 611 569 611 340 c 0
 611 119 511 -10 344 -10 c 0
 185 -10 78 115 78 339 c 0
 78 563 187 691 344 691 c 0
344 670 m 0
 200 670 101 554 101 339 c 0
 101 127 199 12 344 12 c 0
 498 12 588 127 588 340 c 0
 588 557 492 670 344 670 c 0
EndSplineSet
EndChar

StartChar: uni00D4
Encoding: 212 212 147
Width: 689
Flags: W
LayerCount: 2
Fore
SplineSet
230 766 m 1
 219 780 l 1
 339 869 l 1
 351 869 l 1
 471 780 l 1
 459 766 l 1
 345 845 l 1
 230 766 l 1
344 691 m 0
 505 691 611 569 611 340 c 0
 611 119 511 -10 344 -10 c 0
 185 -10 78 115 78 339 c 0
 78 563 187 691 344 691 c 0
344 670 m 0
 200 670 101 554 101 339 c 0
 101 127 199 12 344 12 c 0
 498 12 588 127 588 340 c 0
 588 557 492 670 344 670 c 0
EndSplineSet
EndChar

StartChar: uni00D5
Encoding: 213 213 148
Width: 689
Flags: W
LayerCount: 2
Fore
SplineSet
403 804 m 0
 377 804 354 816 336 828 c 0
 318 840 302 847 286 847 c 0
 262 847 247 837 226 812 c 1
 212 821 l 1
 234 851 256 867 286 867 c 0
 307 867 327 857 348 844 c 0
 366 833 383 824 403 824 c 0
 426 824 441 835 462 865 c 1
 476 857 l 1
 455 819 432 804 403 804 c 0
344 691 m 0
 505 691 611 569 611 340 c 0
 611 119 511 -10 344 -10 c 0
 185 -10 78 115 78 339 c 0
 78 563 187 691 344 691 c 0
344 670 m 0
 200 670 101 554 101 339 c 0
 101 127 199 12 344 12 c 0
 498 12 588 127 588 340 c 0
 588 557 492 670 344 670 c 0
EndSplineSet
EndChar

StartChar: uni00D6
Encoding: 214 214 149
Width: 689
Flags: W
LayerCount: 2
Fore
SplineSet
262 838 m 0
 274 838 282 829 282 818 c 0
 282 807 274 799 262 799 c 0
 250 799 242 807 242 818 c 0
 242 829 250 838 262 838 c 0
428 838 m 0
 440 838 447 829 447 818 c 0
 447 807 440 799 428 799 c 0
 415 799 407 807 407 818 c 0
 407 829 415 838 428 838 c 0
344 691 m 0
 505 691 611 569 611 340 c 0
 611 119 511 -10 344 -10 c 0
 185 -10 78 115 78 339 c 0
 78 563 187 691 344 691 c 0
344 670 m 0
 200 670 101 554 101 339 c 0
 101 127 199 12 344 12 c 0
 498 12 588 127 588 340 c 0
 588 557 492 670 344 670 c 0
EndSplineSet
EndChar

StartChar: uni00D7
Encoding: 215 215 150
Width: 485
Flags: W
LayerCount: 2
Fore
SplineSet
371 455 m 1
 387 440 l 1
 257 308 l 1
 387 175 l 1
 371 160 l 1
 243 293 l 1
 114 160 l 1
 98 175 l 1
 226 307 l 1
 98 440 l 1
 114 455 l 1
 241 321 l 1
 371 455 l 1
EndSplineSet
EndChar

StartChar: uni00D8
Encoding: 216 216 151
Width: 689
Flags: W
LayerCount: 2
Fore
SplineSet
450 670 m 1
 550 626 611 514 611 340 c 0
 611 119 511 -10 344 -10 c 0
 312 -10 282 -5 255 5 c 1
 224 -111 l 1
 201 -104 l 1
 237 12 l 1
 139 58 78 170 78 339 c 0
 78 563 187 691 344 691 c 0
 375 691 405 686 432 677 c 1
 432 678 l 1
 465 798 l 1
 488 792 l 1
 450 670 l 1
101 339 m 0
 101 180 156 76 245 33 c 1
 427 656 l 1
 402 665 374 670 344 670 c 0
 200 670 101 554 101 339 c 0
344 12 m 0
 498 12 588 127 588 340 c 0
 588 504 534 608 443 650 c 1
 261 26 l 1
 287 17 314 12 344 12 c 0
EndSplineSet
EndChar

StartChar: uni00D9
Encoding: 217 217 152
Width: 640
Flags: W
LayerCount: 2
Fore
SplineSet
241 861 m 1
 415 779 l 1
 408 764 l 1
 229 838 l 1
 241 861 l 1
528 681 m 1
 528 207 l 2
 528 82 467 -10 321 -10 c 0
 173 -10 113 82 113 207 c 2
 113 681 l 1
 136 681 l 1
 136 210 l 2
 136 93 188 12 321 12 c 0
 454 12 505 95 505 210 c 2
 505 681 l 1
 528 681 l 1
EndSplineSet
EndChar

StartChar: uni00DA
Encoding: 218 218 153
Width: 640
Flags: W
LayerCount: 2
Fore
SplineSet
402 861 m 1
 413 838 l 1
 234 764 l 1
 227 779 l 1
 402 861 l 1
528 681 m 1
 528 207 l 2
 528 82 467 -10 321 -10 c 0
 173 -10 113 82 113 207 c 2
 113 681 l 1
 136 681 l 1
 136 210 l 2
 136 93 188 12 321 12 c 0
 454 12 505 95 505 210 c 2
 505 681 l 1
 528 681 l 1
EndSplineSet
EndChar

StartChar: uni00DB
Encoding: 219 219 154
Width: 640
Flags: W
LayerCount: 2
Fore
SplineSet
205 766 m 1
 194 780 l 1
 314 869 l 1
 326 869 l 1
 446 780 l 1
 434 766 l 1
 320 845 l 1
 205 766 l 1
528 681 m 1
 528 207 l 2
 528 82 467 -10 321 -10 c 0
 173 -10 113 82 113 207 c 2
 113 681 l 1
 136 681 l 1
 136 210 l 2
 136 93 188 12 321 12 c 0
 454 12 505 95 505 210 c 2
 505 681 l 1
 528 681 l 1
EndSplineSet
EndChar

StartChar: uni00DC
Encoding: 220 220 155
Width: 640
Flags: W
LayerCount: 2
Fore
SplineSet
237 838 m 0
 249 838 257 829 257 818 c 0
 257 807 249 799 237 799 c 0
 225 799 217 807 217 818 c 0
 217 829 225 838 237 838 c 0
403 838 m 0
 415 838 422 829 422 818 c 0
 422 807 415 799 403 799 c 0
 390 799 382 807 382 818 c 0
 382 829 390 838 403 838 c 0
528 681 m 1
 528 207 l 2
 528 82 467 -10 321 -10 c 0
 173 -10 113 82 113 207 c 2
 113 681 l 1
 136 681 l 1
 136 210 l 2
 136 93 188 12 321 12 c 0
 454 12 505 95 505 210 c 2
 505 681 l 1
 528 681 l 1
EndSplineSet
EndChar

StartChar: uni00DD
Encoding: 221 221 156
Width: 494
Flags: W
LayerCount: 2
Fore
SplineSet
328 861 m 1
 339 838 l 1
 160 764 l 1
 153 779 l 1
 328 861 l 1
473 681 m 1
 260 271 l 1
 260 0 l 1
 237 0 l 1
 237 270 l 1
 21 681 l 1
 47 681 l 1
 249 292 l 1
 447 681 l 1
 473 681 l 1
EndSplineSet
EndChar

StartChar: uni00DE
Encoding: 222 222 157
Width: 558
Flags: W
LayerCount: 2
Fore
SplineSet
261 554 m 2
 416 554 501 496 501 355 c 0
 501 202 402 147 256 147 c 2
 146 147 l 1
 146 0 l 1
 123 0 l 1
 123 681 l 1
 146 681 l 1
 146 554 l 1
 261 554 l 2
258 168 m 2
 388 168 477 213 477 355 c 0
 477 485 402 533 261 533 c 2
 146 533 l 1
 146 168 l 1
 258 168 l 2
EndSplineSet
EndChar

StartChar: uni00DF
Encoding: 223 223 158
Width: 572
Flags: W
LayerCount: 2
Fore
SplineSet
291 737 m 0
 379 737 439 684 439 611 c 0
 439 503 318 489 318 421 c 0
 318 331 514 327 514 148 c 0
 514 55 460 -10 369 -10 c 0
 326 -10 299 0 277 12 c 1
 286 29 l 1
 305 19 328 11 368 11 c 0
 443 11 492 62 492 148 c 0
 492 320 296 314 296 421 c 0
 296 499 416 509 416 611 c 0
 416 673 368 716 291 716 c 0
 205 716 140 659 140 538 c 2
 140 0 l 1
 118 0 l 1
 118 541 l 2
 118 668 192 737 291 737 c 0
EndSplineSet
EndChar

StartChar: uni00E0
Encoding: 224 224 159
Width: 524
Flags: W
LayerCount: 2
Fore
SplineSet
169 761 m 1
 345 670 l 1
 337 654 l 1
 159 738 l 1
 169 761 l 1
406 110 m 2
 406 41 419 18 453 6 c 1
 448 -10 l 1
 407 3 388 29 387 91 c 1
 350 25 296 -10 219 -10 c 0
 120 -10 63 52 63 144 c 0
 63 250 143 308 266 308 c 2
 384 308 l 1
 384 370 l 2
 384 460 351 509 252 509 c 0
 206 509 160 497 108 476 c 1
 102 495 l 1
 155 517 202 529 252 529 c 0
 362 529 406 474 406 372 c 2
 406 110 l 2
219 11 m 0
 299 11 350 51 384 118 c 1
 384 288 l 1
 270 288 l 2
 156 288 86 239 86 144 c 0
 86 62 136 11 219 11 c 0
EndSplineSet
EndChar

StartChar: uni00E1
Encoding: 225 225 160
Width: 524
Flags: W
LayerCount: 2
Fore
SplineSet
335 738 m 1
 157 654 l 1
 149 670 l 1
 325 761 l 1
 335 738 l 1
406 110 m 2
 406 41 419 18 453 6 c 1
 448 -10 l 1
 407 3 389 29 387 91 c 1
 350 25 296 -10 219 -10 c 0
 120 -10 63 52 63 144 c 0
 63 250 143 308 266 308 c 2
 384 308 l 1
 384 370 l 2
 384 460 351 509 252 509 c 0
 206 509 160 497 108 476 c 1
 102 495 l 1
 155 517 202 529 252 529 c 0
 362 529 406 474 406 372 c 2
 406 110 l 2
219 11 m 0
 299 11 349 51 384 117 c 1
 384 288 l 1
 270 288 l 2
 156 288 86 239 86 144 c 0
 86 62 136 11 219 11 c 0
EndSplineSet
EndChar

StartChar: uni00E2
Encoding: 226 226 161
Width: 524
Flags: W
LayerCount: 2
Fore
SplineSet
136 654 m 1
 125 667 l 1
 245 762 l 1
 257 762 l 1
 377 667 l 1
 365 654 l 1
 251 738 l 1
 136 654 l 1
406 110 m 2
 406 41 419 18 453 6 c 1
 448 -10 l 1
 407 3 388 29 387 91 c 1
 350 25 296 -10 219 -10 c 0
 120 -10 63 52 63 144 c 0
 63 250 143 308 266 308 c 2
 384 308 l 1
 384 370 l 2
 384 460 351 509 252 509 c 0
 206 509 160 497 108 476 c 1
 102 495 l 1
 155 517 202 529 252 529 c 0
 362 529 406 474 406 372 c 2
 406 110 l 2
219 11 m 0
 299 11 350 51 384 118 c 1
 384 288 l 1
 270 288 l 2
 156 288 86 239 86 144 c 0
 86 62 136 11 219 11 c 0
EndSplineSet
EndChar

StartChar: uni00E3
Encoding: 227 227 162
Width: 524
Flags: W
LayerCount: 2
Fore
SplineSet
310 678 m 0
 284 678 261 690 243 702 c 0
 225 714 209 721 193 721 c 0
 169 721 154 711 133 686 c 1
 119 695 l 1
 141 725 163 741 193 741 c 0
 214 741 234 731 255 718 c 0
 273 707 290 698 310 698 c 0
 333 698 348 709 369 739 c 1
 383 731 l 1
 362 693 339 678 310 678 c 0
406 110 m 2
 406 41 419 18 453 6 c 1
 448 -10 l 1
 407 3 388 29 387 91 c 1
 350 25 296 -10 219 -10 c 0
 120 -10 63 52 63 144 c 0
 63 250 143 308 266 308 c 2
 384 308 l 1
 384 370 l 2
 384 460 351 509 252 509 c 0
 206 509 160 497 108 476 c 1
 102 495 l 1
 155 517 202 529 252 529 c 0
 362 529 406 474 406 372 c 2
 406 110 l 2
219 11 m 0
 299 11 350 51 384 118 c 1
 384 288 l 1
 270 288 l 2
 156 288 86 239 86 144 c 0
 86 62 136 11 219 11 c 0
EndSplineSet
EndChar

StartChar: uni00E4
Encoding: 228 228 163
Width: 524
Flags: W
LayerCount: 2
Fore
SplineSet
168 712 m 0
 180 712 188 703 188 692 c 0
 188 681 180 673 168 673 c 0
 156 673 148 681 148 692 c 0
 148 703 156 712 168 712 c 0
334 712 m 0
 346 712 353 703 353 692 c 0
 353 681 346 673 334 673 c 0
 321 673 313 681 313 692 c 0
 313 703 321 712 334 712 c 0
406 110 m 2
 406 41 419 18 453 6 c 1
 448 -10 l 1
 407 3 388 29 387 91 c 1
 350 25 296 -10 219 -10 c 0
 120 -10 63 52 63 144 c 0
 63 250 143 308 266 308 c 2
 384 308 l 1
 384 370 l 2
 384 460 351 509 252 509 c 0
 206 509 160 497 108 476 c 1
 102 495 l 1
 155 517 202 529 252 529 c 0
 362 529 406 474 406 372 c 2
 406 110 l 2
219 11 m 0
 299 11 350 51 384 118 c 1
 384 288 l 1
 270 288 l 2
 156 288 86 239 86 144 c 0
 86 62 136 11 219 11 c 0
EndSplineSet
EndChar

StartChar: uni00E5
Encoding: 229 229 164
Width: 524
Flags: W
LayerCount: 2
Fore
SplineSet
250 801 m 0
 299 801 330 770 330 723 c 0
 330 675 298 644 250 644 c 0
 202 644 171 675 171 722 c 0
 171 770 203 801 250 801 c 0
250 783 m 0
 213 783 192 760 192 722 c 0
 192 685 213 662 250 662 c 0
 288 662 309 685 309 723 c 0
 309 760 288 783 250 783 c 0
406 110 m 2
 406 41 419 18 453 6 c 1
 448 -10 l 1
 407 3 388 29 387 91 c 1
 350 25 296 -10 219 -10 c 0
 120 -10 63 52 63 144 c 0
 63 250 143 308 266 308 c 2
 384 308 l 1
 384 370 l 2
 384 460 351 509 252 509 c 0
 206 509 160 497 108 476 c 1
 102 495 l 1
 155 517 202 529 252 529 c 0
 362 529 406 474 406 372 c 2
 406 110 l 2
219 11 m 0
 299 11 350 51 384 118 c 1
 384 288 l 1
 270 288 l 2
 156 288 86 239 86 144 c 0
 86 62 136 11 219 11 c 0
EndSplineSet
EndChar

StartChar: uni00E6
Encoding: 230 230 165
Width: 838
Flags: W
LayerCount: 2
Fore
SplineSet
772 284 m 0
 772 270 772 257 771 246 c 1
 407 246 l 1
 412 87 487 11 592 11 c 0
 654 11 693 31 738 68 c 1
 751 51 l 1
 705 13 659 -10 592 -10 c 0
 508 -10 444 33 410 111 c 1
 353 24 297 -10 219 -10 c 0
 120 -10 63 52 63 144 c 0
 63 250 143 308 266 308 c 2
 384 308 l 1
 384 370 l 2
 384 460 351 509 252 509 c 0
 206 509 160 497 108 476 c 1
 102 495 l 1
 155 517 202 529 252 529 c 0
 357 529 402 479 406 387 c 1
 437 481 500 529 587 529 c 0
 712 529 772 429 772 284 c 0
750 265 m 1
 750 292 l 2
 750 418 700 509 588 509 c 0
 486 509 410 430 407 265 c 1
 750 265 l 1
219 11 m 0
 297 11 347 49 402 132 c 1
 390 167 384 208 384 255 c 2
 384 288 l 1
 270 288 l 2
 156 288 86 239 86 144 c 0
 86 62 136 11 219 11 c 0
EndSplineSet
EndChar

StartChar: uni00E7
Encoding: 231 231 166
Width: 464
Flags: W
LayerCount: 2
Fore
SplineSet
286 -74 m 1
 346 -77 377 -99 377 -140 c 0
 377 -187 337 -212 293 -212 c 0
 262 -212 242 -204 225 -194 c 1
 235 -177 l 1
 249 -186 267 -192 293 -192 c 0
 325 -192 354 -176 354 -140 c 0
 354 -107 327 -91 265 -90 c 1
 270 -10 l 1
 153 -2 73 93 73 257 c 0
 73 426 156 529 283 529 c 0
 339 529 379 514 418 479 c 1
 405 464 l 1
 372 493 335 509 284 509 c 0
 174 509 96 421 96 257 c 0
 96 95 175 11 283 11 c 0
 337 11 377 30 410 59 c 1
 423 44 l 1
 388 13 343 -9 287 -10 c 1
 286 -74 l 1
EndSplineSet
EndChar

StartChar: uni00E8
Encoding: 232 232 167
Width: 526
Flags: W
LayerCount: 2
Fore
SplineSet
193 761 m 1
 369 670 l 1
 361 654 l 1
 183 738 l 1
 193 761 l 1
461 284 m 0
 461 270 460 257 459 246 c 1
 96 246 l 1
 100 87 175 11 280 11 c 0
 342 11 382 31 427 68 c 1
 439 51 l 1
 394 13 347 -10 280 -10 c 0
 154 -10 73 87 73 255 c 0
 73 426 152 529 272 529 c 0
 400 529 461 429 461 284 c 0
439 265 m 1
 439 292 l 2
 439 418 388 509 274 509 c 0
 175 509 99 430 96 265 c 1
 439 265 l 1
EndSplineSet
EndChar

StartChar: uni00E9
Encoding: 233 233 168
Width: 526
Flags: W
LayerCount: 2
Fore
SplineSet
359 738 m 1
 181 654 l 1
 173 670 l 1
 349 761 l 1
 359 738 l 1
461 284 m 0
 461 270 460 257 459 246 c 1
 96 246 l 1
 101 87 175 11 280 11 c 0
 342 11 382 31 427 68 c 1
 439 51 l 1
 394 13 347 -10 280 -10 c 0
 154 -10 73 87 73 255 c 0
 73 426 152 529 272 529 c 0
 400 529 461 429 461 284 c 0
439 265 m 1
 439 292 l 2
 439 418 388 509 274 509 c 0
 175 509 99 430 96 265 c 1
 439 265 l 1
EndSplineSet
EndChar

StartChar: uni00EA
Encoding: 234 234 169
Width: 526
Flags: W
LayerCount: 2
Fore
SplineSet
274 738 m 1
 159 654 l 1
 148 667 l 1
 268 762 l 1
 280 762 l 1
 400 667 l 1
 388 654 l 1
 274 738 l 1
461 284 m 0
 461 270 460 257 459 246 c 1
 96 246 l 1
 101 87 175 11 280 11 c 0
 342 11 382 31 427 68 c 1
 439 51 l 1
 394 13 347 -10 280 -10 c 0
 154 -10 73 87 73 255 c 0
 73 426 152 529 272 529 c 0
 400 529 461 429 461 284 c 0
439 265 m 1
 439 292 l 2
 439 418 388 509 274 509 c 0
 175 509 99 430 96 265 c 1
 439 265 l 1
EndSplineSet
EndChar

StartChar: uni00EB
Encoding: 235 235 170
Width: 526
Flags: W
LayerCount: 2
Fore
SplineSet
191 712 m 0
 203 712 211 703 211 692 c 0
 211 681 203 673 191 673 c 0
 179 673 171 681 171 692 c 0
 171 703 179 712 191 712 c 0
357 712 m 0
 369 712 376 703 376 692 c 0
 376 681 369 673 357 673 c 0
 344 673 336 681 336 692 c 0
 336 703 344 712 357 712 c 0
461 284 m 0
 461 270 460 257 459 246 c 1
 96 246 l 1
 100 87 175 11 280 11 c 0
 342 11 382 31 427 68 c 1
 439 51 l 1
 394 13 347 -10 280 -10 c 0
 154 -10 73 87 73 255 c 0
 73 426 152 529 272 529 c 0
 400 529 461 429 461 284 c 0
439 265 m 1
 439 292 l 2
 439 418 388 509 274 509 c 0
 175 509 99 430 96 265 c 1
 439 265 l 1
EndSplineSet
EndChar

StartChar: uni00EC
Encoding: 236 236 171
Width: 258
Flags: W
LayerCount: 2
Fore
SplineSet
47 761 m 1
 223 670 l 1
 215 654 l 1
 37 738 l 1
 47 761 l 1
140 519 m 1
 140 0 l 1
 118 0 l 1
 118 519 l 1
 140 519 l 1
EndSplineSet
EndChar

StartChar: uni00ED
Encoding: 237 237 172
Width: 258
Flags: W
LayerCount: 2
Fore
SplineSet
203 761 m 1
 213 738 l 1
 35 654 l 1
 27 670 l 1
 203 761 l 1
140 519 m 1
 140 0 l 1
 118 0 l 1
 118 519 l 1
 140 519 l 1
EndSplineSet
EndChar

StartChar: uni00EE
Encoding: 238 238 173
Width: 258
Flags: W
LayerCount: 2
Fore
SplineSet
14 654 m 1
 3 667 l 1
 123 762 l 1
 135 762 l 1
 255 667 l 1
 243 654 l 1
 129 738 l 1
 14 654 l 1
140 519 m 1
 140 0 l 1
 118 0 l 1
 118 519 l 1
 140 519 l 1
EndSplineSet
EndChar

StartChar: uni00EF
Encoding: 239 239 174
Width: 258
Flags: W
LayerCount: 2
Fore
SplineSet
46 712 m 0
 58 712 66 703 66 692 c 0
 66 681 58 673 46 673 c 0
 34 673 26 681 26 692 c 0
 26 703 34 712 46 712 c 0
212 712 m 0
 224 712 231 703 231 692 c 0
 231 681 224 673 212 673 c 0
 199 673 191 681 191 692 c 0
 191 703 199 712 212 712 c 0
140 519 m 1
 140 0 l 1
 118 0 l 1
 118 519 l 1
 140 519 l 1
EndSplineSet
EndChar

StartChar: uni00F0
Encoding: 240 240 175
Width: 543
Flags: W
LayerCount: 2
Fore
SplineSet
307 666 m 1
 406 591 465 483 465 301 c 0
 465 87 388 -10 268 -10 c 0
 143 -10 73 86 73 230 c 0
 73 352 140 461 260 461 c 0
 335 461 394 422 441 361 c 1
 432 486 384 580 292 651 c 1
 210 566 l 1
 191 573 l 1
 278 662 l 1
 241 687 191 709 144 718 c 1
 149 738 l 1
 197 727 247 707 292 676 c 1
 358 746 l 1
 373 734 l 1
 307 666 l 1
268 11 m 0
 379 11 442 107 442 303 c 2
 442 334 l 1
 393 399 333 441 261 441 c 0
 157 441 96 347 96 229 c 0
 96 94 159 11 268 11 c 0
EndSplineSet
EndChar

StartChar: uni00F1
Encoding: 241 241 176
Width: 581
Flags: W
LayerCount: 2
Fore
SplineSet
239 721 m 0
 215 721 200 711 179 686 c 1
 165 695 l 1
 187 725 209 741 239 741 c 0
 260 741 280 731 301 718 c 0
 319 707 336 698 356 698 c 0
 379 698 394 709 415 739 c 1
 429 731 l 1
 408 693 385 678 356 678 c 0
 330 678 307 690 289 702 c 0
 271 714 255 721 239 721 c 0
330 529 m 0
 425 529 469 471 469 369 c 2
 469 0 l 1
 447 0 l 1
 447 367 l 2
 447 461 409 509 330 509 c 0
 246 509 189 459 140 384 c 1
 140 0 l 1
 118 0 l 1
 118 519 l 1
 137 519 l 1
 139 413 l 1
 186 483 248 529 330 529 c 0
EndSplineSet
EndChar

StartChar: uni00F2
Encoding: 242 242 177
Width: 560
Flags: W
LayerCount: 2
Fore
SplineSet
199 761 m 1
 375 670 l 1
 367 654 l 1
 189 738 l 1
 199 761 l 1
281 529 m 0
 408 529 488 434 488 262 c 0
 488 89 406 -10 280 -10 c 0
 151 -10 73 91 73 259 c 0
 73 431 156 529 281 529 c 0
281 509 m 0
 169 509 96 422 96 259 c 0
 96 101 165 11 280 11 c 0
 393 11 465 99 465 262 c 0
 465 421 396 509 281 509 c 0
EndSplineSet
EndChar

StartChar: uni00F3
Encoding: 243 243 178
Width: 560
Flags: W
LayerCount: 2
Fore
SplineSet
355 761 m 1
 365 738 l 1
 187 654 l 1
 179 670 l 1
 355 761 l 1
281 529 m 0
 408 529 488 434 488 262 c 0
 488 89 406 -10 280 -10 c 0
 151 -10 73 91 73 259 c 0
 73 431 156 529 281 529 c 0
281 509 m 0
 169 509 96 422 96 259 c 0
 96 101 165 11 280 11 c 0
 393 11 465 99 465 262 c 0
 465 421 396 509 281 509 c 0
EndSplineSet
EndChar

StartChar: uni00F4
Encoding: 244 244 179
Width: 560
Flags: W
LayerCount: 2
Fore
SplineSet
166 654 m 1
 155 667 l 1
 275 762 l 1
 287 762 l 1
 407 667 l 1
 395 654 l 1
 281 738 l 1
 166 654 l 1
281 529 m 0
 408 529 488 434 488 262 c 0
 488 89 406 -10 280 -10 c 0
 151 -10 73 91 73 259 c 0
 73 431 156 529 281 529 c 0
281 509 m 0
 169 509 96 422 96 259 c 0
 96 101 165 11 280 11 c 0
 393 11 465 99 465 262 c 0
 465 421 396 509 281 509 c 0
EndSplineSet
EndChar

StartChar: uni00F5
Encoding: 245 245 180
Width: 560
Flags: W
LayerCount: 2
Fore
SplineSet
340 678 m 0
 314 678 291 690 273 702 c 0
 255 714 239 721 223 721 c 0
 199 721 184 711 163 686 c 1
 149 695 l 1
 171 725 193 741 223 741 c 0
 244 741 264 731 285 718 c 0
 303 707 320 698 340 698 c 0
 363 698 378 709 399 739 c 1
 413 731 l 1
 392 693 369 678 340 678 c 0
281 529 m 0
 408 529 488 434 488 262 c 0
 488 89 406 -10 280 -10 c 0
 151 -10 73 91 73 259 c 0
 73 431 156 529 281 529 c 0
281 509 m 0
 169 509 96 422 96 259 c 0
 96 101 165 11 280 11 c 0
 393 11 465 99 465 262 c 0
 465 421 396 509 281 509 c 0
EndSplineSet
EndChar

StartChar: uni00F6
Encoding: 246 246 181
Width: 560
Flags: W
LayerCount: 2
Fore
SplineSet
198 712 m 0
 210 712 218 703 218 692 c 0
 218 681 210 673 198 673 c 0
 186 673 178 681 178 692 c 0
 178 703 186 712 198 712 c 0
364 712 m 0
 376 712 383 703 383 692 c 0
 383 681 376 673 364 673 c 0
 351 673 343 681 343 692 c 0
 343 703 351 712 364 712 c 0
281 529 m 0
 408 529 488 434 488 262 c 0
 488 89 406 -10 280 -10 c 0
 151 -10 73 91 73 259 c 0
 73 431 156 529 281 529 c 0
281 509 m 0
 169 509 96 422 96 259 c 0
 96 101 165 11 280 11 c 0
 393 11 465 99 465 262 c 0
 465 421 396 509 281 509 c 0
EndSplineSet
EndChar

StartChar: uni00F7
Encoding: 247 247 182
Width: 485
Flags: W
LayerCount: 2
Fore
SplineSet
243 561 m 0
 257 561 266 551 266 538 c 0
 266 525 257 515 243 515 c 0
 229 515 219 525 219 538 c 0
 219 551 229 561 243 561 c 0
78 320 m 1
 78 341 l 1
 407 341 l 1
 407 320 l 1
 78 320 l 1
243 146 m 0
 257 146 266 136 266 123 c 0
 266 110 257 100 243 100 c 0
 229 100 219 110 219 123 c 0
 219 136 229 146 243 146 c 0
EndSplineSet
EndChar

StartChar: uni00F8
Encoding: 248 248 183
Width: 560
Flags: W
LayerCount: 2
Fore
SplineSet
374 508 m 1
 446 471 488 387 488 262 c 0
 488 89 406 -10 280 -10 c 0
 253 -10 229 -6 206 3 c 1
 164 -118 l 1
 145 -113 l 1
 187 11 l 1
 115 49 73 136 73 259 c 0
 73 431 156 529 281 529 c 0
 308 529 333 525 355 516 c 1
 395 639 l 1
 415 633 l 1
 374 508 l 1
96 259 m 0
 96 145 132 67 195 32 c 1
 349 497 l 1
 328 505 306 509 281 509 c 0
 169 509 96 422 96 259 c 0
280 11 m 0
 393 11 465 100 465 262 c 0
 465 376 429 454 367 488 c 1
 213 23 l 1
 233 15 256 11 280 11 c 0
EndSplineSet
EndChar

StartChar: uni00F9
Encoding: 249 249 184
Width: 576
Flags: W
LayerCount: 2
Fore
SplineSet
205 761 m 1
 381 670 l 1
 373 654 l 1
 195 738 l 1
 205 761 l 1
459 519 m 1
 459 0 l 1
 439 0 l 1
 439 106 l 1
 403 41 345 -10 259 -10 c 0
 167 -10 113 46 113 149 c 2
 113 519 l 1
 135 519 l 1
 135 151 l 2
 135 56 181 11 262 11 c 0
 342 11 396 61 437 133 c 1
 437 519 l 1
 459 519 l 1
EndSplineSet
EndChar

StartChar: uni00FA
Encoding: 250 250 185
Width: 576
Flags: W
LayerCount: 2
Fore
SplineSet
361 761 m 1
 371 738 l 1
 193 654 l 1
 185 670 l 1
 361 761 l 1
459 519 m 1
 459 0 l 1
 439 0 l 1
 439 106 l 1
 403 41 345 -10 259 -10 c 0
 167 -10 113 46 113 149 c 2
 113 519 l 1
 135 519 l 1
 135 151 l 2
 135 56 181 11 262 11 c 0
 342 11 396 61 437 133 c 1
 437 519 l 1
 459 519 l 1
EndSplineSet
EndChar

StartChar: uni00FB
Encoding: 251 251 186
Width: 576
Flags: W
LayerCount: 2
Fore
SplineSet
172 654 m 1
 161 667 l 1
 281 762 l 1
 293 762 l 1
 413 667 l 1
 401 654 l 1
 287 738 l 1
 172 654 l 1
459 519 m 1
 459 0 l 1
 439 0 l 1
 439 106 l 1
 403 41 345 -10 259 -10 c 0
 167 -10 113 46 113 149 c 2
 113 519 l 1
 135 519 l 1
 135 151 l 2
 135 56 181 11 262 11 c 0
 342 11 396 61 437 133 c 1
 437 519 l 1
 459 519 l 1
EndSplineSet
EndChar

StartChar: uni00FC
Encoding: 252 252 187
Width: 576
Flags: W
LayerCount: 2
Fore
SplineSet
204 712 m 0
 216 712 224 703 224 692 c 0
 224 681 216 673 204 673 c 0
 192 673 184 681 184 692 c 0
 184 703 192 712 204 712 c 0
370 712 m 0
 382 712 389 703 389 692 c 0
 389 681 382 673 370 673 c 0
 357 673 349 681 349 692 c 0
 349 703 357 712 370 712 c 0
459 519 m 1
 459 0 l 1
 439 0 l 1
 439 106 l 1
 403 41 345 -10 259 -10 c 0
 167 -10 113 46 113 149 c 2
 113 519 l 1
 135 519 l 1
 135 151 l 2
 135 56 181 11 262 11 c 0
 342 11 396 61 437 133 c 1
 437 519 l 1
 459 519 l 1
EndSplineSet
EndChar

StartChar: uni00FD
Encoding: 253 253 188
Width: 444
Flags: W
LayerCount: 2
Fore
SplineSet
296 761 m 1
 306 738 l 1
 128 654 l 1
 120 670 l 1
 296 761 l 1
421 519 m 1
 240 -1 l 2
 200 -116 169 -163 59 -195 c 1
 56 -177 l 1
 159 -146 181 -103 219 0 c 1
 211 0 l 1
 23 519 l 1
 47 519 l 1
 225 17 l 1
 396 519 l 1
 421 519 l 1
EndSplineSet
EndChar

StartChar: uni00FE
Encoding: 254 254 189
Width: 564
Flags: W
LayerCount: 2
Fore
SplineSet
308 529 m 0
 426 529 491 435 491 264 c 0
 491 94 426 -10 303 -10 c 0
 228 -10 174 31 140 80 c 1
 140 -192 l 1
 118 -196 l 1
 118 733 l 1
 140 736 l 1
 140 435 l 1
 179 490 232 529 308 529 c 0
302 11 m 0
 410 11 469 103 469 264 c 0
 469 424 413 509 308 509 c 0
 231 509 184 469 140 410 c 1
 140 106 l 1
 179 50 230 11 302 11 c 0
EndSplineSet
EndChar

StartChar: uni00FF
Encoding: 255 255 190
Width: 444
Flags: W
LayerCount: 2
Fore
SplineSet
139 712 m 0
 151 712 159 703 159 692 c 0
 159 681 151 673 139 673 c 0
 127 673 119 681 119 692 c 0
 119 703 127 712 139 712 c 0
305 712 m 0
 317 712 324 703 324 692 c 0
 324 681 317 673 305 673 c 0
 292 673 284 681 284 692 c 0
 284 703 292 712 305 712 c 0
421 519 m 1
 240 -1 l 2
 200 -116 169 -163 59 -195 c 1
 56 -177 l 1
 159 -146 181 -103 219 0 c 1
 211 0 l 1
 23 519 l 1
 47 519 l 1
 225 17 l 1
 396 519 l 1
 421 519 l 1
EndSplineSet
EndChar

StartChar: uni0100
Encoding: 256 256 191
Width: 557
Flags: W
LayerCount: 2
Fore
SplineSet
382 811 m 1
 175 811 l 1
 175 832 l 1
 382 832 l 1
 382 811 l 1
505 0 m 1
 436 203 l 1
 120 203 l 1
 51 0 l 1
 28 0 l 1
 265 681 l 1
 292 681 l 1
 530 0 l 1
 505 0 l 1
128 224 m 1
 429 224 l 1
 278 663 l 1
 128 224 l 1
EndSplineSet
EndChar

StartChar: uni0101
Encoding: 257 257 192
Width: 524
Flags: W
LayerCount: 2
Fore
SplineSet
354 685 m 1
 147 685 l 1
 147 706 l 1
 354 706 l 1
 354 685 l 1
406 110 m 2
 406 41 419 18 453 6 c 1
 448 -10 l 1
 407 3 388 29 387 91 c 1
 350 25 296 -10 219 -10 c 0
 120 -10 63 52 63 144 c 0
 63 250 143 308 266 308 c 2
 384 308 l 1
 384 370 l 2
 384 460 351 509 252 509 c 0
 206 509 160 497 108 476 c 1
 102 495 l 1
 155 517 202 529 252 529 c 0
 362 529 406 474 406 372 c 2
 406 110 l 2
219 11 m 0
 299 11 350 51 384 118 c 1
 384 288 l 1
 270 288 l 2
 156 288 86 239 86 144 c 0
 86 62 136 11 219 11 c 0
EndSplineSet
EndChar

StartChar: uni0102
Encoding: 258 258 193
Width: 557
Flags: W
LayerCount: 2
Fore
SplineSet
279 771 m 0
 221 771 181 807 171 847 c 1
 187 851 l 1
 200 817 232 792 279 792 c 0
 326 792 359 817 371 851 c 1
 387 847 l 1
 378 807 338 771 279 771 c 0
505 0 m 1
 435 203 l 1
 121 203 l 1
 51 0 l 1
 28 0 l 1
 265 681 l 1
 292 681 l 1
 530 0 l 1
 505 0 l 1
128 224 m 1
 428 224 l 1
 278 663 l 1
 128 224 l 1
EndSplineSet
EndChar

StartChar: uni0103
Encoding: 259 259 194
Width: 524
Flags: W
LayerCount: 2
Fore
SplineSet
251 662 m 0
 193 662 153 699 143 748 c 1
 159 752 l 1
 172 708 204 684 251 684 c 0
 298 684 331 708 343 752 c 1
 359 748 l 1
 350 699 310 662 251 662 c 0
406 110 m 2
 406 41 419 18 453 6 c 1
 448 -10 l 1
 407 3 389 29 387 91 c 1
 350 25 296 -10 219 -10 c 0
 120 -10 63 52 63 144 c 0
 63 250 143 308 266 308 c 2
 384 308 l 1
 384 370 l 2
 384 460 351 509 252 509 c 0
 206 509 160 497 108 476 c 1
 102 495 l 1
 155 517 202 529 252 529 c 0
 362 529 406 474 406 372 c 2
 406 110 l 2
219 11 m 0
 299 11 349 51 384 117 c 1
 384 288 l 1
 270 288 l 2
 156 288 86 239 86 144 c 0
 86 62 136 11 219 11 c 0
EndSplineSet
EndChar

StartChar: uni0104
Encoding: 260 260 195
Width: 557
Flags: W
LayerCount: 2
Fore
SplineSet
529 0 m 1
 458 -31 404 -63 404 -122 c 0
 404 -158 427 -181 474 -181 c 0
 492 -181 508 -179 529 -174 c 1
 527 -196 l 1
 507 -201 492 -203 473 -203 c 0
 410 -203 380 -169 380 -123 c 0
 380 -65 429 -27 503 6 c 1
 436 203 l 1
 120 203 l 1
 51 0 l 1
 28 0 l 1
 265 681 l 1
 292 681 l 1
 530 0 l 1
 529 0 l 1
128 224 m 1
 429 224 l 1
 278 663 l 1
 128 224 l 1
EndSplineSet
EndChar

StartChar: uni0105
Encoding: 261 261 196
Width: 524
Flags: W
LayerCount: 2
Fore
SplineSet
448 -10 m 1
 377 -41 323 -73 323 -132 c 0
 323 -168 346 -191 393 -191 c 0
 411 -191 427 -189 448 -184 c 1
 446 -206 l 1
 426 -211 411 -213 392 -213 c 0
 329 -213 299 -179 299 -133 c 0
 299 -73 351 -35 428 -2 c 1
 401 13 388 40 387 91 c 1
 350 25 296 -10 219 -10 c 0
 120 -10 63 52 63 144 c 0
 63 250 143 308 266 308 c 2
 384 308 l 1
 384 370 l 2
 384 460 351 509 252 509 c 0
 206 509 160 497 108 476 c 1
 102 495 l 1
 155 517 202 529 252 529 c 0
 362 529 406 474 406 372 c 2
 406 110 l 2
 406 41 419 18 453 6 c 1
 448 -10 l 1
384 118 m 1
 384 288 l 1
 270 288 l 2
 156 288 86 239 86 144 c 0
 86 62 136 11 219 11 c 0
 299 11 350 51 384 118 c 1
EndSplineSet
EndChar

StartChar: uni0106
Encoding: 262 262 197
Width: 538
Flags: W
LayerCount: 2
Fore
SplineSet
423 861 m 1
 434 838 l 1
 255 764 l 1
 248 779 l 1
 423 861 l 1
344 691 m 0
 419 691 463 668 505 633 c 1
 492 617 l 1
 449 651 411 670 346 670 c 0
 208 670 101 570 101 340 c 0
 101 123 205 12 342 12 c 0
 419 12 461 39 499 71 c 1
 513 54 l 1
 472 19 421 -10 342 -10 c 0
 189 -10 78 113 78 340 c 0
 78 577 195 691 344 691 c 0
EndSplineSet
EndChar

StartChar: uni0107
Encoding: 263 263 198
Width: 464
Flags: W
LayerCount: 2
Fore
SplineSet
355 761 m 1
 365 738 l 1
 187 654 l 1
 179 670 l 1
 355 761 l 1
283 529 m 0
 339 529 379 514 418 479 c 1
 405 464 l 1
 372 493 335 509 284 509 c 0
 174 509 96 421 96 257 c 0
 96 95 175 11 283 11 c 0
 337 11 377 30 410 59 c 1
 423 44 l 1
 387 12 342 -10 284 -10 c 0
 159 -10 73 87 73 257 c 0
 73 426 156 529 283 529 c 0
EndSplineSet
EndChar

StartChar: uni010C
Encoding: 268 268 199
Width: 538
Flags: W
LayerCount: 2
Fore
SplineSet
456 863 m 1
 468 850 l 1
 348 760 l 1
 336 760 l 1
 216 850 l 1
 227 863 l 1
 342 784 l 1
 456 863 l 1
344 691 m 0
 419 691 463 668 505 633 c 1
 492 617 l 1
 449 651 411 670 346 670 c 0
 208 670 101 570 101 340 c 0
 101 123 205 12 342 12 c 0
 419 12 461 39 499 71 c 1
 513 54 l 1
 472 19 421 -10 342 -10 c 0
 189 -10 78 113 78 340 c 0
 78 577 195 691 344 691 c 0
EndSplineSet
EndChar

StartChar: uni010D
Encoding: 269 269 200
Width: 464
Flags: W
LayerCount: 2
Fore
SplineSet
395 749 m 1
 407 736 l 1
 287 641 l 1
 275 641 l 1
 155 736 l 1
 166 749 l 1
 281 665 l 1
 395 749 l 1
283 529 m 0
 339 529 379 514 418 479 c 1
 405 464 l 1
 372 493 335 509 284 509 c 0
 174 509 96 421 96 257 c 0
 96 95 175 11 283 11 c 0
 337 11 377 30 410 59 c 1
 423 44 l 1
 387 12 342 -10 284 -10 c 0
 159 -10 73 87 73 257 c 0
 73 426 156 529 283 529 c 0
EndSplineSet
EndChar

StartChar: uni010E
Encoding: 270 270 201
Width: 619
Flags: W
LayerCount: 2
Fore
SplineSet
409 863 m 1
 421 850 l 1
 301 760 l 1
 289 760 l 1
 169 850 l 1
 180 863 l 1
 295 784 l 1
 409 863 l 1
245 681 m 2
 390 681 542 627 542 348 c 0
 542 63 384 0 249 0 c 2
 123 0 l 1
 123 681 l 1
 245 681 l 2
243 660 m 2
 146 660 l 1
 146 21 l 1
 250 21 l 2
 380 21 518 82 518 348 c 0
 518 617 376 660 243 660 c 2
EndSplineSet
EndChar

StartChar: uni010F
Encoding: 271 271 202
Width: 569
Flags: W
LayerCount: 2
Fore
SplineSet
429 446 m 1
 429 736 l 1
 451 733 l 1
 451 0 l 1
 432 0 l 1
 429 89 l 1
 400 36 351 -10 265 -10 c 0
 149 -10 73 89 73 258 c 0
 73 418 148 529 275 529 c 0
 356 529 402 487 429 446 c 1
544 735 m 1
 568 733 l 1
 541 588 l 1
 526 591 l 1
 544 735 l 1
266 11 m 0
 347 11 394 54 429 123 c 1
 429 418 l 1
 399 465 352 509 276 509 c 0
 168 509 95 413 96 258 c 0
 96 101 162 11 266 11 c 0
EndSplineSet
EndChar

StartChar: uni0110
Encoding: 272 272 203
Width: 617
Flags: W
LayerCount: 2
Fore
SplineSet
242 681 m 2
 388 681 539 627 539 348 c 0
 539 63 382 0 246 0 c 2
 120 0 l 1
 120 341 l 1
 26 341 l 1
 26 363 l 1
 120 363 l 1
 120 681 l 1
 242 681 l 2
247 21 m 2
 378 21 516 82 516 348 c 0
 516 617 373 660 240 660 c 2
 143 660 l 1
 143 363 l 1
 335 363 l 1
 335 341 l 1
 143 341 l 1
 143 21 l 1
 247 21 l 2
EndSplineSet
EndChar

StartChar: uni0111
Encoding: 273 273 204
Width: 579
Flags: W
LayerCount: 2
Fore
SplineSet
451 649 m 1
 531 649 l 1
 531 629 l 1
 451 629 l 1
 451 0 l 1
 432 0 l 1
 429 89 l 1
 400 36 351 -10 265 -10 c 0
 149 -10 73 89 73 258 c 0
 73 418 148 529 275 529 c 0
 356 529 402 487 429 446 c 1
 429 629 l 1
 261 629 l 1
 261 649 l 1
 429 649 l 1
 429 736 l 1
 451 733 l 1
 451 649 l 1
266 11 m 0
 347 11 394 54 429 123 c 1
 429 418 l 1
 399 465 352 509 276 509 c 0
 168 509 95 413 96 258 c 0
 96 101 162 11 266 11 c 0
EndSplineSet
EndChar

StartChar: uni0112
Encoding: 274 274 205
Width: 494
Flags: W
LayerCount: 2
Fore
SplineSet
390 811 m 1
 183 811 l 1
 183 832 l 1
 390 832 l 1
 390 811 l 1
444 681 m 1
 441 660 l 1
 146 660 l 1
 146 370 l 1
 400 370 l 1
 400 349 l 1
 146 349 l 1
 146 21 l 1
 451 21 l 1
 451 0 l 1
 123 0 l 1
 123 681 l 1
 444 681 l 1
EndSplineSet
EndChar

StartChar: uni0113
Encoding: 275 275 206
Width: 526
Flags: W
LayerCount: 2
Fore
SplineSet
378 685 m 1
 171 685 l 1
 171 706 l 1
 378 706 l 1
 378 685 l 1
461 284 m 0
 461 270 460 257 459 246 c 1
 96 246 l 1
 100 87 175 11 280 11 c 0
 342 11 382 31 427 68 c 1
 439 51 l 1
 394 13 347 -10 280 -10 c 0
 154 -10 73 87 73 255 c 0
 73 426 152 529 272 529 c 0
 400 529 461 429 461 284 c 0
439 265 m 1
 439 292 l 2
 439 418 388 509 274 509 c 0
 175 509 99 430 96 265 c 1
 439 265 l 1
EndSplineSet
EndChar

StartChar: uni0116
Encoding: 278 278 207
Width: 494
Flags: W
LayerCount: 2
Fore
SplineSet
287 850 m 0
 301 850 308 840 308 830 c 0
 308 820 301 811 287 811 c 0
 275 811 267 820 267 830 c 0
 267 840 275 850 287 850 c 0
444 681 m 1
 441 660 l 1
 146 660 l 1
 146 370 l 1
 400 370 l 1
 400 349 l 1
 146 349 l 1
 146 21 l 1
 451 21 l 1
 451 0 l 1
 123 0 l 1
 123 681 l 1
 444 681 l 1
EndSplineSet
EndChar

StartChar: uni0117
Encoding: 279 279 208
Width: 526
Flags: W
LayerCount: 2
Fore
SplineSet
274 724 m 0
 288 724 295 714 295 704 c 0
 295 694 288 685 274 685 c 0
 262 685 254 694 254 704 c 0
 254 714 262 724 274 724 c 0
461 284 m 0
 461 270 460 257 459 246 c 1
 96 246 l 1
 100 87 175 11 280 11 c 0
 342 11 382 31 427 68 c 1
 439 51 l 1
 394 13 347 -10 280 -10 c 0
 154 -10 73 87 73 255 c 0
 73 426 152 529 272 529 c 0
 400 529 461 429 461 284 c 0
439 265 m 1
 439 292 l 2
 439 418 388 509 274 509 c 0
 175 509 99 430 96 265 c 1
 439 265 l 1
EndSplineSet
EndChar

StartChar: uni0118
Encoding: 280 280 209
Width: 494
Flags: W
LayerCount: 2
Fore
SplineSet
146 21 m 1
 451 21 l 1
 451 0 l 1
 424 0 l 1
 353 -31 299 -63 299 -122 c 0
 299 -158 322 -181 369 -181 c 0
 387 -181 403 -179 424 -174 c 1
 422 -196 l 1
 402 -201 387 -203 368 -203 c 0
 305 -203 275 -169 275 -123 c 0
 275 -68 319 -31 386 0 c 1
 123 0 l 1
 123 681 l 1
 444 681 l 1
 441 660 l 1
 146 660 l 1
 146 370 l 1
 400 370 l 1
 400 349 l 1
 146 349 l 1
 146 21 l 1
EndSplineSet
EndChar

StartChar: uni0119
Encoding: 281 281 210
Width: 526
Flags: W
LayerCount: 2
Fore
SplineSet
461 284 m 0
 461 270 460 257 459 246 c 1
 96 246 l 1
 100 87 175 11 280 11 c 0
 342 11 382 31 427 68 c 1
 439 51 l 1
 412 28 384 11 352 0 c 0
 286 -29 237 -61 237 -116 c 0
 237 -153 263 -176 309 -176 c 0
 327 -176 341 -174 362 -169 c 1
 360 -191 l 1
 339 -196 325 -198 306 -198 c 0
 243 -198 213 -164 213 -116 c 0
 213 -70 245 -37 299 -9 c 1
 293 -10 287 -10 280 -10 c 0
 154 -10 73 87 73 255 c 0
 73 426 152 529 272 529 c 0
 400 529 461 429 461 284 c 0
439 265 m 1
 439 292 l 2
 439 418 388 509 274 509 c 0
 175 509 99 430 96 265 c 1
 439 265 l 1
EndSplineSet
EndChar

StartChar: uni011A
Encoding: 282 282 211
Width: 494
Flags: W
LayerCount: 2
Fore
SplineSet
401 863 m 1
 413 850 l 1
 293 760 l 1
 281 760 l 1
 161 850 l 1
 172 863 l 1
 287 784 l 1
 401 863 l 1
444 681 m 1
 441 660 l 1
 146 660 l 1
 146 370 l 1
 400 370 l 1
 400 349 l 1
 146 349 l 1
 146 21 l 1
 451 21 l 1
 451 0 l 1
 123 0 l 1
 123 681 l 1
 444 681 l 1
EndSplineSet
EndChar

StartChar: uni011B
Encoding: 283 283 212
Width: 526
Flags: W
LayerCount: 2
Fore
SplineSet
281 641 m 1
 269 641 l 1
 149 736 l 1
 160 749 l 1
 275 665 l 1
 389 749 l 1
 401 736 l 1
 281 641 l 1
461 284 m 0
 461 270 460 257 459 246 c 1
 96 246 l 1
 101 87 175 11 280 11 c 0
 342 11 382 31 427 68 c 1
 439 51 l 1
 394 13 347 -10 280 -10 c 0
 154 -10 73 87 73 255 c 0
 73 426 152 529 272 529 c 0
 400 529 461 429 461 284 c 0
439 265 m 1
 439 292 l 2
 439 418 388 509 274 509 c 0
 175 509 99 430 96 265 c 1
 439 265 l 1
EndSplineSet
EndChar

StartChar: uni011E
Encoding: 286 286 213
Width: 605
Flags: W
LayerCount: 2
Fore
SplineSet
345 771 m 0
 287 771 247 807 237 847 c 1
 253 851 l 1
 266 817 298 792 345 792 c 0
 392 792 425 817 437 851 c 1
 453 847 l 1
 444 807 404 771 345 771 c 0
348 691 m 0
 417 691 465 672 516 632 c 1
 503 616 l 1
 455 653 409 670 348 670 c 0
 228 670 101 576 101 345 c 0
 101 122 202 12 353 12 c 0
 419 12 467 28 510 53 c 1
 510 333 l 1
 365 333 l 1
 362 354 l 1
 533 354 l 1
 533 41 l 1
 480 10 418 -10 353 -10 c 0
 189 -10 78 110 78 345 c 0
 78 583 215 691 348 691 c 0
EndSplineSet
EndChar

StartChar: uni011F
Encoding: 287 287 214
Width: 495
Flags: W
LayerCount: 2
Fore
SplineSet
245 662 m 0
 187 662 147 699 137 748 c 1
 153 752 l 1
 166 708 198 684 245 684 c 0
 292 684 325 708 337 752 c 1
 353 748 l 1
 344 699 304 662 245 662 c 0
463 550 m 1
 471 526 l 1
 440 518 396 512 318 512 c 1
 382 490 422 440 422 356 c 0
 422 254 354 190 245 190 c 0
 217 190 192 196 171 204 c 1
 139 186 119 161 119 129 c 0
 119 91 147 64 218 64 c 2
 305 64 l 2
 403 64 458 15 458 -57 c 0
 458 -145 393 -197 251 -197 c 0
 107 -197 44 -159 44 -58 c 1
 66 -58 l 1
 68 -146 117 -176 251 -176 c 0
 381 -176 436 -132 436 -58 c 0
 436 5 387 43 304 43 c 2
 216 43 l 2
 137 43 96 78 96 126 c 0
 96 163 120 191 153 212 c 1
 97 241 66 287 66 358 c 0
 66 461 135 529 243 529 c 0
 393 528 422 537 463 550 c 1
244 509 m 0
 142 509 88 446 88 358 c 0
 88 260 160 210 245 210 c 0
 341 210 399 263 399 356 c 0
 399 453 340 509 244 509 c 0
EndSplineSet
EndChar

StartChar: uni0122
Encoding: 290 290 215
Width: 605
Flags: W
LayerCount: 2
Fore
SplineSet
348 691 m 0
 417 691 465 672 516 632 c 1
 503 616 l 1
 455 653 409 670 348 670 c 0
 228 670 101 576 101 345 c 0
 101 122 202 12 353 12 c 0
 419 12 467 28 510 53 c 1
 510 333 l 1
 365 333 l 1
 362 354 l 1
 533 354 l 1
 533 41 l 1
 480 10 418 -10 353 -10 c 0
 189 -10 78 110 78 345 c 0
 78 583 215 691 348 691 c 0
335 -96 m 0
 352 -96 360 -106 360 -119 c 0
 360 -131 357 -139 346 -162 c 2
 311 -258 l 1
 296 -258 l 1
 327 -142 l 1
 316 -138 311 -131 311 -119 c 0
 311 -106 321 -96 335 -96 c 0
EndSplineSet
EndChar

StartChar: uni0123
Encoding: 291 291 216
Width: 495
Flags: W
LayerCount: 2
Fore
SplineSet
238 594 m 0
 221 594 213 605 213 618 c 0
 213 630 217 637 227 661 c 2
 262 756 l 1
 277 756 l 1
 246 641 l 1
 257 637 262 630 262 618 c 0
 262 605 252 594 238 594 c 0
463 550 m 1
 471 526 l 1
 440 518 396 512 318 512 c 1
 382 490 422 440 422 356 c 0
 422 254 354 190 245 190 c 0
 217 190 192 196 171 204 c 1
 139 186 119 161 119 129 c 0
 119 91 147 64 218 64 c 2
 305 64 l 2
 403 64 458 15 458 -57 c 0
 458 -145 393 -197 251 -197 c 0
 107 -197 44 -159 44 -58 c 1
 66 -58 l 1
 68 -146 117 -176 251 -176 c 0
 381 -176 436 -132 436 -58 c 0
 436 5 387 43 304 43 c 2
 216 43 l 2
 137 43 96 78 96 126 c 0
 96 163 120 191 153 212 c 1
 97 241 66 287 66 358 c 0
 66 461 135 529 243 529 c 0
 393 528 422 537 463 550 c 1
244 509 m 0
 142 509 88 446 88 358 c 0
 88 260 160 210 245 210 c 0
 341 210 399 263 399 356 c 0
 399 453 340 509 244 509 c 0
EndSplineSet
EndChar

StartChar: uni012A
Encoding: 298 298 217
Width: 268
Flags: W
LayerCount: 2
Fore
SplineSet
237 811 m 1
 30 811 l 1
 30 832 l 1
 237 832 l 1
 237 811 l 1
146 681 m 1
 146 0 l 1
 123 0 l 1
 123 681 l 1
 146 681 l 1
EndSplineSet
EndChar

StartChar: uni012B
Encoding: 299 299 218
Width: 258
Flags: W
LayerCount: 2
Fore
SplineSet
232 685 m 1
 25 685 l 1
 25 706 l 1
 232 706 l 1
 232 685 l 1
140 519 m 1
 140 0 l 1
 118 0 l 1
 118 519 l 1
 140 519 l 1
EndSplineSet
EndChar

StartChar: uni012E
Encoding: 302 302 219
Width: 268
Flags: W
LayerCount: 2
Fore
SplineSet
123 681 m 1
 146 681 l 1
 146 0 l 1
 145 0 l 1
 74 -31 20 -63 20 -122 c 0
 20 -158 43 -181 90 -181 c 0
 108 -181 124 -179 145 -174 c 1
 143 -196 l 1
 123 -201 108 -203 89 -203 c 0
 26 -203 -4 -169 -4 -123 c 0
 -4 -64 47 -25 123 7 c 1
 123 681 l 1
EndSplineSet
EndChar

StartChar: uni012F
Encoding: 303 303 220
Width: 258
Flags: W
LayerCount: 2
Fore
SplineSet
129 724 m 0
 143 724 150 714 150 704 c 0
 150 694 143 685 129 685 c 0
 117 685 109 694 109 704 c 0
 109 714 117 724 129 724 c 0
118 7 m 1
 118 519 l 1
 140 519 l 1
 140 0 l 1
 69 -31 15 -63 15 -122 c 0
 15 -158 38 -181 85 -181 c 0
 103 -181 119 -179 140 -174 c 1
 138 -196 l 1
 118 -201 103 -203 84 -203 c 0
 21 -203 -9 -169 -9 -123 c 0
 -9 -64 42 -25 118 7 c 1
EndSplineSet
EndChar

StartChar: uni0130
Encoding: 304 304 221
Width: 268
Flags: W
LayerCount: 2
Fore
SplineSet
134 850 m 0
 148 850 155 840 155 830 c 0
 155 820 148 811 134 811 c 0
 122 811 114 820 114 830 c 0
 114 840 122 850 134 850 c 0
146 681 m 1
 146 0 l 1
 123 0 l 1
 123 681 l 1
 146 681 l 1
EndSplineSet
EndChar

StartChar: uni0131
Encoding: 305 305 222
Width: 258
Flags: W
LayerCount: 2
Fore
SplineSet
140 519 m 1
 140 0 l 1
 118 0 l 1
 118 519 l 1
 140 519 l 1
EndSplineSet
EndChar

StartChar: uni0136
Encoding: 310 310 223
Width: 510
Flags: W
LayerCount: 2
Fore
SplineSet
146 681 m 1
 146 0 l 1
 123 0 l 1
 123 681 l 1
 146 681 l 1
490 681 m 1
 178 367 l 1
 506 0 l 1
 478 0 l 1
 149 367 l 1
 463 681 l 1
 490 681 l 1
293 -96 m 0
 310 -96 318 -106 318 -119 c 0
 318 -131 315 -139 304 -162 c 2
 269 -258 l 1
 254 -258 l 1
 285 -142 l 1
 274 -138 269 -131 269 -119 c 0
 269 -106 279 -96 293 -96 c 0
EndSplineSet
EndChar

StartChar: uni0137
Encoding: 311 311 224
Width: 463
Flags: W
LayerCount: 2
Fore
SplineSet
140 736 m 1
 140 0 l 1
 118 0 l 1
 118 733 l 1
 140 736 l 1
420 519 m 1
 174 284 l 1
 445 0 l 1
 418 0 l 1
 146 284 l 1
 392 519 l 1
 420 519 l 1
267 -96 m 0
 284 -96 292 -106 292 -119 c 0
 292 -131 289 -139 278 -162 c 2
 243 -258 l 1
 228 -258 l 1
 259 -142 l 1
 248 -138 243 -131 243 -119 c 0
 243 -106 253 -96 267 -96 c 0
EndSplineSet
EndChar

StartChar: uni0139
Encoding: 313 313 225
Width: 456
Flags: W
LayerCount: 2
Fore
SplineSet
216 861 m 1
 227 838 l 1
 48 764 l 1
 41 779 l 1
 216 861 l 1
146 681 m 1
 146 22 l 1
 434 22 l 1
 430 0 l 1
 123 0 l 1
 123 681 l 1
 146 681 l 1
EndSplineSet
EndChar

StartChar: uni013A
Encoding: 314 314 226
Width: 285
Flags: W
LayerCount: 2
Fore
SplineSet
205 912 m 1
 216 889 l 1
 37 815 l 1
 30 830 l 1
 205 912 l 1
185 -10 m 0
 142 -10 113 16 113 72 c 2
 113 733 l 1
 135 736 l 1
 135 73 l 2
 135 32 152 11 186 11 c 0
 200 11 214 14 226 19 c 1
 232 0 l 1
 219 -5 203 -10 185 -10 c 0
EndSplineSet
EndChar

StartChar: uni013B
Encoding: 315 315 227
Width: 456
Flags: W
LayerCount: 2
Fore
SplineSet
146 681 m 1
 146 22 l 1
 434 22 l 1
 430 0 l 1
 123 0 l 1
 123 681 l 1
 146 681 l 1
277 -96 m 0
 294 -96 302 -106 302 -119 c 0
 302 -131 299 -139 288 -162 c 2
 253 -258 l 1
 238 -258 l 1
 269 -142 l 1
 258 -138 253 -131 253 -119 c 0
 253 -106 263 -96 277 -96 c 0
EndSplineSet
EndChar

StartChar: uni013C
Encoding: 316 316 228
Width: 285
Flags: W
LayerCount: 2
Fore
SplineSet
185 -10 m 0
 142 -10 113 16 113 72 c 2
 113 733 l 1
 135 736 l 1
 135 73 l 2
 135 32 152 11 186 11 c 0
 200 11 214 14 226 19 c 1
 232 0 l 1
 219 -5 203 -10 185 -10 c 0
177 -96 m 0
 194 -96 202 -106 202 -119 c 0
 202 -131 199 -139 188 -162 c 2
 153 -258 l 1
 138 -258 l 1
 169 -142 l 1
 158 -138 153 -131 153 -119 c 0
 153 -106 163 -96 177 -96 c 0
EndSplineSet
EndChar

StartChar: uni013D
Encoding: 317 317 229
Width: 456
Flags: W
LayerCount: 2
Fore
SplineSet
236 537 m 1
 262 682 l 1
 238 684 l 1
 220 540 l 1
 236 537 l 1
146 681 m 1
 146 22 l 1
 434 22 l 1
 430 0 l 1
 123 0 l 1
 123 681 l 1
 146 681 l 1
EndSplineSet
EndChar

StartChar: uni013E
Encoding: 318 318 230
Width: 285
Flags: W
LayerCount: 2
Fore
SplineSet
185 -10 m 0
 142 -10 113 16 113 72 c 2
 113 733 l 1
 135 736 l 1
 135 73 l 2
 135 32 152 11 186 11 c 0
 200 11 214 14 226 19 c 1
 232 0 l 1
 219 -5 203 -10 185 -10 c 0
227 588 m 1
 254 733 l 1
 230 735 l 1
 212 591 l 1
 227 588 l 1
EndSplineSet
EndChar

StartChar: uni0141
Encoding: 321 321 231
Width: 461
Flags: W
LayerCount: 2
Fore
SplineSet
150 22 m 1
 439 22 l 1
 435 0 l 1
 128 0 l 1
 128 308 l 1
 54 262 l 1
 45 279 l 1
 128 330 l 1
 128 681 l 1
 150 681 l 1
 150 344 l 1
 351 470 l 1
 361 453 l 1
 150 322 l 1
 150 22 l 1
EndSplineSet
EndChar

StartChar: uni0142
Encoding: 322 322 232
Width: 289
Flags: W
LayerCount: 2
Fore
SplineSet
193 11 m 0
 207 11 220 14 232 19 c 1
 239 0 l 1
 226 -5 209 -10 192 -10 c 0
 149 -10 120 16 120 72 c 2
 120 346 l 1
 55 306 l 1
 45 321 l 1
 120 368 l 1
 120 733 l 1
 142 736 l 1
 142 382 l 1
 247 447 l 1
 257 431 l 1
 142 360 l 1
 142 73 l 2
 142 32 159 11 193 11 c 0
EndSplineSet
EndChar

StartChar: uni0143
Encoding: 323 323 233
Width: 661
Flags: W
LayerCount: 2
Fore
SplineSet
418 861 m 1
 429 838 l 1
 250 764 l 1
 243 779 l 1
 418 861 l 1
538 681 m 1
 538 0 l 1
 510 0 l 1
 142 656 l 1
 144 621 145 576 145 477 c 2
 145 0 l 1
 123 0 l 1
 123 681 l 1
 152 681 l 1
 519 26 l 1
 518 66 516 127 516 205 c 2
 516 681 l 1
 538 681 l 1
EndSplineSet
EndChar

StartChar: uni0144
Encoding: 324 324 234
Width: 581
Flags: W
LayerCount: 2
Fore
SplineSet
381 738 m 1
 203 654 l 1
 195 670 l 1
 371 761 l 1
 381 738 l 1
330 529 m 0
 425 529 469 471 469 369 c 2
 469 0 l 1
 447 0 l 1
 447 367 l 2
 447 461 409 509 330 509 c 0
 246 509 189 459 140 384 c 1
 140 0 l 1
 118 0 l 1
 118 519 l 1
 137 519 l 1
 139 413 l 1
 186 483 248 529 330 529 c 0
EndSplineSet
EndChar

StartChar: uni0145
Encoding: 325 325 235
Width: 661
Flags: W
LayerCount: 2
Fore
SplineSet
538 681 m 1
 538 0 l 1
 510 0 l 1
 142 656 l 1
 144 621 145 576 145 477 c 2
 145 0 l 1
 123 0 l 1
 123 681 l 1
 152 681 l 1
 519 26 l 1
 518 66 516 127 516 205 c 2
 516 681 l 1
 538 681 l 1
327 -96 m 0
 344 -96 352 -106 352 -119 c 0
 352 -131 349 -139 338 -162 c 2
 303 -258 l 1
 288 -258 l 1
 319 -142 l 1
 308 -138 303 -131 303 -119 c 0
 303 -106 313 -96 327 -96 c 0
EndSplineSet
EndChar

StartChar: uni0146
Encoding: 326 326 236
Width: 581
Flags: W
LayerCount: 2
Fore
SplineSet
330 529 m 0
 425 529 469 471 469 369 c 2
 469 0 l 1
 447 0 l 1
 447 367 l 2
 447 461 409 509 330 509 c 0
 246 509 189 459 140 384 c 1
 140 0 l 1
 118 0 l 1
 118 519 l 1
 137 519 l 1
 139 413 l 1
 186 483 248 529 330 529 c 0
288 -96 m 0
 305 -96 313 -106 313 -119 c 0
 313 -131 310 -139 299 -162 c 2
 264 -258 l 1
 249 -258 l 1
 280 -142 l 1
 269 -138 264 -131 264 -119 c 0
 264 -106 274 -96 288 -96 c 0
EndSplineSet
EndChar

StartChar: uni0147
Encoding: 327 327 237
Width: 661
Flags: W
LayerCount: 2
Fore
SplineSet
451 863 m 1
 463 850 l 1
 343 760 l 1
 331 760 l 1
 211 850 l 1
 222 863 l 1
 337 784 l 1
 451 863 l 1
538 681 m 1
 538 0 l 1
 510 0 l 1
 142 656 l 1
 144 621 145 576 145 477 c 2
 145 0 l 1
 123 0 l 1
 123 681 l 1
 152 681 l 1
 519 26 l 1
 518 66 516 127 516 205 c 2
 516 681 l 1
 538 681 l 1
EndSplineSet
EndChar

StartChar: uni0148
Encoding: 328 328 238
Width: 581
Flags: W
LayerCount: 2
Fore
SplineSet
303 641 m 1
 291 641 l 1
 171 736 l 1
 182 749 l 1
 297 665 l 1
 411 749 l 1
 423 736 l 1
 303 641 l 1
330 529 m 0
 425 529 469 471 469 369 c 2
 469 0 l 1
 447 0 l 1
 447 367 l 2
 447 461 409 509 330 509 c 0
 246 509 189 459 140 384 c 1
 140 0 l 1
 118 0 l 1
 118 519 l 1
 137 519 l 1
 139 413 l 1
 186 483 248 529 330 529 c 0
EndSplineSet
EndChar

StartChar: uni014C
Encoding: 332 332 239
Width: 689
Flags: W
LayerCount: 2
Fore
SplineSet
448 811 m 1
 241 811 l 1
 241 832 l 1
 448 832 l 1
 448 811 l 1
344 691 m 0
 505 691 611 569 611 340 c 0
 611 119 511 -10 344 -10 c 0
 185 -10 78 115 78 339 c 0
 78 563 187 691 344 691 c 0
344 670 m 0
 200 670 101 554 101 339 c 0
 101 127 199 12 344 12 c 0
 498 12 588 127 588 340 c 0
 588 557 492 670 344 670 c 0
EndSplineSet
EndChar

StartChar: uni014D
Encoding: 333 333 240
Width: 560
Flags: W
LayerCount: 2
Fore
SplineSet
384 685 m 1
 177 685 l 1
 177 706 l 1
 384 706 l 1
 384 685 l 1
281 529 m 0
 408 529 488 434 488 262 c 0
 488 89 406 -10 280 -10 c 0
 151 -10 73 91 73 259 c 0
 73 431 156 529 281 529 c 0
281 509 m 0
 169 509 96 422 96 259 c 0
 96 101 165 11 280 11 c 0
 393 11 465 99 465 262 c 0
 465 421 396 509 281 509 c 0
EndSplineSet
EndChar

StartChar: uni0150
Encoding: 336 336 241
Width: 689
Flags: W
LayerCount: 2
Fore
SplineSet
374 886 m 1
 393 873 l 1
 289 732 l 1
 276 741 l 1
 374 886 l 1
487 879 m 1
 506 865 l 1
 397 728 l 1
 384 738 l 1
 487 879 l 1
344 691 m 0
 505 691 611 569 611 340 c 0
 611 119 511 -10 344 -10 c 0
 185 -10 78 115 78 339 c 0
 78 563 187 691 344 691 c 0
344 670 m 0
 200 670 101 554 101 339 c 0
 101 127 199 12 344 12 c 0
 498 12 588 127 588 340 c 0
 588 557 492 670 344 670 c 0
EndSplineSet
EndChar

StartChar: uni0151
Encoding: 337 337 242
Width: 560
Flags: W
LayerCount: 2
Fore
SplineSet
311 764 m 1
 331 750 l 1
 226 599 l 1
 213 608 l 1
 311 764 l 1
425 757 m 1
 444 743 l 1
 334 596 l 1
 321 605 l 1
 425 757 l 1
281 529 m 0
 408 529 488 434 488 262 c 0
 488 89 406 -10 280 -10 c 0
 151 -10 73 91 73 259 c 0
 73 431 156 529 281 529 c 0
281 509 m 0
 169 509 96 422 96 259 c 0
 96 101 165 11 280 11 c 0
 393 11 465 99 465 262 c 0
 465 421 396 509 281 509 c 0
EndSplineSet
EndChar

StartChar: uni0152
Encoding: 338 338 243
Width: 845
Flags: W
LayerCount: 2
Fore
SplineSet
802 21 m 1
 802 0 l 1
 397 0 l 1
 377 -7 355 -10 332 -10 c 0
 183 -10 78 115 78 339 c 0
 78 563 185 691 332 691 c 0
 358 691 382 688 403 681 c 1
 795 681 l 1
 792 660 l 1
 448 660 l 1
 533 613 584 513 588 370 c 1
 751 370 l 1
 751 349 l 1
 588 349 l 1
 587 177 535 67 445 21 c 1
 802 21 l 1
101 339 m 0
 101 127 198 12 332 12 c 0
 476 12 565 127 565 352 c 0
 565 557 471 670 332 670 c 0
 198 670 101 554 101 339 c 0
EndSplineSet
EndChar

StartChar: uni0153
Encoding: 339 339 244
Width: 918
Flags: W
LayerCount: 2
Fore
SplineSet
853 284 m 0
 853 270 852 257 851 246 c 1
 488 246 l 1
 493 87 567 11 672 11 c 0
 734 11 774 31 819 68 c 1
 831 51 l 1
 786 13 739 -10 672 -10 c 0
 573 -10 502 54 476 159 c 1
 449 53 379 -10 280 -10 c 0
 151 -10 73 91 73 259 c 0
 73 431 156 529 281 529 c 0
 381 529 451 466 477 360 c 1
 503 464 570 529 664 529 c 0
 792 529 853 429 853 284 c 0
280 11 m 0
 393 11 465 100 465 262 c 0
 465 421 396 509 281 509 c 0
 169 509 96 422 96 259 c 0
 96 102 165 11 280 11 c 0
831 265 m 1
 831 292 l 2
 831 418 780 509 666 509 c 0
 567 509 491 430 488 265 c 1
 831 265 l 1
EndSplineSet
EndChar

StartChar: uni0154
Encoding: 340 340 245
Width: 572
Flags: W
LayerCount: 2
Fore
SplineSet
376 838 m 1
 197 764 l 1
 190 779 l 1
 365 861 l 1
 376 838 l 1
501 0 m 1
 313 324 l 1
 146 324 l 1
 146 0 l 1
 123 0 l 1
 123 681 l 1
 272 681 l 2
 431 681 496 616 496 504 c 0
 496 393 428 343 337 327 c 1
 528 0 l 1
 501 0 l 1
146 345 m 1
 287 345 l 2
 398 345 473 393 473 504 c 0
 473 602 420 660 269 660 c 2
 146 660 l 1
 146 345 l 1
EndSplineSet
EndChar

StartChar: uni0155
Encoding: 341 341 246
Width: 362
Flags: W
LayerCount: 2
Fore
SplineSet
313 738 m 1
 135 654 l 1
 127 670 l 1
 303 761 l 1
 313 738 l 1
294 529 m 0
 317 529 333 526 345 523 c 1
 340 504 l 1
 327 507 312 509 294 509 c 0
 216 509 173 456 140 344 c 1
 140 0 l 1
 118 0 l 1
 118 519 l 1
 137 519 l 1
 138 390 l 1
 167 485 215 529 294 529 c 0
EndSplineSet
EndChar

StartChar: uni0156
Encoding: 342 342 247
Width: 572
Flags: W
LayerCount: 2
Fore
SplineSet
337 327 m 1
 528 0 l 1
 501 0 l 1
 313 324 l 1
 146 324 l 1
 146 0 l 1
 123 0 l 1
 123 681 l 1
 272 681 l 2
 431 681 496 616 496 504 c 0
 496 393 428 343 337 327 c 1
146 345 m 1
 287 345 l 2
 398 345 473 393 473 504 c 0
 473 602 420 660 269 660 c 2
 146 660 l 1
 146 345 l 1
302 -96 m 0
 319 -96 327 -106 327 -119 c 0
 327 -131 324 -139 313 -162 c 2
 278 -258 l 1
 263 -258 l 1
 294 -142 l 1
 283 -138 278 -131 278 -119 c 0
 278 -106 288 -96 302 -96 c 0
EndSplineSet
EndChar

StartChar: uni0157
Encoding: 343 343 248
Width: 362
Flags: W
LayerCount: 2
Fore
SplineSet
294 529 m 0
 317 529 333 526 345 523 c 1
 340 504 l 1
 327 507 312 509 294 509 c 0
 216 509 173 456 140 344 c 1
 140 0 l 1
 118 0 l 1
 118 519 l 1
 137 519 l 1
 138 390 l 1
 167 485 215 529 294 529 c 0
127 -96 m 0
 144 -96 152 -106 152 -119 c 0
 152 -131 149 -139 138 -162 c 2
 103 -258 l 1
 88 -258 l 1
 119 -142 l 1
 108 -138 103 -131 103 -119 c 0
 103 -106 113 -96 127 -96 c 0
EndSplineSet
EndChar

StartChar: uni0158
Encoding: 344 344 249
Width: 572
Flags: W
LayerCount: 2
Fore
SplineSet
290 760 m 1
 278 760 l 1
 158 850 l 1
 169 863 l 1
 284 784 l 1
 398 863 l 1
 410 850 l 1
 290 760 l 1
501 0 m 1
 313 324 l 1
 146 324 l 1
 146 0 l 1
 123 0 l 1
 123 681 l 1
 272 681 l 2
 431 681 496 616 496 504 c 0
 496 393 428 343 337 327 c 1
 528 0 l 1
 501 0 l 1
146 345 m 1
 287 345 l 2
 398 345 473 393 473 504 c 0
 473 602 420 660 269 660 c 2
 146 660 l 1
 146 345 l 1
EndSplineSet
EndChar

StartChar: uni0159
Encoding: 345 345 250
Width: 362
Flags: W
LayerCount: 2
Fore
SplineSet
235 641 m 1
 223 641 l 1
 103 736 l 1
 114 749 l 1
 229 665 l 1
 343 749 l 1
 355 736 l 1
 235 641 l 1
138 390 m 1
 167 485 215 529 294 529 c 0
 317 529 333 526 345 523 c 1
 340 504 l 1
 327 507 312 509 294 509 c 0
 216 509 173 456 140 344 c 1
 140 0 l 1
 118 0 l 1
 118 519 l 1
 137 519 l 1
 138 390 l 1
EndSplineSet
EndChar

StartChar: uni015A
Encoding: 346 346 251
Width: 536
Flags: W
LayerCount: 2
Fore
SplineSet
351 861 m 1
 362 838 l 1
 183 764 l 1
 176 779 l 1
 351 861 l 1
265 691 m 0
 348 691 397 664 445 622 c 1
 430 605 l 1
 383 649 336 670 265 670 c 0
 166 670 103 613 103 534 c 0
 103 451 148 417 274 378 c 0
 407 337 466 293 466 182 c 0
 466 68 381 -10 258 -10 c 0
 168 -10 108 23 54 72 c 1
 69 87 l 1
 118 42 171 12 257 12 c 0
 369 12 444 78 444 181 c 0
 444 281 393 318 266 358 c 0
 128 401 80 443 80 534 c 0
 80 623 153 691 265 691 c 0
EndSplineSet
EndChar

StartChar: uni015B
Encoding: 347 347 252
Width: 450
Flags: W
LayerCount: 2
Fore
SplineSet
304 761 m 1
 314 738 l 1
 136 654 l 1
 128 670 l 1
 304 761 l 1
224 529 m 0
 286 529 332 511 378 474 c 1
 365 458 l 1
 321 492 283 509 225 509 c 0
 147 509 89 467 89 401 c 0
 89 340 128 313 231 285 c 0
 348 253 392 220 392 134 c 0
 392 48 322 -10 223 -10 c 0
 142 -10 92 19 48 56 c 1
 61 71 l 1
 106 34 149 11 223 11 c 0
 306 11 369 55 369 134 c 0
 369 209 334 236 221 267 c 0
 111 296 66 331 66 401 c 0
 66 477 136 529 224 529 c 0
EndSplineSet
EndChar

StartChar: uni015E
Encoding: 350 350 253
Width: 536
Flags: W
LayerCount: 2
Fore
SplineSet
466 182 m 0
 466 70 384 -8 264 -10 c 1
 263 -74 l 1
 323 -77 354 -99 354 -140 c 0
 354 -187 314 -212 270 -212 c 0
 239 -212 219 -204 202 -194 c 1
 212 -177 l 1
 226 -186 244 -192 270 -192 c 0
 302 -192 331 -176 331 -140 c 0
 331 -107 304 -91 242 -90 c 1
 247 -10 l 1
 163 -7 106 25 54 72 c 1
 69 87 l 1
 118 42 171 12 257 12 c 0
 369 12 444 78 444 181 c 0
 444 281 393 318 266 358 c 0
 128 401 80 443 80 534 c 0
 80 623 153 691 265 691 c 0
 348 691 397 664 445 622 c 1
 430 605 l 1
 383 649 336 670 265 670 c 0
 166 670 103 613 103 534 c 0
 103 451 148 417 274 378 c 0
 407 337 466 293 466 182 c 0
EndSplineSet
EndChar

StartChar: uni015F
Encoding: 351 351 254
Width: 450
Flags: W
LayerCount: 2
Fore
SplineSet
392 134 m 0
 392 49 324 -8 228 -10 c 1
 227 -74 l 1
 287 -77 318 -99 318 -140 c 0
 318 -187 278 -212 234 -212 c 0
 203 -212 183 -204 166 -194 c 1
 176 -177 l 1
 190 -186 208 -192 234 -192 c 0
 266 -192 295 -176 295 -140 c 0
 295 -107 268 -91 206 -90 c 1
 211 -10 l 1
 137 -7 90 21 48 56 c 1
 61 71 l 1
 106 34 149 11 223 11 c 0
 306 11 369 55 369 134 c 0
 369 209 334 236 221 267 c 0
 111 296 66 331 66 401 c 0
 66 477 136 529 224 529 c 0
 286 529 332 511 378 474 c 1
 365 458 l 1
 321 492 283 509 225 509 c 0
 147 509 89 467 89 401 c 0
 89 340 128 313 231 285 c 0
 348 253 392 220 392 134 c 0
EndSplineSet
EndChar

StartChar: uni0160
Encoding: 352 352 255
Width: 536
Flags: W
LayerCount: 2
Fore
SplineSet
383 863 m 1
 395 850 l 1
 275 760 l 1
 263 760 l 1
 143 850 l 1
 154 863 l 1
 269 784 l 1
 383 863 l 1
265 691 m 0
 348 691 397 664 445 622 c 1
 430 605 l 1
 383 649 336 670 265 670 c 0
 166 670 103 613 103 534 c 0
 103 451 148 417 274 378 c 0
 407 337 466 293 466 182 c 0
 466 68 381 -10 258 -10 c 0
 168 -10 108 23 54 72 c 1
 69 87 l 1
 118 42 171 12 257 12 c 0
 369 12 444 78 444 181 c 0
 444 281 393 318 266 358 c 0
 128 401 80 443 80 534 c 0
 80 623 153 691 265 691 c 0
EndSplineSet
EndChar

StartChar: uni0161
Encoding: 353 353 256
Width: 450
Flags: W
LayerCount: 2
Fore
SplineSet
344 749 m 1
 356 736 l 1
 236 641 l 1
 224 641 l 1
 104 736 l 1
 115 749 l 1
 230 665 l 1
 344 749 l 1
224 529 m 0
 286 529 332 511 378 474 c 1
 365 458 l 1
 321 492 283 509 225 509 c 0
 147 509 89 467 89 401 c 0
 89 340 128 313 231 285 c 0
 348 253 392 220 392 134 c 0
 392 48 322 -10 223 -10 c 0
 142 -10 92 19 48 56 c 1
 61 71 l 1
 106 34 149 11 223 11 c 0
 306 11 369 55 369 134 c 0
 369 209 334 236 221 267 c 0
 111 296 66 331 66 401 c 0
 66 477 136 529 224 529 c 0
EndSplineSet
EndChar

StartChar: uni0162
Encoding: 354 354 257
Width: 476
Flags: W
LayerCount: 2
Fore
SplineSet
459 659 m 1
 249 659 l 1
 249 11 l 1
 250 11 l 1
 248 -74 l 1
 308 -77 339 -99 339 -140 c 0
 339 -187 299 -212 255 -212 c 0
 224 -212 204 -204 187 -194 c 1
 197 -177 l 1
 211 -186 229 -192 255 -192 c 0
 287 -192 316 -176 316 -140 c 0
 316 -107 289 -91 227 -90 c 1
 232 0 l 1
 226 0 l 1
 226 659 l 1
 16 659 l 1
 16 681 l 1
 463 681 l 1
 459 659 l 1
EndSplineSet
EndChar

StartChar: uni0163
Encoding: 355 355 258
Width: 331
Flags: W
LayerCount: 2
Fore
SplineSet
227 -74 m 1
 287 -77 318 -99 318 -140 c 0
 318 -187 278 -212 234 -212 c 0
 203 -212 183 -204 166 -194 c 1
 176 -177 l 1
 190 -186 208 -192 234 -192 c 0
 266 -192 295 -176 295 -140 c 0
 295 -107 268 -91 206 -90 c 1
 211 -9 l 1
 150 -3 113 39 113 117 c 2
 113 499 l 1
 28 499 l 1
 28 519 l 1
 113 519 l 1
 113 650 l 1
 135 652 l 1
 135 519 l 1
 279 519 l 1
 276 499 l 1
 135 499 l 1
 135 118 l 2
 135 48 167 11 227 11 c 0
 263 11 291 22 317 37 c 1
 327 20 l 1
 299 3 268 -10 228 -10 c 1
 227 -74 l 1
EndSplineSet
EndChar

StartChar: uni0164
Encoding: 356 356 259
Width: 476
Flags: W
LayerCount: 2
Fore
SplineSet
352 863 m 1
 364 850 l 1
 244 760 l 1
 232 760 l 1
 112 850 l 1
 123 863 l 1
 238 784 l 1
 352 863 l 1
463 681 m 1
 459 659 l 1
 249 659 l 1
 249 0 l 1
 226 0 l 1
 226 659 l 1
 16 659 l 1
 16 681 l 1
 463 681 l 1
EndSplineSet
EndChar

StartChar: uni0165
Encoding: 357 357 260
Width: 331
Flags: W
LayerCount: 2
Fore
SplineSet
239 734 m 1
 212 589 l 1
 197 592 l 1
 215 736 l 1
 239 734 l 1
317 37 m 1
 327 20 l 1
 299 3 267 -10 226 -10 c 0
 156 -10 113 33 113 117 c 2
 113 499 l 1
 28 499 l 1
 28 519 l 1
 113 519 l 1
 113 650 l 1
 135 652 l 1
 135 519 l 1
 279 519 l 1
 276 499 l 1
 135 499 l 1
 135 118 l 2
 135 48 167 11 227 11 c 0
 263 11 291 22 317 37 c 1
EndSplineSet
EndChar

StartChar: uni016A
Encoding: 362 362 261
Width: 640
Flags: W
LayerCount: 2
Fore
SplineSet
424 811 m 1
 217 811 l 1
 217 832 l 1
 424 832 l 1
 424 811 l 1
528 681 m 1
 528 207 l 2
 528 82 467 -10 321 -10 c 0
 173 -10 113 82 113 207 c 2
 113 681 l 1
 136 681 l 1
 136 210 l 2
 136 93 188 12 321 12 c 0
 454 12 505 95 505 210 c 2
 505 681 l 1
 528 681 l 1
EndSplineSet
EndChar

StartChar: uni016B
Encoding: 363 363 262
Width: 576
Flags: W
LayerCount: 2
Fore
SplineSet
391 685 m 1
 184 685 l 1
 184 706 l 1
 391 706 l 1
 391 685 l 1
459 519 m 1
 459 0 l 1
 439 0 l 1
 439 106 l 1
 403 41 345 -10 259 -10 c 0
 167 -10 113 46 113 149 c 2
 113 519 l 1
 135 519 l 1
 135 151 l 2
 135 56 181 11 262 11 c 0
 342 11 396 61 437 133 c 1
 437 519 l 1
 459 519 l 1
EndSplineSet
EndChar

StartChar: uni016E
Encoding: 366 366 263
Width: 640
Flags: W
LayerCount: 2
Fore
SplineSet
320 927 m 0
 369 927 400 896 400 849 c 0
 400 801 368 770 320 770 c 0
 272 770 241 801 241 848 c 0
 241 896 273 927 320 927 c 0
320 909 m 0
 283 909 262 886 262 848 c 0
 262 811 283 788 320 788 c 0
 358 788 379 811 379 849 c 0
 379 886 358 909 320 909 c 0
528 681 m 1
 528 207 l 2
 528 82 467 -10 321 -10 c 0
 173 -10 113 82 113 207 c 2
 113 681 l 1
 136 681 l 1
 136 210 l 2
 136 93 188 12 321 12 c 0
 454 12 505 95 505 210 c 2
 505 681 l 1
 528 681 l 1
EndSplineSet
EndChar

StartChar: uni016F
Encoding: 367 367 264
Width: 576
Flags: W
LayerCount: 2
Fore
SplineSet
287 801 m 0
 336 801 367 770 367 723 c 0
 367 675 335 644 287 644 c 0
 239 644 208 675 208 722 c 0
 208 770 240 801 287 801 c 0
287 783 m 0
 250 783 229 760 229 722 c 0
 229 685 250 662 287 662 c 0
 325 662 346 685 346 723 c 0
 346 760 325 783 287 783 c 0
459 519 m 1
 459 0 l 1
 439 0 l 1
 439 106 l 1
 403 41 345 -10 259 -10 c 0
 167 -10 113 46 113 149 c 2
 113 519 l 1
 135 519 l 1
 135 151 l 2
 135 56 181 11 262 11 c 0
 342 11 396 61 437 133 c 1
 437 519 l 1
 459 519 l 1
EndSplineSet
EndChar

StartChar: uni0170
Encoding: 368 368 265
Width: 640
Flags: W
LayerCount: 2
Fore
SplineSet
350 886 m 1
 369 873 l 1
 265 732 l 1
 252 741 l 1
 350 886 l 1
463 879 m 1
 482 865 l 1
 373 728 l 1
 360 738 l 1
 463 879 l 1
528 681 m 1
 528 207 l 2
 528 82 467 -10 321 -10 c 0
 173 -10 113 82 113 207 c 2
 113 681 l 1
 136 681 l 1
 136 210 l 2
 136 93 188 12 321 12 c 0
 454 12 505 95 505 210 c 2
 505 681 l 1
 528 681 l 1
EndSplineSet
EndChar

StartChar: uni0171
Encoding: 369 369 266
Width: 576
Flags: W
LayerCount: 2
Fore
SplineSet
318 764 m 1
 338 750 l 1
 233 599 l 1
 220 608 l 1
 318 764 l 1
432 757 m 1
 451 743 l 1
 341 596 l 1
 328 605 l 1
 432 757 l 1
459 519 m 1
 459 0 l 1
 439 0 l 1
 439 106 l 1
 403 41 345 -10 259 -10 c 0
 167 -10 113 46 113 149 c 2
 113 519 l 1
 135 519 l 1
 135 151 l 2
 135 56 181 11 262 11 c 0
 342 11 396 61 437 133 c 1
 437 519 l 1
 459 519 l 1
EndSplineSet
EndChar

StartChar: uni0172
Encoding: 370 370 267
Width: 640
Flags: W
LayerCount: 2
Fore
SplineSet
505 681 m 1
 528 681 l 1
 528 207 l 2
 528 104 486 23 389 -2 c 1
 321 -32 269 -64 269 -121 c 0
 269 -158 295 -181 341 -181 c 0
 359 -181 373 -179 394 -174 c 1
 392 -196 l 1
 371 -201 357 -203 338 -203 c 0
 275 -203 245 -169 245 -121 c 0
 245 -72 281 -38 341 -9 c 1
 335 -10 328 -10 321 -10 c 0
 173 -10 113 82 113 207 c 2
 113 681 l 1
 136 681 l 1
 136 210 l 2
 136 93 188 12 321 12 c 0
 454 12 505 95 505 210 c 2
 505 681 l 1
EndSplineSet
EndChar

StartChar: uni0173
Encoding: 371 371 268
Width: 576
Flags: W
LayerCount: 2
Fore
SplineSet
437 519 m 1
 459 519 l 1
 459 0 l 1
 458 0 l 1
 387 -31 333 -63 333 -122 c 0
 333 -158 356 -181 403 -181 c 0
 421 -181 437 -179 458 -174 c 1
 456 -196 l 1
 436 -201 421 -203 402 -203 c 0
 339 -203 309 -169 309 -123 c 0
 309 -63 361 -25 439 8 c 1
 439 106 l 1
 403 41 345 -10 259 -10 c 0
 167 -10 113 46 113 149 c 2
 113 519 l 1
 135 519 l 1
 135 151 l 2
 135 56 181 11 262 11 c 0
 342 11 396 61 437 133 c 1
 437 519 l 1
EndSplineSet
EndChar

StartChar: uni0178
Encoding: 376 376 269
Width: 494
Flags: W
LayerCount: 2
Fore
SplineSet
164 838 m 0
 176 838 184 829 184 818 c 0
 184 807 176 799 164 799 c 0
 152 799 144 807 144 818 c 0
 144 829 152 838 164 838 c 0
330 838 m 0
 342 838 349 829 349 818 c 0
 349 807 342 799 330 799 c 0
 317 799 309 807 309 818 c 0
 309 829 317 838 330 838 c 0
473 681 m 1
 260 271 l 1
 260 0 l 1
 237 0 l 1
 237 270 l 1
 21 681 l 1
 47 681 l 1
 249 292 l 1
 447 681 l 1
 473 681 l 1
EndSplineSet
EndChar

StartChar: uni0179
Encoding: 377 377 270
Width: 509
Flags: W
LayerCount: 2
Fore
SplineSet
337 861 m 1
 348 838 l 1
 169 764 l 1
 162 779 l 1
 337 861 l 1
459 681 m 1
 459 662 l 1
 69 22 l 1
 446 22 l 1
 443 0 l 1
 41 0 l 1
 41 21 l 1
 432 660 l 1
 79 660 l 1
 79 681 l 1
 459 681 l 1
EndSplineSet
EndChar

StartChar: uni017A
Encoding: 378 378 271
Width: 405
Flags: W
LayerCount: 2
Fore
SplineSet
288 761 m 1
 298 738 l 1
 120 654 l 1
 112 670 l 1
 288 761 l 1
374 519 m 1
 374 501 l 1
 59 21 l 1
 366 21 l 1
 364 0 l 1
 31 0 l 1
 31 18 l 1
 346 499 l 1
 58 499 l 1
 58 519 l 1
 374 519 l 1
EndSplineSet
EndChar

StartChar: uni017B
Encoding: 379 379 272
Width: 509
Flags: W
LayerCount: 2
Fore
SplineSet
255 850 m 0
 269 850 276 840 276 830 c 0
 276 820 269 811 255 811 c 0
 243 811 235 820 235 830 c 0
 235 840 243 850 255 850 c 0
459 681 m 1
 459 662 l 1
 69 22 l 1
 446 22 l 1
 443 0 l 1
 41 0 l 1
 41 21 l 1
 432 660 l 1
 79 660 l 1
 79 681 l 1
 459 681 l 1
EndSplineSet
EndChar

StartChar: uni017C
Encoding: 380 380 273
Width: 405
Flags: W
LayerCount: 2
Fore
SplineSet
214 724 m 0
 228 724 235 714 235 704 c 0
 235 694 228 685 214 685 c 0
 202 685 194 694 194 704 c 0
 194 714 202 724 214 724 c 0
374 519 m 1
 374 501 l 1
 59 21 l 1
 366 21 l 1
 364 0 l 1
 31 0 l 1
 31 18 l 1
 346 499 l 1
 58 499 l 1
 58 519 l 1
 374 519 l 1
EndSplineSet
EndChar

StartChar: uni017D
Encoding: 381 381 274
Width: 509
Flags: W
LayerCount: 2
Fore
SplineSet
369 863 m 1
 381 850 l 1
 261 760 l 1
 249 760 l 1
 129 850 l 1
 140 863 l 1
 255 784 l 1
 369 863 l 1
459 681 m 1
 459 662 l 1
 69 22 l 1
 446 22 l 1
 443 0 l 1
 41 0 l 1
 41 21 l 1
 432 660 l 1
 79 660 l 1
 79 681 l 1
 459 681 l 1
EndSplineSet
EndChar

StartChar: uni017E
Encoding: 382 382 275
Width: 405
Flags: W
LayerCount: 2
Fore
SplineSet
328 749 m 1
 340 736 l 1
 220 641 l 1
 208 641 l 1
 88 736 l 1
 99 749 l 1
 214 665 l 1
 328 749 l 1
374 519 m 1
 374 501 l 1
 59 21 l 1
 366 21 l 1
 364 0 l 1
 31 0 l 1
 31 18 l 1
 346 499 l 1
 58 499 l 1
 58 519 l 1
 374 519 l 1
EndSplineSet
EndChar

StartChar: uni0192
Encoding: 402 402 276
Width: 305
Flags: W
LayerCount: 2
Fore
SplineSet
244 716 m 0
 182 716 140 686 140 614 c 2
 140 519 l 1
 288 519 l 1
 284 499 l 1
 140 499 l 1
 140 6 l 2
 140 -122 105 -155 28 -195 c 1
 21 -178 l 1
 90 -142 118 -111 118 7 c 2
 118 499 l 1
 29 499 l 1
 29 519 l 1
 118 519 l 1
 118 617 l 2
 118 695 169 737 242 737 c 0
 284 737 325 725 358 707 c 1
 349 690 l 1
 317 706 283 716 244 716 c 0
EndSplineSet
EndChar

StartChar: uni0218
Encoding: 536 536 277
Width: 536
Flags: W
LayerCount: 2
Fore
SplineSet
265 691 m 0
 348 691 397 664 445 622 c 1
 430 605 l 1
 383 649 336 670 265 670 c 0
 166 670 103 613 103 534 c 0
 103 451 148 417 274 378 c 0
 407 337 466 293 466 182 c 0
 466 68 381 -10 258 -10 c 0
 168 -10 108 23 54 72 c 1
 69 87 l 1
 118 42 171 12 257 12 c 0
 369 12 444 78 444 181 c 0
 444 281 393 318 266 358 c 0
 128 401 80 443 80 534 c 0
 80 623 153 691 265 691 c 0
259 -96 m 0
 276 -96 284 -106 284 -119 c 0
 284 -131 281 -139 270 -162 c 2
 235 -258 l 1
 220 -258 l 1
 251 -142 l 1
 240 -138 235 -131 235 -119 c 0
 235 -106 245 -96 259 -96 c 0
EndSplineSet
EndChar

StartChar: uni0219
Encoding: 537 537 278
Width: 450
Flags: W
LayerCount: 2
Fore
SplineSet
224 529 m 0
 286 529 332 511 378 474 c 1
 365 458 l 1
 321 492 283 509 225 509 c 0
 147 509 89 467 89 401 c 0
 89 340 128 313 231 285 c 0
 348 253 392 220 392 134 c 0
 392 48 322 -10 223 -10 c 0
 142 -10 92 19 48 56 c 1
 61 71 l 1
 106 34 149 11 223 11 c 0
 306 11 369 55 369 134 c 0
 369 209 334 236 221 267 c 0
 111 296 66 331 66 401 c 0
 66 477 136 529 224 529 c 0
224 -96 m 0
 241 -96 249 -106 249 -119 c 0
 249 -131 246 -139 235 -162 c 2
 200 -258 l 1
 185 -258 l 1
 216 -142 l 1
 205 -138 200 -131 200 -119 c 0
 200 -106 210 -96 224 -96 c 0
EndSplineSet
EndChar

StartChar: uni021A
Encoding: 538 538 279
Width: 476
Flags: W
LayerCount: 2
Fore
SplineSet
463 681 m 1
 459 659 l 1
 249 659 l 1
 249 0 l 1
 226 0 l 1
 226 659 l 1
 16 659 l 1
 16 681 l 1
 463 681 l 1
236 -96 m 0
 253 -96 261 -106 261 -119 c 0
 261 -131 258 -139 247 -162 c 2
 212 -258 l 1
 197 -258 l 1
 228 -142 l 1
 217 -138 212 -131 212 -119 c 0
 212 -106 222 -96 236 -96 c 0
EndSplineSet
EndChar

StartChar: uni021B
Encoding: 539 539 280
Width: 331
Flags: W
LayerCount: 2
Fore
SplineSet
327 20 m 1
 299 3 267 -10 226 -10 c 0
 156 -10 113 33 113 117 c 2
 113 499 l 1
 28 499 l 1
 28 519 l 1
 113 519 l 1
 113 650 l 1
 135 652 l 1
 135 519 l 1
 279 519 l 1
 276 499 l 1
 135 499 l 1
 135 118 l 2
 135 48 167 11 227 11 c 0
 263 11 291 22 317 37 c 1
 327 20 l 1
223 -96 m 0
 240 -96 248 -106 248 -119 c 0
 248 -131 245 -139 234 -162 c 2
 199 -258 l 1
 184 -258 l 1
 215 -142 l 1
 204 -138 199 -131 199 -119 c 0
 199 -106 209 -96 223 -96 c 0
EndSplineSet
EndChar

StartChar: uni0237
Encoding: 567 567 281
Width: 258
Flags: W
LayerCount: 2
Fore
SplineSet
141 519 m 1
 141 6 l 2
 141 -122 105 -155 28 -195 c 1
 22 -178 l 1
 90 -142 119 -111 119 7 c 2
 119 519 l 1
 141 519 l 1
EndSplineSet
EndChar

StartChar: uni0300
Encoding: 768 768 282
Width: 0
Flags: W
LayerCount: 2
Fore
SplineSet
-206 761 m 1
 -30 670 l 1
 -38 654 l 1
 -216 738 l 1
 -206 761 l 1
EndSplineSet
EndChar

StartChar: uni0301
Encoding: 769 769 283
Width: 0
Flags: W
LayerCount: 2
Fore
SplineSet
-40 761 m 1
 -30 738 l 1
 -208 654 l 1
 -216 670 l 1
 -40 761 l 1
EndSplineSet
EndChar

StartChar: uni0302
Encoding: 770 770 284
Width: 0
Flags: W
LayerCount: 2
Fore
SplineSet
-271 654 m 1
 -282 667 l 1
 -162 762 l 1
 -150 762 l 1
 -30 667 l 1
 -42 654 l 1
 -156 738 l 1
 -271 654 l 1
EndSplineSet
EndChar

StartChar: uni0303
Encoding: 771 771 285
Width: 0
Flags: W
LayerCount: 2
Fore
SplineSet
-103 678 m 0
 -129 678 -152 690 -170 702 c 0
 -188 714 -204 721 -220 721 c 0
 -244 721 -259 711 -280 686 c 1
 -294 695 l 1
 -272 725 -250 741 -220 741 c 0
 -199 741 -179 731 -158 718 c 0
 -140 707 -123 698 -103 698 c 0
 -80 698 -65 709 -44 739 c 1
 -30 731 l 1
 -51 693 -74 678 -103 678 c 0
EndSplineSet
EndChar

StartChar: uni0304
Encoding: 772 772 286
Width: 0
Flags: W
LayerCount: 2
Fore
SplineSet
-30 685 m 1
 -237 685 l 1
 -237 706 l 1
 -30 706 l 1
 -30 685 l 1
EndSplineSet
EndChar

StartChar: uni0305
Encoding: 773 773 287
Width: 0
Flags: W
LayerCount: 2
Fore
SplineSet
-30 685 m 1
 -417 685 l 1
 -417 703 l 1
 -30 703 l 1
 -30 685 l 1
EndSplineSet
EndChar

StartChar: uni0306
Encoding: 774 774 288
Width: 0
Flags: W
LayerCount: 2
Fore
SplineSet
-138 662 m 0
 -196 662 -236 699 -246 748 c 1
 -230 752 l 1
 -217 708 -185 684 -138 684 c 0
 -91 684 -58 708 -46 752 c 1
 -30 748 l 1
 -39 699 -79 662 -138 662 c 0
EndSplineSet
EndChar

StartChar: uni0307
Encoding: 775 775 289
Width: 0
Flags: W
LayerCount: 2
Fore
SplineSet
-51 724 m 0
 -37 724 -30 714 -30 704 c 0
 -30 694 -37 685 -51 685 c 0
 -63 685 -71 694 -71 704 c 0
 -71 714 -63 724 -51 724 c 0
EndSplineSet
EndChar

StartChar: uni0308
Encoding: 776 776 290
Width: 0
Flags: W
LayerCount: 2
Fore
SplineSet
-215 712 m 0
 -203 712 -195 703 -195 692 c 0
 -195 681 -203 673 -215 673 c 0
 -227 673 -235 681 -235 692 c 0
 -235 703 -227 712 -215 712 c 0
-49 712 m 0
 -37 712 -30 703 -30 692 c 0
 -30 681 -37 673 -49 673 c 0
 -62 673 -70 681 -70 692 c 0
 -70 703 -62 712 -49 712 c 0
EndSplineSet
EndChar

StartChar: uni0309
Encoding: 777 777 291
Width: 0
Flags: W
LayerCount: 2
Fore
SplineSet
-120 622 m 1
 -120 692 l 1
 -83 694 -53 705 -53 744 c 0
 -53 774 -72 791 -105 791 c 0
 -129 791 -146 785 -163 776 c 1
 -171 792 l 1
 -152 803 -132 811 -104 811 c 0
 -58 811 -29 785 -29 745 c 0
 -29 702 -56 682 -98 678 c 1
 -98 622 l 1
 -120 622 l 1
EndSplineSet
EndChar

StartChar: uni030A
Encoding: 778 778 292
Width: 0
Flags: W
LayerCount: 2
Fore
SplineSet
-110 801 m 0
 -61 801 -30 770 -30 723 c 0
 -30 675 -62 644 -110 644 c 0
 -158 644 -189 675 -189 722 c 0
 -189 770 -157 801 -110 801 c 0
-110 783 m 0
 -147 783 -168 760 -168 722 c 0
 -168 685 -147 662 -110 662 c 0
 -72 662 -51 685 -51 723 c 0
 -51 760 -72 783 -110 783 c 0
EndSplineSet
EndChar

StartChar: uni030B
Encoding: 779 779 293
Width: 0
Flags: W
LayerCount: 2
Fore
SplineSet
-163 764 m 1
 -143 750 l 1
 -248 599 l 1
 -261 608 l 1
 -163 764 l 1
-49 757 m 1
 -30 743 l 1
 -140 596 l 1
 -153 605 l 1
 -49 757 l 1
EndSplineSet
EndChar

StartChar: uni030C
Encoding: 780 780 294
Width: 0
Flags: W
LayerCount: 2
Fore
SplineSet
-42 749 m 1
 -30 736 l 1
 -150 641 l 1
 -162 641 l 1
 -282 736 l 1
 -271 749 l 1
 -156 665 l 1
 -42 749 l 1
EndSplineSet
EndChar

StartChar: uni030D
Encoding: 781 781 295
Width: 0
Flags: W
LayerCount: 2
Fore
SplineSet
-53 640 m 1
 -53 841 l 1
 -30 841 l 1
 -30 640 l 1
 -53 640 l 1
EndSplineSet
EndChar

StartChar: uni030F
Encoding: 783 783 296
Width: 0
Flags: W
LayerCount: 2
Fore
SplineSet
-204 791 m 1
 -133 661 l 1
 -150 652 l 1
 -227 780 l 1
 -204 791 l 1
-95 790 m 1
 -30 664 l 1
 -46 656 l 1
 -117 778 l 1
 -95 790 l 1
EndSplineSet
EndChar

StartChar: uni0311
Encoding: 785 785 297
Width: 0
Flags: W
LayerCount: 2
Fore
SplineSet
-138 725 m 0
 -79 725 -39 689 -30 639 c 1
 -46 635 l 1
 -58 679 -91 704 -138 704 c 0
 -185 704 -217 679 -230 635 c 1
 -246 639 l 1
 -236 689 -196 725 -138 725 c 0
EndSplineSet
EndChar

StartChar: uni0312
Encoding: 786 786 298
Width: 0
Flags: W
LayerCount: 2
Fore
SplineSet
-69 594 m 0
 -86 594 -94 605 -94 618 c 0
 -94 630 -90 637 -80 661 c 2
 -45 756 l 1
 -30 756 l 1
 -61 641 l 1
 -50 637 -45 630 -45 618 c 0
 -45 605 -55 594 -69 594 c 0
EndSplineSet
EndChar

StartChar: uni0313
Encoding: 787 787 299
Width: 0
Flags: W
LayerCount: 2
Fore
SplineSet
-55 756 m 0
 -38 756 -30 746 -30 733 c 0
 -30 721 -33 713 -44 690 c 2
 -79 594 l 1
 -94 594 l 1
 -63 710 l 1
 -74 713 -79 720 -79 733 c 0
 -79 746 -69 756 -55 756 c 0
EndSplineSet
EndChar

StartChar: uni0316
Encoding: 790 790 300
Width: 0
Flags: W
LayerCount: 2
Fore
SplineSet
-204 -63 m 1
 -30 -145 l 1
 -37 -160 l 1
 -216 -86 l 1
 -204 -63 l 1
EndSplineSet
EndChar

StartChar: uni0317
Encoding: 791 791 301
Width: 0
Flags: W
LayerCount: 2
Fore
SplineSet
-41 -63 m 1
 -30 -86 l 1
 -209 -160 l 1
 -216 -145 l 1
 -41 -63 l 1
EndSplineSet
EndChar

StartChar: uni0318
Encoding: 792 792 302
Width: 0
Flags: W
LayerCount: 2
Fore
SplineSet
-52 -75 m 1
 -30 -75 l 1
 -30 -327 l 1
 -52 -327 l 1
 -52 -212 l 1
 -185 -212 l 1
 -185 -191 l 1
 -52 -191 l 1
 -52 -75 l 1
EndSplineSet
EndChar

StartChar: uni0319
Encoding: 793 793 303
Width: 0
Flags: W
LayerCount: 2
Fore
SplineSet
-163 -75 m 1
 -163 -191 l 1
 -30 -191 l 1
 -30 -212 l 1
 -163 -212 l 1
 -163 -327 l 1
 -185 -327 l 1
 -185 -75 l 1
 -163 -75 l 1
EndSplineSet
EndChar

StartChar: uni031A
Encoding: 794 794 304
Width: 0
Flags: W
LayerCount: 2
Fore
SplineSet
-178 747 m 1
 -30 747 l 1
 -30 590 l 1
 -52 590 l 1
 -52 726 l 1
 -178 726 l 1
 -178 747 l 1
EndSplineSet
EndChar

StartChar: uni031B
Encoding: 795 795 305
Width: 0
Flags: W
LayerCount: 2
Fore
SplineSet
-108 446 m 1
 -115 461 l 1
 -69 466 -49 484 -49 523 c 0
 -49 552 -55 575 -63 595 c 1
 -46 602 l 1
 -38 583 -30 557 -30 523 c 0
 -30 474 -58 449 -108 446 c 1
EndSplineSet
EndChar

StartChar: uni031C
Encoding: 796 796 306
Width: 0
Flags: W
LayerCount: 2
Fore
SplineSet
-30 -226 m 1
 -30 -209 l 1
 -67 -209 -88 -186 -88 -148 c 0
 -88 -111 -67 -88 -30 -88 c 1
 -30 -70 l 1
 -77 -70 -109 -101 -109 -148 c 0
 -109 -195 -78 -226 -30 -226 c 1
EndSplineSet
EndChar

StartChar: uni031D
Encoding: 797 797 307
Width: 0
Flags: W
LayerCount: 2
Fore
SplineSet
-30 -256 m 1
 -30 -277 l 1
 -289 -277 l 1
 -289 -256 l 1
 -171 -256 l 1
 -171 -116 l 1
 -149 -116 l 1
 -149 -256 l 1
 -30 -256 l 1
EndSplineSet
EndChar

StartChar: uni031E
Encoding: 798 798 308
Width: 0
Flags: W
LayerCount: 2
Fore
SplineSet
-30 -137 m 1
 -149 -137 l 1
 -149 -277 l 1
 -171 -277 l 1
 -171 -137 l 1
 -289 -137 l 1
 -289 -116 l 1
 -30 -116 l 1
 -30 -137 l 1
EndSplineSet
EndChar

StartChar: uni031F
Encoding: 799 799 309
Width: 0
Flags: W
LayerCount: 2
Fore
SplineSet
-130 -89 m 1
 -130 -185 l 1
 -30 -185 l 1
 -30 -204 l 1
 -130 -204 l 1
 -130 -300 l 1
 -151 -300 l 1
 -151 -204 l 1
 -251 -204 l 1
 -251 -185 l 1
 -151 -185 l 1
 -151 -89 l 1
 -130 -89 l 1
EndSplineSet
EndChar

StartChar: uni0320
Encoding: 800 800 310
Width: 0
Flags: W
LayerCount: 2
Fore
SplineSet
-251 -204 m 1
 -251 -185 l 1
 -30 -185 l 1
 -30 -204 l 1
 -251 -204 l 1
EndSplineSet
EndChar

StartChar: uni0321
Encoding: 801 801 311
Width: 0
Flags: W
LayerCount: 2
Fore
SplineSet
-128 -197 m 0
 -169 -197 -197 -182 -216 -167 c 1
 -205 -152 l 1
 -186 -166 -164 -177 -128 -177 c 0
 -86 -177 -52 -152 -52 -86 c 2
 -52 1 l 1
 -30 1 l 1
 -30 -86 l 2
 -30 -160 -71 -197 -128 -197 c 0
EndSplineSet
EndChar

StartChar: uni0323
Encoding: 803 803 312
Width: 0
Flags: W
LayerCount: 2
Fore
SplineSet
-51 -138 m 0
 -64 -138 -71 -129 -71 -119 c 0
 -71 -109 -64 -99 -51 -99 c 0
 -38 -99 -30 -109 -30 -119 c 0
 -30 -129 -38 -138 -51 -138 c 0
EndSplineSet
EndChar

StartChar: uni0324
Encoding: 804 804 313
Width: 0
Flags: W
LayerCount: 2
Fore
SplineSet
-215 -99 m 0
 -203 -99 -195 -108 -195 -119 c 0
 -195 -130 -203 -138 -215 -138 c 0
 -227 -138 -235 -130 -235 -119 c 0
 -235 -108 -227 -99 -215 -99 c 0
-49 -99 m 0
 -37 -99 -30 -108 -30 -119 c 0
 -30 -130 -37 -138 -49 -138 c 0
 -62 -138 -70 -130 -70 -119 c 0
 -70 -108 -62 -99 -49 -99 c 0
EndSplineSet
EndChar

StartChar: uni0325
Encoding: 805 805 314
Width: 0
Flags: W
LayerCount: 2
Fore
SplineSet
-110 -70 m 0
 -61 -70 -30 -101 -30 -148 c 0
 -30 -195 -62 -226 -110 -226 c 0
 -158 -226 -189 -195 -189 -148 c 0
 -189 -101 -157 -70 -110 -70 c 0
-110 -88 m 0
 -147 -88 -168 -111 -168 -148 c 0
 -168 -186 -147 -209 -110 -209 c 0
 -72 -209 -51 -186 -51 -148 c 0
 -51 -110 -72 -88 -110 -88 c 0
EndSplineSet
EndChar

StartChar: uni0326
Encoding: 806 806 315
Width: 0
Flags: W
LayerCount: 2
Fore
SplineSet
-55 -96 m 0
 -38 -96 -30 -106 -30 -119 c 0
 -30 -131 -33 -139 -44 -162 c 2
 -79 -258 l 1
 -94 -258 l 1
 -63 -142 l 1
 -74 -138 -79 -131 -79 -119 c 0
 -79 -106 -69 -96 -55 -96 c 0
EndSplineSet
EndChar

StartChar: uni0327
Encoding: 807 807 316
Width: 0
Flags: W
LayerCount: 2
Fore
SplineSet
-120 9 m 1
 -121 -74 l 1
 -61 -77 -30 -99 -30 -140 c 0
 -30 -187 -70 -212 -114 -212 c 0
 -145 -212 -165 -204 -182 -194 c 1
 -172 -177 l 1
 -158 -186 -140 -192 -114 -192 c 0
 -82 -192 -53 -176 -53 -140 c 0
 -53 -107 -80 -91 -142 -90 c 1
 -136 9 l 1
 -120 9 l 1
EndSplineSet
EndChar

StartChar: uni0328
Encoding: 808 808 317
Width: 0
Flags: W
LayerCount: 2
Fore
SplineSet
-40 13 m 1
 -32 0 l 1
 -103 -31 -157 -63 -157 -122 c 0
 -157 -158 -134 -181 -87 -181 c 0
 -69 -181 -53 -179 -32 -174 c 1
 -34 -196 l 1
 -54 -201 -69 -203 -88 -203 c 0
 -151 -203 -181 -169 -181 -123 c 0
 -181 -60 -124 -21 -40 13 c 1
EndSplineSet
EndChar

StartChar: uni0329
Encoding: 809 809 318
Width: 0
Flags: W
LayerCount: 2
Fore
SplineSet
-53 -279 m 1
 -53 -79 l 1
 -30 -79 l 1
 -30 -279 l 1
 -53 -279 l 1
EndSplineSet
EndChar

StartChar: uni032A
Encoding: 810 810 319
Width: 0
Flags: W
LayerCount: 2
Fore
SplineSet
-275 -215 m 1
 -275 -105 l 1
 -30 -105 l 1
 -30 -216 l 1
 -52 -216 l 1
 -52 -125 l 1
 -253 -125 l 1
 -253 -215 l 1
 -275 -215 l 1
EndSplineSet
EndChar

StartChar: uni032B
Encoding: 811 811 320
Width: 0
Flags: W
LayerCount: 2
Fore
SplineSet
-44 -68 m 1
 -30 -69 l 1
 -36 -121 -62 -158 -101 -158 c 0
 -136 -158 -160 -130 -170 -87 c 1
 -181 -130 -205 -158 -239 -158 c 0
 -278 -158 -305 -121 -311 -69 c 1
 -297 -68 l 1
 -290 -108 -270 -133 -239 -133 c 0
 -208 -133 -188 -108 -181 -68 c 1
 -159 -68 l 1
 -153 -108 -133 -133 -101 -133 c 0
 -70 -133 -51 -108 -44 -68 c 1
EndSplineSet
EndChar

StartChar: uni032C
Encoding: 812 812 321
Width: 0
Flags: W
LayerCount: 2
Fore
SplineSet
-42 -78 m 1
 -30 -91 l 1
 -150 -181 l 1
 -162 -181 l 1
 -282 -91 l 1
 -271 -78 l 1
 -156 -157 l 1
 -42 -78 l 1
EndSplineSet
EndChar

StartChar: uni032D
Encoding: 813 813 322
Width: 0
Flags: W
LayerCount: 2
Fore
SplineSet
-271 -184 m 1
 -282 -170 l 1
 -162 -75 l 1
 -150 -75 l 1
 -30 -170 l 1
 -42 -184 l 1
 -156 -99 l 1
 -271 -184 l 1
EndSplineSet
EndChar

StartChar: uni032F
Encoding: 815 815 323
Width: 0
Flags: W
LayerCount: 2
Fore
SplineSet
-138 -62 m 0
 -79 -62 -39 -99 -30 -148 c 1
 -46 -152 l 1
 -58 -108 -91 -84 -138 -84 c 0
 -185 -84 -217 -108 -230 -152 c 1
 -246 -148 l 1
 -236 -99 -196 -62 -138 -62 c 0
EndSplineSet
EndChar

StartChar: uni0330
Encoding: 816 816 324
Width: 0
Flags: W
LayerCount: 2
Fore
SplineSet
-103 -146 m 0
 -128 -146 -151 -134 -170 -122 c 0
 -188 -110 -203 -102 -220 -102 c 0
 -243 -102 -259 -113 -280 -137 c 1
 -294 -129 l 1
 -272 -99 -249 -82 -220 -82 c 0
 -199 -82 -179 -93 -158 -106 c 0
 -140 -117 -122 -126 -103 -126 c 0
 -80 -126 -65 -115 -43 -84 c 1
 -29 -93 l 1
 -51 -131 -74 -146 -103 -146 c 0
EndSplineSet
EndChar

StartChar: uni0331
Encoding: 817 817 325
Width: 0
Flags: W
LayerCount: 2
Fore
SplineSet
-30 -139 m 1
 -237 -139 l 1
 -237 -118 l 1
 -30 -118 l 1
 -30 -139 l 1
EndSplineSet
EndChar

StartChar: uni0332
Encoding: 818 818 326
Width: 0
Flags: W
LayerCount: 2
Fore
SplineSet
-30 -139 m 1
 -341 -139 l 1
 -341 -118 l 1
 -30 -118 l 1
 -30 -139 l 1
EndSplineSet
EndChar

StartChar: uni0334
Encoding: 820 820 327
Width: 0
Flags: W
LayerCount: 2
Fore
SplineSet
-111 280 m 0
 -163 280 -214 335 -261 335 c 0
 -295 335 -311 317 -330 293 c 1
 -345 302 l 1
 -323 334 -301 357 -261 357 c 0
 -206 357 -159 302 -111 302 c 0
 -78 302 -63 319 -44 343 c 1
 -30 335 l 1
 -51 303 -72 280 -111 280 c 0
EndSplineSet
EndChar

StartChar: uni0335
Encoding: 821 821 328
Width: 0
Flags: W
LayerCount: 2
Fore
SplineSet
-319 302 m 1
 -319 323 l 1
 -76 323 l 1
 -76 302 l 1
 -319 302 l 1
EndSplineSet
EndChar

StartChar: uni0336
Encoding: 822 822 329
Width: 0
Flags: W
LayerCount: 2
Fore
SplineSet
-708 303 m 1
 -708 323 l 1
 -30 323 l 1
 -30 303 l 1
 -708 303 l 1
EndSplineSet
EndChar

StartChar: uni0339
Encoding: 825 825 330
Width: 0
Flags: W
LayerCount: 2
Fore
SplineSet
-109 -226 m 1
 -61 -226 -30 -195 -30 -148 c 0
 -30 -101 -61 -70 -109 -70 c 1
 -109 -88 l 1
 -72 -88 -51 -111 -51 -148 c 0
 -51 -186 -71 -209 -109 -209 c 1
 -109 -226 l 1
EndSplineSet
EndChar

StartChar: uni033A
Encoding: 826 826 331
Width: 0
Flags: W
LayerCount: 2
Fore
SplineSet
-275 -104 m 1
 -253 -104 l 1
 -253 -194 l 1
 -52 -194 l 1
 -52 -103 l 1
 -30 -103 l 1
 -30 -214 l 1
 -275 -214 l 1
 -275 -104 l 1
EndSplineSet
EndChar

StartChar: uni033B
Encoding: 827 827 332
Width: 0
Flags: W
LayerCount: 2
Fore
SplineSet
-265 -214 m 1
 -265 -83 l 1
 -30 -83 l 1
 -30 -214 l 1
 -265 -214 l 1
-244 -194 m 1
 -51 -194 l 1
 -51 -103 l 1
 -244 -103 l 1
 -244 -194 l 1
EndSplineSet
EndChar

StartChar: uni033C
Encoding: 828 828 333
Width: 0
Flags: W
LayerCount: 2
Fore
SplineSet
-101 -72 m 0
 -62 -72 -36 -109 -30 -160 c 1
 -44 -162 l 1
 -51 -121 -70 -97 -101 -97 c 0
 -133 -97 -153 -121 -159 -162 c 1
 -181 -162 l 1
 -188 -121 -208 -97 -239 -97 c 0
 -270 -97 -290 -121 -297 -162 c 1
 -311 -160 l 1
 -305 -109 -278 -72 -239 -72 c 0
 -205 -72 -181 -100 -170 -143 c 1
 -160 -100 -136 -72 -101 -72 c 0
EndSplineSet
EndChar

StartChar: uni033D
Encoding: 829 829 334
Width: 0
Flags: W
LayerCount: 2
Fore
SplineSet
-157 723 m 1
 -53 597 l 1
 -78 597 l 1
 -169 712 l 1
 -261 597 l 1
 -284 597 l 1
 -181 722 l 1
 -271 832 l 1
 -246 832 l 1
 -169 733 l 1
 -90 832 l 1
 -66 832 l 1
 -157 723 l 1
EndSplineSet
EndChar

StartChar: uni0342
Encoding: 834 834 335
Width: 0
Flags: W
LayerCount: 2
Fore
SplineSet
-103 678 m 0
 -129 678 -152 690 -170 702 c 0
 -188 714 -204 721 -220 721 c 0
 -244 721 -259 711 -280 686 c 1
 -294 695 l 1
 -272 725 -250 741 -220 741 c 0
 -199 741 -179 731 -158 718 c 0
 -140 707 -123 698 -103 698 c 0
 -80 698 -65 709 -44 739 c 1
 -30 731 l 1
 -51 693 -74 678 -103 678 c 0
EndSplineSet
EndChar

StartChar: uni0345
Encoding: 837 837 336
Width: 0
Flags: W
LayerCount: 2
Fore
SplineSet
-93 -154 m 0
 -134 -154 -157 -126 -157 -86 c 2
 -157 -49 l 1
 -135 -49 l 1
 -135 -85 l 2
 -135 -119 -120 -134 -92 -134 c 0
 -70 -134 -57 -128 -42 -118 c 1
 -30 -131 l 1
 -48 -145 -67 -154 -93 -154 c 0
EndSplineSet
EndChar

StartChar: uni035C
Encoding: 860 860 337
Width: 0
Flags: W
LayerCount: 2
Fore
SplineSet
322 -65 m 1
 255 -120 157 -198 -1 -198 c 0
 -159 -198 -257 -120 -324 -65 c 1
 -315 -53 l 1
 -253 -100 -155 -176 -1 -176 c 0
 153 -176 251 -100 313 -53 c 1
 322 -65 l 1
EndSplineSet
EndChar

StartChar: uni0361
Encoding: 865 865 338
Width: 0
Flags: W
LayerCount: 2
Fore
SplineSet
324 647 m 1
 315 635 l 1
 253 682 155 758 1 758 c 0
 -153 758 -251 682 -313 635 c 1
 -322 647 l 1
 -255 702 -157 780 1 780 c 0
 159 780 257 702 324 647 c 1
EndSplineSet
EndChar

StartChar: uni037E
Encoding: 894 894 339
Width: 163
Flags: W
LayerCount: 2
Fore
SplineSet
81 453 m 0
 96 453 105 442 105 429 c 0
 105 417 96 406 81 406 c 0
 67 406 58 417 58 429 c 0
 58 442 67 453 81 453 c 0
81 38 m 0
 96 38 105 28 105 14 c 0
 105 4 100 -7 96 -17 c 2
 52 -130 l 1
 35 -130 l 1
 73 -6 l 1
 63 -3 58 5 58 14 c 0
 58 28 67 38 81 38 c 0
EndSplineSet
EndChar

StartChar: uni0384
Encoding: 900 900 340
Width: 88
Flags: W
LayerCount: 2
Fore
SplineSet
31 735 m 1
 58 733 l 1
 46 603 l 1
 31 603 l 1
 31 735 l 1
EndSplineSet
EndChar

StartChar: uni0385
Encoding: 901 901 341
Width: 265
Flags: W
LayerCount: 2
Fore
SplineSet
127 817 m 1
 151 817 l 1
 140 700 l 1
 127 700 l 1
 127 817 l 1
50 682 m 0
 62 682 70 673 70 662 c 0
 70 651 62 643 50 643 c 0
 38 643 30 651 30 662 c 0
 30 673 38 682 50 682 c 0
216 682 m 0
 228 682 235 673 235 662 c 0
 235 651 228 643 216 643 c 0
 203 643 195 651 195 662 c 0
 195 673 203 682 216 682 c 0
EndSplineSet
EndChar

StartChar: uni0386
Encoding: 902 902 342
Width: 557
Flags: W
LayerCount: 2
Fore
SplineSet
118 683 m 1
 145 681 l 1
 134 541 l 1
 117 541 l 1
 118 683 l 1
505 0 m 1
 436 203 l 1
 120 203 l 1
 51 0 l 1
 28 0 l 1
 265 681 l 1
 292 681 l 1
 530 0 l 1
 505 0 l 1
128 224 m 1
 429 224 l 1
 278 663 l 1
 128 224 l 1
EndSplineSet
EndChar

StartChar: uni0387
Encoding: 903 903 343
Width: 163
Flags: W
LayerCount: 2
Fore
SplineSet
81 350 m 0
 96 350 105 339 105 326 c 0
 105 314 96 303 81 303 c 0
 67 303 58 314 58 326 c 0
 58 339 67 350 81 350 c 0
EndSplineSet
EndChar

StartChar: uni0388
Encoding: 904 904 344
Width: 508
Flags: W
LayerCount: 2
Fore
SplineSet
50 683 m 1
 77 681 l 1
 66 541 l 1
 49 541 l 1
 50 683 l 1
458 681 m 1
 456 660 l 1
 160 660 l 1
 160 370 l 1
 415 370 l 1
 415 349 l 1
 160 349 l 1
 160 21 l 1
 466 21 l 1
 466 0 l 1
 138 0 l 1
 138 681 l 1
 458 681 l 1
EndSplineSet
EndChar

StartChar: uni0389
Encoding: 905 905 345
Width: 675
Flags: W
LayerCount: 2
Fore
SplineSet
50 683 m 1
 77 681 l 1
 66 541 l 1
 49 541 l 1
 50 683 l 1
529 0 m 1
 529 349 l 1
 160 349 l 1
 160 0 l 1
 138 0 l 1
 138 681 l 1
 160 681 l 1
 160 371 l 1
 529 371 l 1
 529 681 l 1
 552 681 l 1
 552 0 l 1
 529 0 l 1
EndSplineSet
EndChar

StartChar: uni038A
Encoding: 906 906 346
Width: 283
Flags: W
LayerCount: 2
Fore
SplineSet
50 683 m 1
 77 681 l 1
 66 541 l 1
 49 541 l 1
 50 683 l 1
160 681 m 1
 160 0 l 1
 138 0 l 1
 138 681 l 1
 160 681 l 1
EndSplineSet
EndChar

StartChar: uni038C
Encoding: 908 908 347
Width: 694
Flags: W
LayerCount: 2
Fore
SplineSet
349 691 m 0
 510 691 616 569 616 340 c 0
 616 119 516 -10 349 -10 c 0
 190 -10 83 115 83 339 c 0
 83 563 192 691 349 691 c 0
55 683 m 1
 83 681 l 1
 72 541 l 1
 55 541 l 1
 55 683 l 1
349 670 m 0
 205 670 106 554 106 339 c 0
 106 127 204 12 349 12 c 0
 503 12 593 127 593 340 c 0
 593 557 497 670 349 670 c 0
EndSplineSet
EndChar

StartChar: uni038E
Encoding: 910 910 348
Width: 581
Flags: W
LayerCount: 2
Fore
SplineSet
41 683 m 1
 69 681 l 1
 57 541 l 1
 40 541 l 1
 41 683 l 1
560 681 m 1
 347 271 l 1
 347 0 l 1
 324 0 l 1
 324 270 l 1
 108 681 l 1
 134 681 l 1
 336 292 l 1
 534 681 l 1
 560 681 l 1
EndSplineSet
EndChar

StartChar: uni038F
Encoding: 911 911 349
Width: 689
Flags: W
LayerCount: 2
Fore
SplineSet
345 691 m 0
 506 691 611 569 611 340 c 0
 611 161 552 68 452 22 c 1
 587 22 l 1
 587 0 l 1
 413 0 l 1
 413 22 l 1
 526 66 588 163 588 340 c 0
 588 557 492 670 345 670 c 0
 200 670 101 554 101 339 c 0
 101 164 165 70 276 22 c 1
 276 0 l 1
 102 0 l 1
 102 22 l 1
 238 22 l 1
 133 73 78 165 78 339 c 0
 78 563 187 691 345 691 c 0
55 683 m 1
 83 681 l 1
 72 541 l 1
 55 541 l 1
 55 683 l 1
EndSplineSet
EndChar

StartChar: uni0390
Encoding: 912 912 350
Width: 256
Flags: W
LayerCount: 2
Fore
SplineSet
118 817 m 1
 142 817 l 1
 131 700 l 1
 118 700 l 1
 118 817 l 1
41 682 m 0
 53 682 61 673 61 662 c 0
 61 651 53 643 41 643 c 0
 29 643 21 651 21 662 c 0
 21 673 29 682 41 682 c 0
207 682 m 0
 219 682 226 673 226 662 c 0
 226 651 219 643 207 643 c 0
 194 643 186 651 186 662 c 0
 186 673 194 682 207 682 c 0
135 519 m 1
 135 106 l 2
 135 50 148 29 185 14 c 1
 178 -5 l 1
 129 14 113 42 113 106 c 2
 113 519 l 1
 135 519 l 1
EndSplineSet
EndChar

StartChar: uni0391
Encoding: 913 913 351
Width: 557
Flags: W
LayerCount: 2
Fore
SplineSet
505 0 m 1
 436 203 l 1
 120 203 l 1
 51 0 l 1
 28 0 l 1
 265 681 l 1
 292 681 l 1
 530 0 l 1
 505 0 l 1
128 224 m 1
 429 224 l 1
 278 663 l 1
 128 224 l 1
EndSplineSet
EndChar

StartChar: uni0392
Encoding: 914 914 352
Width: 587
Flags: W
LayerCount: 2
Fore
SplineSet
362 361 m 1
 450 356 525 301 525 184 c 0
 525 61 438 0 299 0 c 2
 123 0 l 1
 123 681 l 1
 264 681 l 2
 408 681 490 624 490 513 c 0
 490 424 438 374 362 361 c 1
267 660 m 2
 146 660 l 1
 146 370 l 1
 316 370 l 2
 406 370 467 427 467 512 c 0
 467 611 396 660 267 660 c 2
300 21 m 2
 422 21 502 71 502 184 c 0
 502 294 426 350 321 350 c 2
 146 350 l 1
 146 21 l 1
 300 21 l 2
EndSplineSet
EndChar

StartChar: uni0393
Encoding: 915 915 353
Width: 512
Flags: W
LayerCount: 2
Fore
SplineSet
499 681 m 1
 495 659 l 1
 146 659 l 1
 146 0 l 1
 123 0 l 1
 123 681 l 1
 499 681 l 1
EndSplineSet
EndChar

StartChar: uni0394
Encoding: 916 916 354
Width: 567
Flags: W
LayerCount: 2
Fore
SplineSet
298 681 m 1
 540 0 l 1
 28 0 l 1
 270 681 l 1
 298 681 l 1
284 663 m 1
 58 21 l 1
 509 21 l 1
 284 663 l 1
EndSplineSet
EndChar

StartChar: uni0395
Encoding: 917 917 355
Width: 494
Flags: W
LayerCount: 2
Fore
SplineSet
444 681 m 1
 441 660 l 1
 146 660 l 1
 146 370 l 1
 400 370 l 1
 400 349 l 1
 146 349 l 1
 146 21 l 1
 451 21 l 1
 451 0 l 1
 123 0 l 1
 123 681 l 1
 444 681 l 1
EndSplineSet
EndChar

StartChar: uni0396
Encoding: 918 918 356
Width: 509
Flags: W
LayerCount: 2
Fore
SplineSet
459 681 m 1
 459 662 l 1
 69 22 l 1
 446 22 l 1
 443 0 l 1
 41 0 l 1
 41 21 l 1
 432 660 l 1
 79 660 l 1
 79 681 l 1
 459 681 l 1
EndSplineSet
EndChar

StartChar: uni0397
Encoding: 919 919 357
Width: 660
Flags: W
LayerCount: 2
Fore
SplineSet
514 0 m 1
 514 349 l 1
 146 349 l 1
 146 0 l 1
 123 0 l 1
 123 681 l 1
 146 681 l 1
 146 371 l 1
 514 371 l 1
 514 681 l 1
 537 681 l 1
 537 0 l 1
 514 0 l 1
EndSplineSet
EndChar

StartChar: uni0398
Encoding: 920 920 358
Width: 689
Flags: W
LayerCount: 2
Fore
SplineSet
344 691 m 0
 505 691 611 569 611 340 c 0
 611 119 511 -10 344 -10 c 0
 185 -10 78 115 78 339 c 0
 78 563 187 691 344 691 c 0
344 670 m 0
 200 670 101 554 101 339 c 0
 101 127 199 12 344 12 c 0
 498 12 588 127 588 340 c 0
 588 557 492 670 344 670 c 0
482 361 m 1
 482 340 l 1
 207 340 l 1
 207 361 l 1
 482 361 l 1
EndSplineSet
EndChar

StartChar: uni0399
Encoding: 921 921 359
Width: 268
Flags: W
LayerCount: 2
Fore
SplineSet
146 681 m 1
 146 0 l 1
 123 0 l 1
 123 681 l 1
 146 681 l 1
EndSplineSet
EndChar

StartChar: uni039A
Encoding: 922 922 360
Width: 510
Flags: W
LayerCount: 2
Fore
SplineSet
146 681 m 1
 146 0 l 1
 123 0 l 1
 123 681 l 1
 146 681 l 1
490 681 m 1
 178 367 l 1
 506 0 l 1
 478 0 l 1
 149 367 l 1
 463 681 l 1
 490 681 l 1
EndSplineSet
EndChar

StartChar: uni039B
Encoding: 923 923 361
Width: 557
Flags: W
LayerCount: 2
Fore
SplineSet
292 681 m 1
 530 0 l 1
 505 0 l 1
 278 663 l 1
 51 0 l 1
 28 0 l 1
 265 681 l 1
 292 681 l 1
EndSplineSet
EndChar

StartChar: uni039C
Encoding: 924 924 362
Width: 762
Flags: W
LayerCount: 2
Fore
SplineSet
609 681 m 1
 684 0 l 1
 662 0 l 1
 623 345 l 2
 611 458 596 592 589 660 c 1
 392 84 l 1
 370 84 l 1
 170 660 l 1
 165 605 148 463 137 354 c 2
 100 0 l 1
 78 0 l 1
 151 681 l 1
 185 681 l 1
 381 112 l 1
 575 681 l 1
 609 681 l 1
EndSplineSet
EndChar

StartChar: uni039D
Encoding: 925 925 363
Width: 661
Flags: W
LayerCount: 2
Fore
SplineSet
538 681 m 1
 538 0 l 1
 510 0 l 1
 142 656 l 1
 144 621 145 576 145 477 c 2
 145 0 l 1
 123 0 l 1
 123 681 l 1
 152 681 l 1
 519 26 l 1
 518 66 516 127 516 205 c 2
 516 681 l 1
 538 681 l 1
EndSplineSet
EndChar

StartChar: uni039E
Encoding: 926 926 364
Width: 483
Flags: W
LayerCount: 2
Fore
SplineSet
416 681 m 1
 414 660 l 1
 56 660 l 1
 56 681 l 1
 416 681 l 1
371 371 m 1
 371 349 l 1
 113 349 l 1
 113 371 l 1
 371 371 l 1
426 23 m 1
 426 0 l 1
 56 0 l 1
 56 23 l 1
 426 23 l 1
EndSplineSet
EndChar

StartChar: uni039F
Encoding: 927 927 365
Width: 689
Flags: W
LayerCount: 2
Fore
SplineSet
344 691 m 0
 505 691 611 569 611 340 c 0
 611 119 511 -10 344 -10 c 0
 185 -10 78 115 78 339 c 0
 78 563 187 691 344 691 c 0
344 670 m 0
 200 670 101 554 101 339 c 0
 101 127 199 12 344 12 c 0
 498 12 588 127 588 340 c 0
 588 557 492 670 344 670 c 0
EndSplineSet
EndChar

StartChar: uni03A0
Encoding: 928 928 366
Width: 656
Flags: W
LayerCount: 2
Fore
SplineSet
533 681 m 1
 533 0 l 1
 511 0 l 1
 511 660 l 1
 146 660 l 1
 146 0 l 1
 123 0 l 1
 123 681 l 1
 533 681 l 1
EndSplineSet
EndChar

StartChar: uni03A1
Encoding: 929 929 367
Width: 558
Flags: W
LayerCount: 2
Fore
SplineSet
261 681 m 2
 416 681 501 623 501 484 c 0
 501 337 401 282 256 282 c 2
 146 282 l 1
 146 0 l 1
 123 0 l 1
 123 681 l 1
 261 681 l 2
258 303 m 2
 388 303 477 348 477 483 c 0
 477 612 402 660 261 660 c 2
 146 660 l 1
 146 303 l 1
 258 303 l 2
EndSplineSet
EndChar

StartChar: uni03A3
Encoding: 931 931 368
Width: 485
Flags: W
LayerCount: 2
Fore
SplineSet
432 681 m 1
 432 660 l 1
 86 660 l 1
 316 344 l 1
 316 334 l 1
 86 21 l 1
 432 21 l 1
 432 0 l 1
 53 0 l 1
 53 12 l 1
 292 339 l 1
 53 669 l 1
 53 681 l 1
 432 681 l 1
EndSplineSet
EndChar

StartChar: uni03A4
Encoding: 932 932 369
Width: 476
Flags: W
LayerCount: 2
Fore
SplineSet
463 681 m 1
 459 659 l 1
 249 659 l 1
 249 0 l 1
 226 0 l 1
 226 659 l 1
 16 659 l 1
 16 681 l 1
 463 681 l 1
EndSplineSet
EndChar

StartChar: uni03A5
Encoding: 933 933 370
Width: 494
Flags: W
LayerCount: 2
Fore
SplineSet
473 681 m 1
 260 271 l 1
 260 0 l 1
 237 0 l 1
 237 270 l 1
 21 681 l 1
 47 681 l 1
 249 292 l 1
 447 681 l 1
 473 681 l 1
EndSplineSet
EndChar

StartChar: uni03A6
Encoding: 934 934 371
Width: 767
Flags: W
LayerCount: 2
Fore
SplineSet
719 342 m 0
 719 176 616 82 395 73 c 1
 395 0 l 1
 372 0 l 1
 372 73 l 1
 150 78 48 181 48 342 c 0
 48 508 151 602 372 611 c 1
 372 681 l 1
 395 681 l 1
 395 611 l 1
 617 606 719 503 719 342 c 0
394 93 m 1
 597 103 696 181 696 342 c 0
 696 495 598 586 394 590 c 1
 394 93 l 1
71 342 m 0
 71 189 169 98 373 93 c 1
 373 590 l 1
 170 581 71 503 71 342 c 0
EndSplineSet
EndChar

StartChar: uni03A7
Encoding: 935 935 372
Width: 486
Flags: W
LayerCount: 2
Fore
SplineSet
254 370 m 1
 469 0 l 1
 444 0 l 1
 240 355 l 1
 41 0 l 1
 16 0 l 1
 227 369 l 1
 41 681 l 1
 67 681 l 1
 240 384 l 1
 413 681 l 1
 437 681 l 1
 254 370 l 1
EndSplineSet
EndChar

StartChar: uni03A8
Encoding: 936 936 373
Width: 648
Flags: W
LayerCount: 2
Fore
SplineSet
577 681 m 1
 600 681 l 1
 600 426 l 2
 600 289 508 214 335 210 c 1
 335 0 l 1
 312 0 l 1
 312 210 l 1
 141 214 48 288 48 426 c 2
 48 681 l 1
 71 681 l 1
 71 428 l 2
 71 302 155 235 312 231 c 1
 312 681 l 1
 335 681 l 1
 335 231 l 1
 494 235 577 303 577 428 c 2
 577 681 l 1
EndSplineSet
EndChar

StartChar: uni03A9
Encoding: 937 937 374
Width: 689
Flags: W
LayerCount: 2
Fore
SplineSet
344 691 m 0
 505 691 611 569 611 340 c 0
 611 161 552 68 452 22 c 1
 587 22 l 1
 587 0 l 1
 413 0 l 1
 413 22 l 1
 526 66 588 163 588 340 c 0
 588 557 492 670 344 670 c 0
 200 670 101 554 101 339 c 0
 101 164 164 70 276 22 c 1
 276 0 l 1
 102 0 l 1
 102 22 l 1
 238 22 l 1
 133 73 78 165 78 339 c 0
 78 563 187 691 344 691 c 0
EndSplineSet
EndChar

StartChar: uni03AA
Encoding: 938 938 375
Width: 268
Flags: W
LayerCount: 2
Fore
SplineSet
51 838 m 0
 63 838 71 829 71 818 c 0
 71 807 63 799 51 799 c 0
 39 799 31 807 31 818 c 0
 31 829 39 838 51 838 c 0
217 838 m 0
 229 838 236 829 236 818 c 0
 236 807 229 799 217 799 c 0
 204 799 196 807 196 818 c 0
 196 829 204 838 217 838 c 0
146 681 m 1
 146 0 l 1
 123 0 l 1
 123 681 l 1
 146 681 l 1
EndSplineSet
EndChar

StartChar: uni03AB
Encoding: 939 939 376
Width: 494
Flags: W
LayerCount: 2
Fore
SplineSet
164 838 m 0
 176 838 184 829 184 818 c 0
 184 807 176 799 164 799 c 0
 152 799 144 807 144 818 c 0
 144 829 152 838 164 838 c 0
330 838 m 0
 342 838 349 829 349 818 c 0
 349 807 342 799 330 799 c 0
 317 799 309 807 309 818 c 0
 309 829 317 838 330 838 c 0
473 681 m 1
 260 271 l 1
 260 0 l 1
 237 0 l 1
 237 270 l 1
 21 681 l 1
 47 681 l 1
 249 292 l 1
 447 681 l 1
 473 681 l 1
EndSplineSet
EndChar

StartChar: uni03AC
Encoding: 940 940 377
Width: 594
Flags: W
LayerCount: 2
Fore
SplineSet
273 735 m 1
 300 733 l 1
 288 603 l 1
 273 603 l 1
 273 735 l 1
257 529 m 0
 351 529 404 477 435 297 c 1
 492 519 l 1
 516 519 l 1
 447 267 l 1
 488 69 l 2
 496 32 510 22 527 16 c 1
 520 -3 l 1
 495 4 476 16 466 61 c 2
 433 224 l 1
 400 55 341 -10 246 -10 c 0
 137 -10 73 80 73 262 c 0
 73 420 143 529 257 529 c 0
258 509 m 0
 164 509 96 418 96 262 c 0
 96 90 153 11 246 11 c 0
 329 11 388 69 425 265 c 1
 390 454 345 509 258 509 c 0
EndSplineSet
EndChar

StartChar: uni03AD
Encoding: 941 941 378
Width: 444
Flags: W
LayerCount: 2
Fore
SplineSet
241 735 m 1
 268 733 l 1
 256 603 l 1
 241 603 l 1
 241 735 l 1
250 529 m 0
 319 529 365 508 400 484 c 1
 387 468 l 1
 351 493 310 509 252 509 c 0
 162 509 109 464 109 395 c 0
 109 332 161 283 251 283 c 2
 309 283 l 1
 306 263 l 1
 248 263 l 2
 144 263 88 220 88 137 c 0
 88 57 152 11 245 11 c 0
 318 11 357 32 399 67 c 1
 411 52 l 1
 370 16 322 -10 244 -10 c 0
 141 -10 66 45 66 137 c 0
 66 224 123 267 203 274 c 1
 126 288 87 331 87 395 c 0
 87 479 156 529 250 529 c 0
EndSplineSet
EndChar

StartChar: uni03AE
Encoding: 942 942 379
Width: 583
Flags: W
LayerCount: 2
Fore
SplineSet
302 733 m 1
 290 603 l 1
 275 603 l 1
 275 735 l 1
 302 733 l 1
331 529 m 0
 426 529 470 471 470 369 c 2
 470 -196 l 1
 448 -192 l 1
 448 367 l 2
 448 461 410 509 331 509 c 0
 247 509 190 459 141 384 c 1
 141 0 l 1
 119 0 l 1
 119 363 l 2
 119 433 110 481 98 520 c 1
 118 523 l 1
 131 490 137 450 139 410 c 1
 185 481 248 529 331 529 c 0
EndSplineSet
EndChar

StartChar: uni03AF
Encoding: 943 943 380
Width: 256
Flags: W
LayerCount: 2
Fore
SplineSet
116 735 m 1
 143 733 l 1
 131 603 l 1
 116 603 l 1
 116 735 l 1
135 519 m 1
 135 106 l 2
 135 50 148 29 185 14 c 1
 178 -5 l 1
 129 14 113 42 113 106 c 2
 113 519 l 1
 135 519 l 1
EndSplineSet
EndChar

StartChar: uni03B0
Encoding: 944 944 381
Width: 557
Flags: W
LayerCount: 2
Fore
SplineSet
269 817 m 1
 293 817 l 1
 282 700 l 1
 269 700 l 1
 269 817 l 1
192 682 m 0
 204 682 212 673 212 662 c 0
 212 651 204 643 192 643 c 0
 180 643 172 651 172 662 c 0
 172 673 180 682 192 682 c 0
358 682 m 0
 370 682 377 673 377 662 c 0
 377 651 370 643 358 643 c 0
 345 643 337 651 337 662 c 0
 337 673 345 682 358 682 c 0
437 519 m 1
 450 445 464 358 464 266 c 0
 464 72 377 -10 270 -10 c 0
 181 -10 113 45 113 155 c 2
 113 519 l 1
 135 519 l 1
 135 156 l 2
 135 55 194 11 270 11 c 0
 358 11 441 75 441 266 c 0
 441 358 428 445 415 519 c 1
 437 519 l 1
EndSplineSet
EndChar

StartChar: uni03B1
Encoding: 945 945 382
Width: 594
Flags: W
LayerCount: 2
Fore
SplineSet
257 529 m 0
 351 529 404 477 435 297 c 1
 492 519 l 1
 516 519 l 1
 447 267 l 1
 488 69 l 2
 496 32 510 22 527 16 c 1
 520 -3 l 1
 495 4 476 16 466 61 c 2
 433 224 l 1
 400 55 341 -10 246 -10 c 0
 137 -10 73 80 73 262 c 0
 73 420 143 529 257 529 c 0
258 509 m 0
 164 509 96 418 96 262 c 0
 96 90 153 11 246 11 c 0
 329 11 388 69 425 265 c 1
 390 454 345 509 258 509 c 0
EndSplineSet
EndChar

StartChar: uni03B2
Encoding: 946 946 383
Width: 574
Flags: W
LayerCount: 2
Fore
SplineSet
307 399 m 1
 427 397 517 328 516 198 c 0
 515 64 426 -10 320 -10 c 0
 246 -10 188 15 141 73 c 1
 141 -192 l 1
 118 -197 l 1
 118 541 l 2
 118 668 193 737 300 737 c 0
 395 737 469 678 470 570 c 0
 471 465 408 408 307 399 c 1
320 11 m 0
 418 11 494 82 493 198 c 0
 492 322 405 389 268 389 c 2
 218 389 l 1
 221 409 l 1
 270 409 l 2
 348 409 448 445 447 570 c 0
 446 669 383 716 300 716 c 0
 207 716 141 660 141 540 c 2
 141 99 l 1
 193 36 244 11 320 11 c 0
EndSplineSet
EndChar

StartChar: uni03B3
Encoding: 947 947 384
Width: 440
Flags: W
LayerCount: 2
Fore
SplineSet
39 524 m 1
 93 454 154 328 221 38 c 1
 394 524 l 1
 418 518 l 1
 234 16 l 2
 205 -63 204 -117 225 -194 c 1
 206 -196 l 1
 182 -124 181 -70 209 11 c 1
 136 304 77 439 18 517 c 1
 39 524 l 1
EndSplineSet
EndChar

StartChar: uni03B4
Encoding: 948 948 385
Width: 557
Flags: W
LayerCount: 2
Fore
SplineSet
290 487 m 0
 427 435 484 373 484 233 c 0
 484 71 409 -10 280 -10 c 0
 152 -10 73 76 73 235 c 0
 73 364 141 444 246 484 c 1
 162 518 126 553 126 616 c 0
 126 684 187 737 280 737 c 0
 341 737 385 721 430 692 c 1
 416 676 l 1
 374 703 338 716 283 716 c 0
 200 716 149 673 149 615 c 0
 149 557 178 529 290 487 c 0
280 11 m 0
 397 11 461 83 461 233 c 0
 461 365 414 420 268 476 c 1
 172 441 96 366 96 235 c 0
 96 88 167 11 280 11 c 0
EndSplineSet
EndChar

StartChar: uni03B5
Encoding: 949 949 386
Width: 444
Flags: W
LayerCount: 2
Fore
SplineSet
250 529 m 0
 319 529 365 508 400 484 c 1
 387 468 l 1
 351 493 310 509 252 509 c 0
 162 509 109 464 109 395 c 0
 109 332 161 283 251 283 c 2
 309 283 l 1
 306 263 l 1
 248 263 l 2
 144 263 88 220 88 137 c 0
 88 57 152 11 245 11 c 0
 318 11 357 32 399 67 c 1
 411 52 l 1
 370 16 322 -10 244 -10 c 0
 141 -10 66 45 66 137 c 0
 66 224 123 267 203 274 c 1
 126 288 87 331 87 395 c 0
 87 479 156 529 250 529 c 0
EndSplineSet
EndChar

StartChar: uni03B6
Encoding: 950 950 387
Width: 359
Flags: W
LayerCount: 2
Fore
SplineSet
372 732 m 1
 376 712 l 1
 202 566 76 419 76 251 c 0
 76 141 116 101 221 62 c 0
 330 21 367 -7 367 -63 c 0
 367 -120 328 -160 251 -196 c 1
 241 -180 l 1
 302 -151 344 -118 344 -63 c 0
 344 -20 320 3 208 45 c 0
 108 82 53 125 53 251 c 0
 53 421 180 573 348 712 c 1
 320 711 287 711 239 711 c 2
 46 711 l 1
 49 732 l 1
 372 732 l 1
EndSplineSet
EndChar

StartChar: uni03B7
Encoding: 951 951 388
Width: 583
Flags: W
LayerCount: 2
Fore
SplineSet
331 529 m 0
 426 529 470 471 470 369 c 2
 470 -196 l 1
 448 -192 l 1
 448 367 l 2
 448 461 410 509 331 509 c 0
 247 509 190 459 141 384 c 1
 141 0 l 1
 119 0 l 1
 119 363 l 2
 119 433 110 481 98 520 c 1
 118 523 l 1
 131 490 137 450 139 410 c 1
 185 481 248 529 331 529 c 0
EndSplineSet
EndChar

StartChar: uni03B8
Encoding: 952 952 389
Width: 552
Flags: W
LayerCount: 2
Fore
SplineSet
278 737 m 0
 412 737 479 613 479 369 c 0
 479 112 414 -10 274 -10 c 0
 138 -10 73 111 73 368 c 0
 73 617 146 737 278 737 c 0
278 716 m 0
 159 716 98 608 96 379 c 1
 456 379 l 1
 455 607 396 716 278 716 c 0
274 11 m 0
 396 11 454 121 456 359 c 1
 96 359 l 1
 96 124 156 11 274 11 c 0
EndSplineSet
EndChar

StartChar: uni03B9
Encoding: 953 953 390
Width: 256
Flags: W
LayerCount: 2
Fore
SplineSet
135 519 m 1
 135 106 l 2
 135 50 148 29 185 14 c 1
 178 -5 l 1
 129 14 113 42 113 106 c 2
 113 519 l 1
 135 519 l 1
EndSplineSet
EndChar

StartChar: uni03BA
Encoding: 954 954 391
Width: 479
Flags: W
LayerCount: 2
Fore
SplineSet
433 517 m 1
 176 267 l 1
 408 45 l 2
 429 25 440 15 461 10 c 1
 454 -7 l 1
 429 -3 416 9 392 32 c 2
 148 267 l 1
 415 527 l 1
 433 517 l 1
119 523 m 1
 131 484 141 446 141 361 c 2
 141 0 l 1
 119 0 l 1
 119 363 l 2
 119 433 110 481 98 520 c 1
 119 523 l 1
EndSplineSet
EndChar

StartChar: uni03BB
Encoding: 955 955 392
Width: 458
Flags: W
LayerCount: 2
Fore
SplineSet
88 736 m 1
 200 709 231 646 258 511 c 0
 326 167 389 90 455 4 c 1
 434 -5 l 1
 368 82 306 162 239 497 c 1
 64 -5 l 1
 43 0 l 1
 226 519 l 1
 236 519 l 1
 211 634 184 694 85 719 c 1
 88 736 l 1
EndSplineSet
EndChar

StartChar: uni03BC
Encoding: 956 956 393
Width: 582
Flags: W
LayerCount: 2
Fore
SplineSet
485 -3 m 1
 465 -5 l 1
 449 38 441 69 438 123 c 1
 400 49 345 -10 258 -10 c 0
 191 -10 152 22 136 74 c 1
 139 21 140 -16 140 -64 c 2
 140 -192 l 1
 118 -194 l 1
 118 519 l 1
 140 519 l 1
 140 142 l 2
 140 45 196 11 258 11 c 0
 337 11 394 68 434 152 c 1
 434 519 l 1
 456 519 l 1
 456 170 l 2
 456 97 467 47 485 -3 c 1
EndSplineSet
EndChar

StartChar: uni03BD
Encoding: 957 957 394
Width: 440
Flags: W
LayerCount: 2
Fore
SplineSet
39 524 m 1
 94 453 152 313 217 19 c 1
 396 523 l 1
 418 518 l 1
 229 0 l 1
 203 0 l 1
 135 297 77 439 18 517 c 1
 39 524 l 1
EndSplineSet
EndChar

StartChar: uni03BE
Encoding: 958 958 395
Width: 411
Flags: W
LayerCount: 2
Fore
SplineSet
266 735 m 0
 331 735 371 718 413 691 c 1
 402 674 l 1
 361 700 326 714 268 714 c 0
 170 714 125 656 125 582 c 0
 125 501 179 452 272 452 c 2
 326 452 l 1
 323 432 l 1
 267 432 l 2
 147 432 86 357 86 259 c 0
 86 148 135 114 253 69 c 0
 364 27 396 -4 396 -62 c 0
 396 -120 357 -160 280 -196 c 1
 270 -180 l 1
 331 -151 373 -118 373 -62 c 0
 373 -16 353 9 243 52 c 0
 131 95 63 128 63 259 c 0
 63 377 139 437 224 443 c 1
 148 456 103 502 103 582 c 0
 103 672 165 735 266 735 c 0
EndSplineSet
EndChar

StartChar: uni03BF
Encoding: 959 959 396
Width: 560
Flags: W
LayerCount: 2
Fore
SplineSet
281 529 m 0
 408 529 488 434 488 262 c 0
 488 89 406 -10 280 -10 c 0
 151 -10 73 91 73 259 c 0
 73 431 156 529 281 529 c 0
281 509 m 0
 169 509 96 422 96 259 c 0
 96 101 165 11 280 11 c 0
 393 11 465 99 465 262 c 0
 465 421 396 509 281 509 c 0
EndSplineSet
EndChar

StartChar: uni03C0
Encoding: 960 960 397
Width: 575
Flags: W
LayerCount: 2
Fore
SplineSet
519 498 m 1
 434 498 l 1
 434 106 l 2
 434 50 448 29 484 14 c 1
 478 -5 l 1
 428 14 412 42 412 106 c 2
 412 498 l 1
 163 498 l 1
 163 0 l 1
 141 0 l 1
 141 498 l 1
 113 498 l 2
 79 498 65 497 43 489 c 1
 37 508 l 1
 59 517 78 519 110 519 c 2
 519 519 l 1
 519 498 l 1
EndSplineSet
EndChar

StartChar: uni03C1
Encoding: 961 961 398
Width: 559
Flags: W
LayerCount: 2
Fore
SplineSet
295 529 m 0
 416 529 481 427 481 264 c 0
 481 82 405 -10 293 -10 c 0
 220 -10 165 29 130 85 c 1
 130 -192 l 1
 108 -196 l 1
 108 298 l 2
 108 431 168 529 295 529 c 0
292 11 m 0
 392 11 458 94 458 264 c 0
 458 421 401 509 294 509 c 0
 185 509 130 425 130 295 c 2
 130 116 l 1
 166 50 221 11 292 11 c 0
EndSplineSet
EndChar

StartChar: uni03C2
Encoding: 962 962 399
Width: 451
Flags: W
LayerCount: 2
Fore
SplineSet
283 529 m 0
 339 529 379 514 418 479 c 1
 405 465 l 1
 372 493 335 509 284 509 c 0
 174 509 96 420 96 267 c 0
 96 145 151 94 263 54 c 0
 358 20 393 -4 393 -61 c 0
 393 -120 354 -160 277 -196 c 1
 268 -180 l 1
 328 -151 370 -118 370 -62 c 0
 370 -17 348 2 250 37 c 0
 135 78 73 135 73 267 c 0
 73 426 156 529 283 529 c 0
EndSplineSet
EndChar

StartChar: uni03C3
Encoding: 963 963 400
Width: 567
Flags: W
LayerCount: 2
Fore
SplineSet
506 519 m 1
 506 501 l 1
 366 508 l 1
 438 470 488 387 488 262 c 0
 488 89 406 -10 280 -10 c 0
 151 -10 73 91 73 259 c 0
 73 419 146 527 319 527 c 0
 371 527 446 523 506 519 c 1
465 262 m 0
 465 390 411 472 333 510 c 1
 330 510 l 2
 161 511 96 414 96 259 c 0
 96 102 165 11 280 11 c 0
 393 11 465 100 465 262 c 0
EndSplineSet
EndChar

StartChar: uni03C4
Encoding: 964 964 401
Width: 436
Flags: W
LayerCount: 2
Fore
SplineSet
420 498 m 1
 222 498 l 1
 222 106 l 2
 222 50 236 29 272 14 c 1
 266 -5 l 1
 216 14 200 42 200 106 c 2
 200 498 l 1
 83 498 l 2
 50 498 36 497 14 489 c 1
 8 508 l 1
 29 517 48 519 80 519 c 2
 420 519 l 1
 420 498 l 1
EndSplineSet
EndChar

StartChar: uni03C5
Encoding: 965 965 402
Width: 557
Flags: W
LayerCount: 2
Fore
SplineSet
437 519 m 1
 450 445 464 358 464 266 c 0
 464 72 377 -10 270 -10 c 0
 181 -10 113 45 113 155 c 2
 113 519 l 1
 135 519 l 1
 135 156 l 2
 135 55 194 11 270 11 c 0
 358 11 441 75 441 266 c 0
 441 358 428 445 415 519 c 1
 437 519 l 1
EndSplineSet
EndChar

StartChar: uni03C6
Encoding: 966 966 403
Width: 703
Flags: W
LayerCount: 2
Fore
SplineSet
626 264 m 0
 626 76 555 -3 359 -10 c 1
 359 -192 l 1
 337 -196 l 1
 337 -10 l 1
 167 0 88 70 88 244 c 0
 88 360 116 448 144 519 c 1
 166 519 l 1
 140 454 111 363 111 244 c 0
 111 73 189 19 337 10 c 1
 337 355 l 2
 337 479 389 529 473 529 c 0
 567 529 626 464 626 264 c 0
359 10 m 1
 530 16 603 80 603 264 c 0
 603 448 557 510 473 510 c 0
 405 510 359 474 359 350 c 2
 359 10 l 1
EndSplineSet
EndChar

StartChar: uni03C7
Encoding: 967 967 404
Width: 419
Flags: W
LayerCount: 2
Fore
SplineSet
220 182 m 1
 402 -188 l 1
 382 -194 l 1
 209 163 l 1
 37 -194 l 1
 15 -191 l 1
 198 183 l 1
 115 377 69 451 11 516 c 1
 33 524 l 1
 88 460 132 389 209 201 c 1
 357 521 l 1
 381 519 l 1
 220 182 l 1
EndSplineSet
EndChar

StartChar: uni03C8
Encoding: 968 968 405
Width: 733
Flags: W
LayerCount: 2
Fore
SplineSet
640 274 m 0
 640 69 548 -2 377 -10 c 1
 377 -192 l 1
 355 -196 l 1
 355 -10 l 1
 191 -8 103 59 103 199 c 2
 104 519 l 1
 126 519 l 1
 125 198 l 2
 125 71 203 13 355 11 c 1
 355 519 l 1
 377 519 l 1
 377 11 l 1
 536 16 617 83 617 273 c 0
 617 363 608 429 591 519 c 1
 614 519 l 1
 631 429 640 363 640 274 c 0
EndSplineSet
EndChar

StartChar: uni03C9
Encoding: 969 969 406
Width: 767
Flags: W
LayerCount: 2
Fore
SplineSet
627 519 m 1
 651 459 680 356 680 235 c 0
 680 40 596 -10 516 -10 c 0
 443 -10 391 31 384 125 c 1
 372 31 320 -10 250 -10 c 0
 157 -10 88 58 88 236 c 0
 88 356 116 450 143 519 c 1
 166 519 l 1
 134 437 111 341 111 235 c 0
 111 61 179 11 249 11 c 0
 316 11 372 53 372 177 c 2
 372 350 l 1
 395 354 l 1
 395 176 l 2
 395 51 450 11 514 11 c 0
 584 11 657 54 657 233 c 0
 657 341 633 437 604 519 c 1
 627 519 l 1
EndSplineSet
EndChar

StartChar: uni03CA
Encoding: 970 970 407
Width: 256
Flags: W
LayerCount: 2
Fore
SplineSet
41 712 m 0
 53 712 61 703 61 692 c 0
 61 681 53 673 41 673 c 0
 29 673 21 681 21 692 c 0
 21 703 29 712 41 712 c 0
207 712 m 0
 219 712 226 703 226 692 c 0
 226 681 219 673 207 673 c 0
 194 673 186 681 186 692 c 0
 186 703 194 712 207 712 c 0
135 519 m 1
 135 106 l 2
 135 50 148 29 185 14 c 1
 178 -5 l 1
 129 14 113 42 113 106 c 2
 113 519 l 1
 135 519 l 1
EndSplineSet
EndChar

StartChar: uni03CB
Encoding: 971 971 408
Width: 557
Flags: W
LayerCount: 2
Fore
SplineSet
192 712 m 0
 204 712 212 703 212 692 c 0
 212 681 204 673 192 673 c 0
 180 673 172 681 172 692 c 0
 172 703 180 712 192 712 c 0
358 712 m 0
 370 712 377 703 377 692 c 0
 377 681 370 673 358 673 c 0
 345 673 337 681 337 692 c 0
 337 703 345 712 358 712 c 0
437 519 m 1
 450 445 464 358 464 266 c 0
 464 72 377 -10 270 -10 c 0
 181 -10 113 45 113 155 c 2
 113 519 l 1
 135 519 l 1
 135 156 l 2
 135 55 194 11 270 11 c 0
 358 11 441 75 441 266 c 0
 441 358 428 445 415 519 c 1
 437 519 l 1
EndSplineSet
EndChar

StartChar: uni03CC
Encoding: 972 972 409
Width: 560
Flags: W
LayerCount: 2
Fore
SplineSet
273 735 m 1
 300 733 l 1
 288 603 l 1
 273 603 l 1
 273 735 l 1
281 529 m 0
 408 529 488 434 488 262 c 0
 488 89 406 -10 280 -10 c 0
 151 -10 73 91 73 259 c 0
 73 431 156 529 281 529 c 0
281 509 m 0
 169 509 96 422 96 259 c 0
 96 101 165 11 280 11 c 0
 393 11 465 99 465 262 c 0
 465 421 396 509 281 509 c 0
EndSplineSet
EndChar

StartChar: uni03CD
Encoding: 973 973 410
Width: 557
Flags: W
LayerCount: 2
Fore
SplineSet
267 735 m 1
 294 733 l 1
 282 603 l 1
 267 603 l 1
 267 735 l 1
437 519 m 1
 450 445 464 358 464 266 c 0
 464 72 377 -10 270 -10 c 0
 181 -10 113 45 113 155 c 2
 113 519 l 1
 135 519 l 1
 135 156 l 2
 135 55 194 11 270 11 c 0
 358 11 441 75 441 266 c 0
 441 358 428 445 415 519 c 1
 437 519 l 1
EndSplineSet
EndChar

StartChar: uni03CE
Encoding: 974 974 411
Width: 767
Flags: W
LayerCount: 2
Fore
SplineSet
379 735 m 1
 406 733 l 1
 394 603 l 1
 379 603 l 1
 379 735 l 1
627 519 m 1
 651 459 680 356 680 235 c 0
 680 40 596 -10 516 -10 c 0
 443 -10 391 31 384 125 c 1
 372 31 320 -10 250 -10 c 0
 157 -10 88 58 88 236 c 0
 88 356 116 450 143 519 c 1
 166 519 l 1
 134 437 111 341 111 235 c 0
 111 61 179 11 249 11 c 0
 316 11 372 53 372 177 c 2
 372 350 l 1
 395 354 l 1
 395 176 l 2
 395 51 450 11 514 11 c 0
 584 11 657 54 657 233 c 0
 657 341 633 437 604 519 c 1
 627 519 l 1
EndSplineSet
EndChar

StartChar: uni03D0
Encoding: 976 976 412
Width: 569
Flags: W
LayerCount: 2
Fore
SplineSet
311 423 m 0
 422 423 501 359 501 223 c 0
 501 82 414 -10 293 -10 c 0
 145 -10 73 110 73 351 c 0
 73 615 209 737 337 737 c 0
 412 737 463 685 463 617 c 0
 463 522 408 472 264 418 c 1
 276 420 293 423 311 423 c 0
335 716 m 0
 228 716 101 622 96 365 c 1
 179 397 l 2
 409 486 439 536 440 617 c 0
 440 672 403 716 335 716 c 0
294 11 m 0
 403 11 478 91 478 222 c 0
 478 343 407 406 310 406 c 0
 259 406 224 395 179 377 c 2
 96 344 l 1
 97 119 158 11 294 11 c 0
EndSplineSet
EndChar

StartChar: uni03D1
Encoding: 977 977 413
Width: 528
Flags: W
LayerCount: 2
Fore
SplineSet
499 440 m 1
 499 419 l 1
 456 419 l 1
 456 401 l 2
 456 118 379 -10 235 -10 c 0
 145 -10 84 45 84 155 c 2
 84 338 l 1
 106 338 l 1
 106 156 l 2
 106 55 161 11 235 11 c 0
 366 11 433 131 433 401 c 2
 433 419 l 1
 268 419 l 2
 126 419 66 480 66 576 c 0
 66 662 127 737 235 737 c 0
 375 737 447 624 455 440 c 1
 499 440 l 1
268 440 m 2
 432 440 l 1
 424 613 362 716 235 716 c 0
 140 716 88 653 88 576 c 0
 88 491 140 440 268 440 c 2
EndSplineSet
EndChar

StartChar: uni03D2
Encoding: 978 978 414
Width: 514
Flags: W
LayerCount: 2
Fore
SplineSet
237 0 m 1
 237 270 l 1
 21 681 l 1
 47 681 l 1
 249 290 l 1
 399 614 l 2
 424 667 450 691 495 691 c 0
 532 691 555 675 576 654 c 1
 565 641 l 1
 543 660 526 672 495 672 c 0
 460 672 442 656 417 604 c 2
 260 270 l 1
 260 0 l 1
 237 0 l 1
EndSplineSet
EndChar

StartChar: uni03D5
Encoding: 981 981 415
Width: 619
Flags: W
LayerCount: 2
Fore
SplineSet
561 261 m 0
 561 107 479 12 321 7 c 1
 321 -192 l 1
 299 -196 l 1
 299 7 l 1
 145 11 58 106 58 260 c 0
 58 409 140 508 299 512 c 1
 299 733 l 1
 321 736 l 1
 321 512 l 1
 475 508 561 414 561 261 c 0
320 27 m 1
 461 31 538 113 538 261 c 0
 538 405 458 489 320 493 c 1
 320 27 l 1
81 260 m 0
 81 114 161 31 299 27 c 1
 299 493 l 1
 157 487 81 403 81 260 c 0
EndSplineSet
EndChar

StartChar: uni03D6
Encoding: 982 982 416
Width: 728
Flags: W
LayerCount: 2
Fore
SplineSet
660 519 m 1
 660 499 l 1
 555 499 l 1
 601 437 640 341 640 215 c 0
 640 42 561 -10 490 -10 c 0
 421 -10 371 31 364 125 c 1
 352 31 301 -10 237 -10 c 0
 152 -10 88 60 88 216 c 0
 88 343 126 432 175 499 c 1
 143 499 l 2
 109 499 95 497 73 490 c 1
 67 508 l 1
 89 517 98 519 140 519 c 2
 660 519 l 1
617 213 m 0
 617 331 582 421 531 499 c 1
 199 499 l 1
 146 421 111 331 111 215 c 0
 111 62 174 11 235 11 c 0
 297 11 352 53 352 177 c 2
 352 310 l 1
 375 314 l 1
 375 176 l 2
 375 51 429 11 489 11 c 0
 549 11 617 55 617 213 c 0
EndSplineSet
EndChar

StartChar: uni03D7
Encoding: 983 983 417
Width: 588
Flags: W
LayerCount: 2
Fore
SplineSet
467 105 m 2
 467 49 480 28 516 14 c 1
 516 -86 l 2
 516 -160 476 -197 417 -197 c 0
 377 -197 349 -182 331 -169 c 1
 342 -154 l 1
 361 -166 383 -177 417 -177 c 0
 461 -177 494 -152 494 -86 c 2
 494 2 l 1
 457 21 445 49 445 105 c 0
 445 237 446 453 447 495 c 1
 147 -6 l 1
 121 0 l 1
 121 413 l 2
 121 469 108 491 71 505 c 1
 78 524 l 1
 127 506 143 478 143 413 c 0
 143 281 143 67 142 24 c 1
 442 526 l 1
 467 519 l 1
 467 105 l 2
EndSplineSet
EndChar

StartChar: uni03F0
Encoding: 1008 1008 418
Width: 589
Flags: W
LayerCount: 2
Fore
SplineSet
467 105 m 2
 467 49 480 28 517 13 c 1
 510 -6 l 1
 461 13 445 41 445 105 c 0
 445 237 446 453 447 495 c 1
 147 -6 l 1
 121 0 l 1
 121 413 l 2
 121 469 108 491 71 505 c 1
 78 524 l 1
 127 506 143 478 143 413 c 0
 143 281 143 67 142 24 c 1
 442 526 l 1
 467 519 l 1
 467 105 l 2
EndSplineSet
EndChar

StartChar: uni03F1
Encoding: 1009 1009 419
Width: 559
Flags: W
LayerCount: 2
Fore
SplineSet
276 -117 m 0
 373 -132 401 -153 419 -190 c 1
 397 -197 l 1
 379 -164 356 -151 267 -136 c 0
 152 -118 108 -80 108 15 c 2
 108 298 l 2
 108 431 168 529 295 529 c 0
 416 529 481 427 481 280 c 0
 481 113 405 22 293 22 c 0
 220 22 164 61 130 117 c 1
 130 14 l 2
 130 -69 169 -100 276 -117 c 0
294 509 m 0
 185 509 130 425 130 295 c 2
 130 148 l 1
 166 82 221 43 292 43 c 0
 392 43 458 126 458 280 c 0
 458 421 401 509 294 509 c 0
EndSplineSet
EndChar

StartChar: uni03F2
Encoding: 1010 1010 420
Width: 504
Flags: W
LayerCount: 2
Fore
SplineSet
303 529 m 0
 369 529 409 514 458 479 c 1
 445 464 l 1
 403 493 365 509 304 509 c 0
 184 509 96 420 96 257 c 0
 96 95 185 11 303 11 c 0
 367 11 407 30 451 59 c 1
 463 44 l 1
 417 12 372 -10 304 -10 c 0
 169 -10 73 87 73 257 c 0
 73 426 166 529 303 529 c 0
EndSplineSet
EndChar

StartChar: uni03F4
Encoding: 1012 1012 421
Width: 689
Flags: W
LayerCount: 2
Fore
SplineSet
344 691 m 0
 505 691 611 569 611 339 c 0
 611 118 511 -10 344 -10 c 0
 185 -10 78 115 78 338 c 0
 78 563 187 691 344 691 c 0
344 670 m 0
 204 670 107 561 101 357 c 1
 588 357 l 1
 583 563 488 670 344 670 c 0
344 12 m 0
 498 12 587 126 588 337 c 1
 101 337 l 1
 101 126 199 12 344 12 c 0
EndSplineSet
EndChar

StartChar: uni03F5
Encoding: 1013 1013 422
Width: 473
Flags: W
LayerCount: 2
Fore
SplineSet
414 58 m 1
 425 41 l 1
 386 12 341 -10 280 -10 c 0
 158 -10 73 87 73 263 c 0
 73 428 160 529 286 529 c 0
 339 529 379 514 422 480 c 1
 409 463 l 1
 371 494 335 509 286 509 c 0
 180 509 102 427 96 278 c 1
 363 278 l 1
 363 258 l 1
 96 258 l 1
 97 94 176 11 280 11 c 0
 337 11 373 29 414 58 c 1
EndSplineSet
EndChar

StartChar: uni03F6
Encoding: 1014 1014 423
Width: 467
Flags: W
LayerCount: 2
Fore
SplineSet
216 529 m 0
 325 529 394 457 394 265 c 0
 394 92 327 -10 204 -10 c 0
 132 -10 87 16 48 48 c 1
 60 64 l 1
 95 35 137 10 201 10 c 0
 315 10 371 100 372 259 c 1
 119 259 l 1
 119 279 l 1
 372 279 l 1
 368 451 305 509 217 509 c 0
 158 509 117 490 77 460 c 1
 66 476 l 1
 108 509 154 529 216 529 c 0
EndSplineSet
EndChar

StartChar: uni0400
Encoding: 1024 1024 424
Width: 494
Flags: W
LayerCount: 2
Fore
SplineSet
208 861 m 1
 382 779 l 1
 375 764 l 1
 196 838 l 1
 208 861 l 1
444 681 m 1
 441 660 l 1
 146 660 l 1
 146 370 l 1
 400 370 l 1
 400 349 l 1
 146 349 l 1
 146 21 l 1
 451 21 l 1
 451 0 l 1
 123 0 l 1
 123 681 l 1
 444 681 l 1
EndSplineSet
EndChar

StartChar: uni0401
Encoding: 1025 1025 425
Width: 494
Flags: W
LayerCount: 2
Fore
SplineSet
204 838 m 0
 216 838 224 829 224 818 c 0
 224 807 216 799 204 799 c 0
 192 799 184 807 184 818 c 0
 184 829 192 838 204 838 c 0
370 838 m 0
 382 838 389 829 389 818 c 0
 389 807 382 799 370 799 c 0
 357 799 349 807 349 818 c 0
 349 829 357 838 370 838 c 0
444 681 m 1
 441 660 l 1
 146 660 l 1
 146 370 l 1
 400 370 l 1
 400 349 l 1
 146 349 l 1
 146 21 l 1
 451 21 l 1
 451 0 l 1
 123 0 l 1
 123 681 l 1
 444 681 l 1
EndSplineSet
EndChar

StartChar: uni0402
Encoding: 1026 1026 426
Width: 688
Flags: W
LayerCount: 2
Fore
SplineSet
447 420 m 0
 569 420 626 349 626 243 c 2
 626 87 l 2
 626 -13 604 -53 495 -100 c 1
 488 -83 l 1
 582 -40 604 -4 604 89 c 2
 604 242 l 2
 604 333 558 399 446 399 c 0
 364 399 305 364 249 293 c 1
 249 0 l 1
 226 0 l 1
 226 659 l 1
 16 659 l 1
 16 681 l 1
 463 681 l 1
 459 659 l 1
 249 659 l 1
 249 323 l 1
 300 384 360 420 447 420 c 0
EndSplineSet
EndChar

StartChar: uni0403
Encoding: 1027 1027 427
Width: 512
Flags: W
LayerCount: 2
Fore
SplineSet
421 838 m 1
 242 764 l 1
 235 779 l 1
 410 861 l 1
 421 838 l 1
499 681 m 1
 495 659 l 1
 146 659 l 1
 146 0 l 1
 123 0 l 1
 123 681 l 1
 499 681 l 1
EndSplineSet
EndChar

StartChar: uni0404
Encoding: 1028 1028 428
Width: 538
Flags: W
LayerCount: 2
Fore
SplineSet
499 71 m 1
 513 54 l 1
 469 17 419 -10 341 -10 c 0
 189 -10 78 111 78 348 c 0
 78 577 195 691 344 691 c 0
 419 691 463 668 505 633 c 1
 492 617 l 1
 449 651 411 670 346 670 c 0
 212 670 107 575 101 367 c 1
 386 367 l 1
 386 345 l 1
 101 345 l 1
 102 121 205 12 342 12 c 0
 417 12 457 37 499 71 c 1
EndSplineSet
EndChar

StartChar: uni0405
Encoding: 1029 1029 429
Width: 536
Flags: W
LayerCount: 2
Fore
SplineSet
265 691 m 0
 348 691 397 664 445 622 c 1
 430 605 l 1
 383 649 336 670 265 670 c 0
 166 670 103 613 103 534 c 0
 103 451 148 417 274 378 c 0
 407 337 466 293 466 182 c 0
 466 68 381 -10 258 -10 c 0
 168 -10 108 23 54 72 c 1
 69 87 l 1
 118 42 171 12 257 12 c 0
 369 12 444 78 444 181 c 0
 444 281 393 318 266 358 c 0
 128 401 80 443 80 534 c 0
 80 623 153 691 265 691 c 0
EndSplineSet
EndChar

StartChar: uni0406
Encoding: 1030 1030 430
Width: 268
Flags: W
LayerCount: 2
Fore
SplineSet
146 681 m 1
 146 0 l 1
 123 0 l 1
 123 681 l 1
 146 681 l 1
EndSplineSet
EndChar

StartChar: uni0407
Encoding: 1031 1031 431
Width: 268
Flags: W
LayerCount: 2
Fore
SplineSet
51 838 m 0
 63 838 71 829 71 818 c 0
 71 807 63 799 51 799 c 0
 39 799 31 807 31 818 c 0
 31 829 39 838 51 838 c 0
217 838 m 0
 229 838 236 829 236 818 c 0
 236 807 229 799 217 799 c 0
 204 799 196 807 196 818 c 0
 196 829 204 838 217 838 c 0
146 681 m 1
 146 0 l 1
 123 0 l 1
 123 681 l 1
 146 681 l 1
EndSplineSet
EndChar

StartChar: uni0408
Encoding: 1032 1032 432
Width: 277
Flags: W
LayerCount: 2
Fore
SplineSet
161 681 m 1
 161 87 l 2
 161 -13 138 -53 30 -100 c 1
 23 -83 l 1
 116 -40 138 -4 138 89 c 2
 138 681 l 1
 161 681 l 1
EndSplineSet
EndChar

StartChar: uni0409
Encoding: 1033 1033 433
Width: 883
Flags: W
LayerCount: 2
Fore
SplineSet
608 401 m 2
 750 401 834 337 834 208 c 0
 834 66 743 0 610 0 c 2
 465 0 l 1
 465 660 l 1
 205 660 l 1
 161 291 l 2
 135 69 133 25 53 -5 c 1
 47 15 l 1
 110 39 113 76 138 293 c 2
 184 681 l 1
 488 681 l 1
 488 401 l 1
 608 401 l 2
613 21 m 2
 732 21 810 80 810 209 c 0
 810 324 736 380 611 380 c 2
 488 380 l 1
 488 21 l 1
 613 21 l 2
EndSplineSet
EndChar

StartChar: uni040A
Encoding: 1034 1034 434
Width: 922
Flags: W
LayerCount: 2
Fore
SplineSet
657 383 m 2
 787 383 873 323 873 198 c 0
 873 63 782 0 658 0 c 2
 505 0 l 1
 505 361 l 1
 146 361 l 1
 146 0 l 1
 123 0 l 1
 123 681 l 1
 146 681 l 1
 146 383 l 1
 505 383 l 1
 505 681 l 1
 528 681 l 1
 528 383 l 1
 657 383 l 2
664 21 m 2
 774 21 850 78 850 199 c 0
 850 310 773 361 660 361 c 2
 528 361 l 1
 528 21 l 1
 664 21 l 2
EndSplineSet
EndChar

StartChar: uni040B
Encoding: 1035 1035 435
Width: 688
Flags: W
LayerCount: 2
Fore
SplineSet
447 420 m 0
 569 420 626 349 626 243 c 2
 626 0 l 1
 604 0 l 1
 604 242 l 2
 604 333 558 399 446 399 c 0
 364 399 305 364 249 293 c 1
 249 0 l 1
 226 0 l 1
 226 659 l 1
 16 659 l 1
 16 681 l 1
 463 681 l 1
 459 659 l 1
 249 659 l 1
 249 323 l 1
 300 384 360 420 447 420 c 0
EndSplineSet
EndChar

StartChar: uni040C
Encoding: 1036 1036 436
Width: 536
Flags: W
LayerCount: 2
Fore
SplineSet
386 861 m 1
 397 838 l 1
 218 764 l 1
 211 779 l 1
 386 861 l 1
500 681 m 1
 288 361 l 1
 516 0 l 1
 489 0 l 1
 268 350 l 1
 146 350 l 1
 146 0 l 1
 123 0 l 1
 123 681 l 1
 146 681 l 1
 146 370 l 1
 269 370 l 1
 475 681 l 1
 500 681 l 1
EndSplineSet
EndChar

StartChar: uni040D
Encoding: 1037 1037 437
Width: 661
Flags: W
LayerCount: 2
Fore
SplineSet
254 861 m 1
 428 779 l 1
 421 764 l 1
 242 838 l 1
 254 861 l 1
538 681 m 1
 538 0 l 1
 515 0 l 1
 515 456 l 2
 515 531 515 601 518 656 c 1
 150 0 l 1
 123 0 l 1
 123 681 l 1
 146 681 l 1
 146 219 l 2
 146 154 144 72 143 26 c 1
 511 681 l 1
 538 681 l 1
EndSplineSet
EndChar

StartChar: uni040E
Encoding: 1038 1038 438
Width: 496
Flags: W
LayerCount: 2
Fore
SplineSet
258 771 m 0
 200 771 160 799 150 840 c 1
 166 844 l 1
 178 809 211 792 258 792 c 0
 305 792 338 809 350 844 c 1
 366 840 l 1
 357 799 317 771 258 771 c 0
485 681 m 1
 277 194 l 2
 214 46 201 19 105 -9 c 1
 99 9 l 1
 181 34 196 54 255 194 c 1
 250 194 l 1
 16 681 l 1
 41 681 l 1
 264 213 l 1
 461 681 l 1
 485 681 l 1
EndSplineSet
EndChar

StartChar: uni040F
Encoding: 1039 1039 439
Width: 653
Flags: W
LayerCount: 2
Fore
SplineSet
530 681 m 1
 530 0 l 1
 338 0 l 1
 338 -138 l 1
 321 -138 l 1
 314 0 l 1
 123 0 l 1
 123 681 l 1
 146 681 l 1
 146 21 l 1
 507 21 l 1
 507 681 l 1
 530 681 l 1
EndSplineSet
EndChar

StartChar: uni0410
Encoding: 1040 1040 440
Width: 557
Flags: W
LayerCount: 2
Fore
SplineSet
505 0 m 1
 436 203 l 1
 120 203 l 1
 51 0 l 1
 28 0 l 1
 265 681 l 1
 292 681 l 1
 530 0 l 1
 505 0 l 1
128 224 m 1
 429 224 l 1
 278 663 l 1
 128 224 l 1
EndSplineSet
EndChar

StartChar: uni0411
Encoding: 1041 1041 441
Width: 562
Flags: W
LayerCount: 2
Fore
SplineSet
276 405 m 2
 418 405 501 340 501 211 c 0
 501 66 411 0 277 0 c 2
 123 0 l 1
 123 681 l 1
 439 681 l 1
 434 660 l 1
 146 660 l 1
 146 405 l 1
 276 405 l 2
283 21 m 2
 402 21 478 80 478 211 c 0
 478 329 404 384 278 384 c 2
 146 384 l 1
 146 21 l 1
 283 21 l 2
EndSplineSet
EndChar

StartChar: uni0412
Encoding: 1042 1042 442
Width: 587
Flags: W
LayerCount: 2
Fore
SplineSet
362 361 m 1
 450 356 525 301 525 184 c 0
 525 61 438 0 299 0 c 2
 123 0 l 1
 123 681 l 1
 264 681 l 2
 408 681 490 624 490 513 c 0
 490 424 438 374 362 361 c 1
267 660 m 2
 146 660 l 1
 146 370 l 1
 316 370 l 2
 406 370 467 427 467 512 c 0
 467 611 396 660 267 660 c 2
300 21 m 2
 422 21 502 71 502 184 c 0
 502 294 426 350 321 350 c 2
 146 350 l 1
 146 21 l 1
 300 21 l 2
EndSplineSet
EndChar

StartChar: uni0413
Encoding: 1043 1043 443
Width: 512
Flags: W
LayerCount: 2
Fore
SplineSet
499 681 m 1
 495 659 l 1
 146 659 l 1
 146 0 l 1
 123 0 l 1
 123 681 l 1
 499 681 l 1
EndSplineSet
EndChar

StartChar: uni0414
Encoding: 1044 1044 444
Width: 591
Flags: W
LayerCount: 2
Fore
SplineSet
468 21 m 1
 514 21 l 1
 514 -138 l 1
 498 -138 l 1
 490 0 l 1
 21 0 l 1
 13 -138 l 1
 -4 -138 l 1
 -4 21 l 1
 36 21 l 1
 81 62 110 114 142 374 c 2
 180 681 l 1
 468 681 l 1
 468 21 l 1
445 21 m 1
 445 660 l 1
 200 660 l 1
 165 375 l 2
 133 122 105 63 59 21 c 1
 445 21 l 1
EndSplineSet
EndChar

StartChar: uni0415
Encoding: 1045 1045 445
Width: 494
Flags: W
LayerCount: 2
Fore
SplineSet
444 681 m 1
 441 660 l 1
 146 660 l 1
 146 370 l 1
 400 370 l 1
 400 349 l 1
 146 349 l 1
 146 21 l 1
 451 21 l 1
 451 0 l 1
 123 0 l 1
 123 681 l 1
 444 681 l 1
EndSplineSet
EndChar

StartChar: uni0416
Encoding: 1046 1046 446
Width: 729
Flags: W
LayerCount: 2
Fore
SplineSet
691 681 m 1
 502 361 l 1
 707 0 l 1
 681 0 l 1
 483 350 l 1
 375 350 l 1
 375 0 l 1
 353 0 l 1
 353 350 l 1
 246 350 l 1
 47 0 l 1
 22 0 l 1
 227 361 l 1
 37 681 l 1
 63 681 l 1
 247 370 l 1
 353 370 l 1
 353 681 l 1
 375 681 l 1
 375 370 l 1
 483 370 l 1
 667 681 l 1
 691 681 l 1
EndSplineSet
EndChar

StartChar: uni0417
Encoding: 1047 1047 447
Width: 516
Flags: W
LayerCount: 2
Fore
SplineSet
239 -10 m 0
 156 -10 91 22 33 83 c 1
 48 96 l 1
 99 44 158 12 239 12 c 0
 351 12 431 78 431 195 c 0
 431 299 361 361 243 360 c 2
 184 359 l 1
 187 380 l 1
 239 380 l 2
 338 380 409 430 409 528 c 0
 409 611 353 670 253 670 c 0
 178 670 123 640 70 593 c 1
 57 608 l 1
 114 661 173 691 253 691 c 0
 366 691 433 622 433 527 c 0
 433 432 372 384 295 371 c 1
 383 363 454 306 454 196 c 0
 454 67 364 -10 239 -10 c 0
EndSplineSet
EndChar

StartChar: uni0418
Encoding: 1048 1048 448
Width: 661
Flags: W
LayerCount: 2
Fore
SplineSet
538 681 m 1
 538 0 l 1
 515 0 l 1
 515 456 l 2
 515 531 515 601 518 656 c 1
 150 0 l 1
 123 0 l 1
 123 681 l 1
 146 681 l 1
 146 219 l 2
 146 154 144 72 143 26 c 1
 511 681 l 1
 538 681 l 1
EndSplineSet
EndChar

StartChar: uni0419
Encoding: 1049 1049 449
Width: 661
Flags: W
LayerCount: 2
Fore
SplineSet
332 771 m 0
 274 771 234 799 224 840 c 1
 240 844 l 1
 252 809 285 792 332 792 c 0
 379 792 412 809 424 844 c 1
 440 840 l 1
 431 799 391 771 332 771 c 0
538 681 m 1
 538 0 l 1
 515 0 l 1
 515 456 l 2
 515 531 515 601 518 656 c 1
 150 0 l 1
 123 0 l 1
 123 681 l 1
 146 681 l 1
 146 219 l 2
 146 154 144 72 143 26 c 1
 511 681 l 1
 538 681 l 1
EndSplineSet
EndChar

StartChar: uni041A
Encoding: 1050 1050 450
Width: 536
Flags: W
LayerCount: 2
Fore
SplineSet
500 681 m 1
 288 361 l 1
 516 0 l 1
 489 0 l 1
 268 350 l 1
 146 350 l 1
 146 0 l 1
 123 0 l 1
 123 681 l 1
 146 681 l 1
 146 370 l 1
 269 370 l 1
 475 681 l 1
 500 681 l 1
EndSplineSet
EndChar

StartChar: uni041B
Encoding: 1051 1051 451
Width: 635
Flags: W
LayerCount: 2
Fore
SplineSet
184 681 m 1
 512 681 l 1
 512 0 l 1
 490 0 l 1
 490 660 l 1
 205 660 l 1
 161 291 l 2
 135 69 133 25 53 -5 c 1
 47 15 l 1
 110 39 113 76 138 293 c 2
 184 681 l 1
EndSplineSet
EndChar

StartChar: uni041C
Encoding: 1052 1052 452
Width: 762
Flags: W
LayerCount: 2
Fore
SplineSet
609 681 m 1
 684 0 l 1
 662 0 l 1
 623 345 l 2
 611 458 596 592 589 660 c 1
 392 84 l 1
 370 84 l 1
 170 660 l 1
 165 605 148 463 137 354 c 2
 100 0 l 1
 78 0 l 1
 151 681 l 1
 185 681 l 1
 381 112 l 1
 575 681 l 1
 609 681 l 1
EndSplineSet
EndChar

StartChar: uni041D
Encoding: 1053 1053 453
Width: 660
Flags: W
LayerCount: 2
Fore
SplineSet
514 0 m 1
 514 349 l 1
 146 349 l 1
 146 0 l 1
 123 0 l 1
 123 681 l 1
 146 681 l 1
 146 371 l 1
 514 371 l 1
 514 681 l 1
 537 681 l 1
 537 0 l 1
 514 0 l 1
EndSplineSet
EndChar

StartChar: uni041E
Encoding: 1054 1054 454
Width: 689
Flags: W
LayerCount: 2
Fore
SplineSet
344 691 m 0
 505 691 611 569 611 340 c 0
 611 119 511 -10 344 -10 c 0
 185 -10 78 115 78 339 c 0
 78 563 187 691 344 691 c 0
344 670 m 0
 200 670 101 554 101 339 c 0
 101 127 199 12 344 12 c 0
 498 12 588 127 588 340 c 0
 588 557 492 670 344 670 c 0
EndSplineSet
EndChar

StartChar: uni041F
Encoding: 1055 1055 455
Width: 656
Flags: W
LayerCount: 2
Fore
SplineSet
533 681 m 1
 533 0 l 1
 511 0 l 1
 511 660 l 1
 146 660 l 1
 146 0 l 1
 123 0 l 1
 123 681 l 1
 533 681 l 1
EndSplineSet
EndChar

StartChar: uni0420
Encoding: 1056 1056 456
Width: 558
Flags: W
LayerCount: 2
Fore
SplineSet
261 681 m 2
 416 681 501 623 501 484 c 0
 501 337 401 282 256 282 c 2
 146 282 l 1
 146 0 l 1
 123 0 l 1
 123 681 l 1
 261 681 l 2
258 303 m 2
 388 303 477 348 477 483 c 0
 477 612 402 660 261 660 c 2
 146 660 l 1
 146 303 l 1
 258 303 l 2
EndSplineSet
EndChar

StartChar: uni0421
Encoding: 1057 1057 457
Width: 538
Flags: W
LayerCount: 2
Fore
SplineSet
344 691 m 0
 419 691 463 668 505 633 c 1
 492 617 l 1
 449 651 411 670 346 670 c 0
 208 670 101 570 101 340 c 0
 101 123 205 12 342 12 c 0
 419 12 461 39 499 71 c 1
 513 54 l 1
 472 19 421 -10 342 -10 c 0
 189 -10 78 113 78 340 c 0
 78 577 195 691 344 691 c 0
EndSplineSet
EndChar

StartChar: uni0422
Encoding: 1058 1058 458
Width: 476
Flags: W
LayerCount: 2
Fore
SplineSet
463 681 m 1
 459 659 l 1
 249 659 l 1
 249 0 l 1
 226 0 l 1
 226 659 l 1
 16 659 l 1
 16 681 l 1
 463 681 l 1
EndSplineSet
EndChar

StartChar: uni0423
Encoding: 1059 1059 459
Width: 496
Flags: W
LayerCount: 2
Fore
SplineSet
485 681 m 1
 277 194 l 2
 214 46 201 19 105 -9 c 1
 99 9 l 1
 181 34 196 54 255 194 c 1
 250 194 l 1
 16 681 l 1
 41 681 l 1
 264 213 l 1
 461 681 l 1
 485 681 l 1
EndSplineSet
EndChar

StartChar: uni0424
Encoding: 1060 1060 460
Width: 783
Flags: W
LayerCount: 2
Fore
SplineSet
730 349 m 0
 730 154 624 55 403 48 c 1
 403 -18 l 1
 380 -18 l 1
 380 48 l 1
 156 53 53 161 53 347 c 0
 53 542 159 640 380 648 c 1
 380 712 l 1
 403 712 l 1
 403 648 l 1
 627 643 730 535 730 349 c 0
402 68 m 1
 606 77 707 160 707 349 c 0
 707 527 608 623 402 628 c 1
 402 68 l 1
76 347 m 0
 76 169 175 72 381 68 c 1
 381 628 l 1
 177 619 76 536 76 347 c 0
EndSplineSet
EndChar

StartChar: uni0425
Encoding: 1061 1061 461
Width: 486
Flags: W
LayerCount: 2
Fore
SplineSet
254 370 m 1
 469 0 l 1
 444 0 l 1
 240 355 l 1
 41 0 l 1
 16 0 l 1
 227 369 l 1
 41 681 l 1
 67 681 l 1
 240 384 l 1
 413 681 l 1
 437 681 l 1
 254 370 l 1
EndSplineSet
EndChar

StartChar: uni0426
Encoding: 1062 1062 462
Width: 653
Flags: W
LayerCount: 2
Fore
SplineSet
530 21 m 1
 591 21 l 1
 591 -138 l 1
 574 -138 l 1
 567 0 l 1
 123 0 l 1
 123 681 l 1
 146 681 l 1
 146 21 l 1
 507 21 l 1
 507 681 l 1
 530 681 l 1
 530 21 l 1
EndSplineSet
EndChar

StartChar: uni0427
Encoding: 1063 1063 463
Width: 575
Flags: W
LayerCount: 2
Fore
SplineSet
430 681 m 1
 452 681 l 1
 452 0 l 1
 430 0 l 1
 430 318 l 1
 384 266 323 231 238 231 c 0
 129 231 53 299 53 414 c 2
 53 681 l 1
 76 681 l 1
 76 416 l 2
 76 312 141 252 241 252 c 0
 320 252 388 289 430 345 c 1
 430 681 l 1
EndSplineSet
EndChar

StartChar: uni0428
Encoding: 1064 1064 464
Width: 897
Flags: W
LayerCount: 2
Fore
SplineSet
774 682 m 1
 774 0 l 1
 123 0 l 1
 123 682 l 1
 146 682 l 1
 146 21 l 1
 437 21 l 1
 437 682 l 1
 459 682 l 1
 459 21 l 1
 751 21 l 1
 751 682 l 1
 774 682 l 1
EndSplineSet
EndChar

StartChar: uni0429
Encoding: 1065 1065 465
Width: 897
Flags: W
LayerCount: 2
Fore
SplineSet
774 21 m 1
 834 21 l 1
 834 -138 l 1
 818 -138 l 1
 810 0 l 1
 123 0 l 1
 123 682 l 1
 146 682 l 1
 146 21 l 1
 437 21 l 1
 437 682 l 1
 459 682 l 1
 459 21 l 1
 751 21 l 1
 751 682 l 1
 774 682 l 1
 774 21 l 1
EndSplineSet
EndChar

StartChar: uni042A
Encoding: 1066 1066 466
Width: 654
Flags: W
LayerCount: 2
Fore
SplineSet
380 408 m 2
 521 408 605 344 605 212 c 0
 605 66 514 0 381 0 c 2
 226 0 l 1
 226 660 l 1
 16 660 l 1
 16 681 l 1
 249 681 l 1
 249 408 l 1
 380 408 l 2
386 21 m 2
 505 21 581 80 581 213 c 0
 581 332 507 387 382 387 c 2
 249 387 l 1
 249 21 l 1
 386 21 l 2
EndSplineSet
EndChar

StartChar: uni042B
Encoding: 1067 1067 467
Width: 774
Flags: W
LayerCount: 2
Fore
SplineSet
266 408 m 2
 408 408 491 344 491 212 c 0
 491 66 400 0 267 0 c 2
 123 0 l 1
 123 681 l 1
 146 681 l 1
 146 408 l 1
 266 408 l 2
628 681 m 1
 651 681 l 1
 651 0 l 1
 628 0 l 1
 628 681 l 1
273 21 m 2
 392 21 468 80 468 213 c 0
 468 332 394 387 268 387 c 2
 146 387 l 1
 146 21 l 1
 273 21 l 2
EndSplineSet
EndChar

StartChar: uni042C
Encoding: 1068 1068 468
Width: 550
Flags: W
LayerCount: 2
Fore
SplineSet
276 408 m 2
 418 408 501 344 501 212 c 0
 501 66 411 0 277 0 c 2
 123 0 l 1
 123 681 l 1
 146 681 l 1
 146 408 l 1
 276 408 l 2
283 21 m 2
 402 21 478 80 478 213 c 0
 478 332 404 387 278 387 c 2
 146 387 l 1
 146 21 l 1
 283 21 l 2
EndSplineSet
EndChar

StartChar: uni042D
Encoding: 1069 1069 469
Width: 513
Flags: W
LayerCount: 2
Fore
SplineSet
227 691 m 0
 349 691 436 603 436 346 c 0
 436 117 360 -10 206 -10 c 0
 122 -10 70 23 25 61 c 1
 39 77 l 1
 86 40 130 12 205 12 c 0
 344 12 413 128 413 345 c 1
 119 345 l 1
 119 367 l 1
 413 367 l 1
 406 593 333 670 226 670 c 0
 158 670 113 653 54 610 c 1
 41 626 l 1
 96 669 151 691 227 691 c 0
EndSplineSet
EndChar

StartChar: uni042E
Encoding: 1070 1070 470
Width: 856
Flags: W
LayerCount: 2
Fore
SplineSet
522 691 m 0
 681 691 779 569 779 340 c 0
 779 119 686 -10 522 -10 c 0
 366 -10 267 111 265 345 c 1
 146 345 l 1
 146 0 l 1
 123 0 l 1
 123 681 l 1
 146 681 l 1
 146 366 l 1
 265 366 l 1
 271 569 371 691 522 691 c 0
522 12 m 0
 672 12 755 127 755 340 c 0
 755 557 666 670 522 670 c 0
 380 670 289 553 289 348 c 0
 289 123 380 12 522 12 c 0
EndSplineSet
EndChar

StartChar: uni042F
Encoding: 1071 1071 471
Width: 583
Flags: W
LayerCount: 2
Fore
SplineSet
313 681 m 2
 460 681 l 1
 460 0 l 1
 438 0 l 1
 438 300 l 1
 237 300 l 1
 81 0 l 1
 54 0 l 1
 213 303 l 1
 129 322 63 375 63 485 c 0
 63 608 139 681 313 681 c 2
258 322 m 2
 438 322 l 1
 438 660 l 1
 313 660 l 2
 156 660 87 599 87 485 c 0
 87 379 160 322 258 322 c 2
EndSplineSet
EndChar

StartChar: uni0430
Encoding: 1072 1072 472
Width: 524
Flags: W
LayerCount: 2
Fore
SplineSet
406 110 m 2
 406 41 419 18 453 6 c 1
 448 -10 l 1
 407 3 388 29 387 91 c 1
 350 25 296 -10 219 -10 c 0
 120 -10 63 52 63 144 c 0
 63 250 143 308 266 308 c 2
 384 308 l 1
 384 370 l 2
 384 460 351 509 252 509 c 0
 206 509 160 497 108 476 c 1
 102 495 l 1
 155 517 202 529 252 529 c 0
 362 529 406 474 406 372 c 2
 406 110 l 2
219 11 m 0
 299 11 350 51 384 118 c 1
 384 288 l 1
 270 288 l 2
 156 288 86 239 86 144 c 0
 86 62 136 11 219 11 c 0
EndSplineSet
EndChar

StartChar: uni0431
Encoding: 1073 1073 473
Width: 566
Flags: W
LayerCount: 2
Fore
SplineSet
309 489 m 0
 428 489 493 399 493 251 c 0
 493 72 416 -10 295 -10 c 0
 168 -10 87 86 87 285 c 0
 87 498 117 602 268 659 c 0
 340 686 384 705 424 733 c 1
 435 716 l 1
 400 691 352 670 277 642 c 0
 170 601 122 542 110 356 c 1
 142 422 207 489 309 489 c 0
295 11 m 0
 399 11 471 77 471 249 c 0
 471 391 412 469 308 469 c 0
 213 469 145 404 111 322 c 1
 110 283 l 2
 109 108 174 11 295 11 c 0
EndSplineSet
EndChar

StartChar: uni0432
Encoding: 1074 1074 474
Width: 535
Flags: W
LayerCount: 2
Fore
SplineSet
333 281 m 1
 413 277 463 234 463 152 c 0
 463 54 386 0 263 0 c 2
 118 0 l 1
 118 514 l 1
 159 522 210 529 263 529 c 0
 382 529 433 470 433 395 c 0
 433 330 392 290 333 281 c 1
263 510 m 0
 213 510 175 504 140 498 c 1
 140 290 l 1
 292 290 l 2
 367 290 411 329 411 395 c 0
 411 458 372 510 263 510 c 0
263 20 m 2
 368 20 440 61 440 151 c 0
 440 230 392 270 298 270 c 2
 140 270 l 1
 140 20 l 1
 263 20 l 2
EndSplineSet
EndChar

StartChar: uni0433
Encoding: 1075 1075 475
Width: 417
Flags: W
LayerCount: 2
Fore
SplineSet
140 0 m 1
 118 0 l 1
 118 519 l 1
 406 519 l 1
 403 499 l 1
 140 499 l 1
 140 0 l 1
EndSplineSet
EndChar

StartChar: uni0434
Encoding: 1076 1076 476
Width: 544
Flags: W
LayerCount: 2
Fore
SplineSet
426 21 m 1
 471 21 l 1
 471 -138 l 1
 455 -138 l 1
 447 0 l 1
 36 0 l 1
 28 -138 l 1
 11 -138 l 1
 11 21 l 1
 41 21 l 1
 90 56 119 92 133 300 c 2
 148 519 l 1
 426 519 l 1
 426 21 l 1
402 21 m 1
 402 499 l 1
 170 499 l 1
 157 302 l 2
 143 98 114 51 65 21 c 1
 402 21 l 1
EndSplineSet
EndChar

StartChar: uni0435
Encoding: 1077 1077 477
Width: 526
Flags: W
LayerCount: 2
Fore
SplineSet
461 284 m 0
 461 270 460 257 459 246 c 1
 96 246 l 1
 100 87 175 11 280 11 c 0
 342 11 382 31 427 68 c 1
 439 51 l 1
 394 13 347 -10 280 -10 c 0
 154 -10 73 87 73 255 c 0
 73 426 152 529 272 529 c 0
 400 529 461 429 461 284 c 0
439 265 m 1
 439 292 l 2
 439 418 388 509 274 509 c 0
 175 509 99 430 96 265 c 1
 439 265 l 1
EndSplineSet
EndChar

StartChar: uni0436
Encoding: 1078 1078 478
Width: 688
Flags: W
LayerCount: 2
Fore
SplineSet
612 519 m 1
 479 278 l 1
 638 0 l 1
 615 0 l 1
 461 267 l 1
 354 267 l 1
 354 0 l 1
 334 0 l 1
 334 267 l 1
 226 267 l 1
 72 0 l 1
 49 0 l 1
 209 278 l 1
 76 519 l 1
 99 519 l 1
 227 287 l 1
 334 287 l 1
 334 519 l 1
 354 519 l 1
 354 287 l 1
 461 287 l 1
 590 519 l 1
 612 519 l 1
EndSplineSet
EndChar

StartChar: uni0437
Encoding: 1079 1079 479
Width: 459
Flags: W
LayerCount: 2
Fore
SplineSet
216 529 m 0
 308 529 369 478 369 397 c 0
 369 326 326 286 253 276 c 1
 340 271 394 234 394 146 c 0
 394 46 324 -10 218 -10 c 0
 130 -10 75 22 33 60 c 1
 46 74 l 1
 88 39 136 11 217 11 c 0
 308 11 371 54 371 146 c 0
 371 230 313 265 204 265 c 2
 148 265 l 1
 150 284 l 1
 199 284 l 2
 301 284 346 329 346 397 c 0
 346 463 299 509 216 509 c 0
 148 509 108 491 59 461 c 1
 48 477 l 1
 97 510 147 529 216 529 c 0
EndSplineSet
EndChar

StartChar: uni0438
Encoding: 1080 1080 480
Width: 584
Flags: W
LayerCount: 2
Fore
SplineSet
466 519 m 1
 466 0 l 1
 444 0 l 1
 444 394 l 2
 444 430 445 459 447 492 c 1
 144 0 l 1
 118 0 l 1
 118 519 l 1
 140 519 l 1
 140 146 l 2
 140 108 140 73 138 27 c 1
 441 519 l 1
 466 519 l 1
EndSplineSet
EndChar

StartChar: uni0439
Encoding: 1081 1081 481
Width: 584
Flags: W
LayerCount: 2
Fore
SplineSet
292 662 m 0
 234 662 194 690 184 732 c 1
 200 735 l 1
 212 701 245 684 292 684 c 0
 339 684 372 701 384 735 c 1
 400 732 l 1
 391 690 351 662 292 662 c 0
466 519 m 1
 466 0 l 1
 444 0 l 1
 444 394 l 2
 444 430 445 459 447 492 c 1
 144 0 l 1
 118 0 l 1
 118 519 l 1
 140 519 l 1
 140 146 l 2
 140 108 140 73 138 27 c 1
 441 519 l 1
 466 519 l 1
EndSplineSet
EndChar

StartChar: uni043A
Encoding: 1082 1082 482
Width: 488
Flags: W
LayerCount: 2
Fore
SplineSet
419 519 m 1
 249 279 l 1
 449 0 l 1
 423 0 l 1
 230 268 l 1
 140 268 l 1
 140 0 l 1
 118 0 l 1
 118 519 l 1
 140 519 l 1
 140 287 l 1
 230 287 l 1
 394 519 l 1
 419 519 l 1
EndSplineSet
EndChar

StartChar: uni043B
Encoding: 1083 1083 483
Width: 560
Flags: W
LayerCount: 2
Fore
SplineSet
155 519 m 1
 442 519 l 1
 442 0 l 1
 420 0 l 1
 420 499 l 1
 175 499 l 1
 159 284 l 2
 142 67 138 23 59 -5 c 1
 52 14 l 1
 115 36 121 76 137 286 c 2
 155 519 l 1
EndSplineSet
EndChar

StartChar: uni043C
Encoding: 1084 1084 484
Width: 647
Flags: W
LayerCount: 2
Fore
SplineSet
524 519 m 1
 569 0 l 1
 547 0 l 1
 515 387 l 1
 507 494 l 1
 334 73 l 1
 312 73 l 1
 140 495 l 1
 138 465 136 431 132 387 c 2
 99 0 l 1
 78 0 l 1
 123 519 l 1
 150 519 l 1
 323 97 l 1
 497 519 l 1
 524 519 l 1
EndSplineSet
EndChar

StartChar: uni043D
Encoding: 1085 1085 485
Width: 582
Flags: W
LayerCount: 2
Fore
SplineSet
442 0 m 1
 442 262 l 1
 140 262 l 1
 140 0 l 1
 118 0 l 1
 118 519 l 1
 140 519 l 1
 140 282 l 1
 442 282 l 1
 442 519 l 1
 464 519 l 1
 464 0 l 1
 442 0 l 1
EndSplineSet
EndChar

StartChar: uni043E
Encoding: 1086 1086 486
Width: 560
Flags: W
LayerCount: 2
Fore
SplineSet
281 529 m 0
 408 529 488 434 488 262 c 0
 488 89 406 -10 280 -10 c 0
 151 -10 73 91 73 259 c 0
 73 431 156 529 281 529 c 0
281 509 m 0
 169 509 96 422 96 259 c 0
 96 101 165 11 280 11 c 0
 393 11 465 99 465 262 c 0
 465 421 396 509 281 509 c 0
EndSplineSet
EndChar

StartChar: uni043F
Encoding: 1087 1087 487
Width: 579
Flags: W
LayerCount: 2
Fore
SplineSet
439 0 m 1
 439 499 l 1
 140 499 l 1
 140 0 l 1
 118 0 l 1
 118 519 l 1
 461 519 l 1
 461 0 l 1
 439 0 l 1
EndSplineSet
EndChar

StartChar: uni0440
Encoding: 1088 1088 488
Width: 564
Flags: W
LayerCount: 2
Fore
SplineSet
308 529 m 0
 426 529 491 435 491 264 c 0
 491 94 426 -10 303 -10 c 0
 228 -10 174 31 140 80 c 1
 140 -192 l 1
 118 -196 l 1
 118 519 l 1
 137 519 l 1
 139 434 l 1
 177 489 231 529 308 529 c 0
302 11 m 0
 410 11 469 103 469 264 c 0
 469 424 413 509 308 509 c 0
 231 509 184 469 140 410 c 1
 140 106 l 1
 179 50 230 11 302 11 c 0
EndSplineSet
EndChar

StartChar: uni0441
Encoding: 1089 1089 489
Width: 464
Flags: W
LayerCount: 2
Fore
SplineSet
283 529 m 0
 339 529 379 514 418 479 c 1
 405 464 l 1
 372 493 335 509 284 509 c 0
 174 509 96 421 96 257 c 0
 96 95 175 11 283 11 c 0
 337 11 377 30 410 59 c 1
 423 44 l 1
 387 12 342 -10 284 -10 c 0
 159 -10 73 87 73 257 c 0
 73 426 156 529 283 529 c 0
EndSplineSet
EndChar

StartChar: uni0442
Encoding: 1090 1090 490
Width: 416
Flags: W
LayerCount: 2
Fore
SplineSet
404 519 m 1
 401 498 l 1
 220 498 l 1
 220 0 l 1
 198 0 l 1
 198 498 l 1
 11 498 l 1
 11 519 l 1
 404 519 l 1
EndSplineSet
EndChar

StartChar: uni0443
Encoding: 1091 1091 491
Width: 444
Flags: W
LayerCount: 2
Fore
SplineSet
421 519 m 1
 240 -1 l 2
 200 -116 169 -163 59 -195 c 1
 56 -177 l 1
 159 -146 181 -103 219 0 c 1
 211 0 l 1
 23 519 l 1
 47 519 l 1
 225 17 l 1
 396 519 l 1
 421 519 l 1
EndSplineSet
EndChar

StartChar: uni0444
Encoding: 1092 1092 492
Width: 772
Flags: W
LayerCount: 2
Fore
SplineSet
544 529 m 0
 660 529 699 426 699 264 c 0
 699 99 648 -10 540 -10 c 0
 476 -10 436 21 397 74 c 1
 397 -192 l 1
 375 -116 l 1
 375 73 l 1
 337 18 296 -10 235 -10 c 0
 129 -10 73 100 73 264 c 0
 73 428 131 529 238 529 c 0
 298 529 340 498 375 440 c 1
 375 521 l 1
 376 736 l 1
 397 644 l 1
 397 440 l 1
 434 496 483 529 544 529 c 0
237 11 m 0
 295 11 336 42 375 103 c 1
 375 409 l 1
 337 475 297 509 239 509 c 0
 148 509 96 422 96 264 c 0
 96 107 145 11 237 11 c 0
541 11 m 0
 632 11 676 106 676 264 c 0
 676 421 640 509 544 509 c 0
 481 509 434 473 397 409 c 1
 397 104 l 1
 439 44 480 11 541 11 c 0
EndSplineSet
EndChar

StartChar: uni0445
Encoding: 1093 1093 493
Width: 433
Flags: W
LayerCount: 2
Fore
SplineSet
229 279 m 1
 415 0 l 1
 389 0 l 1
 215 265 l 1
 43 0 l 1
 18 0 l 1
 202 278 l 1
 43 519 l 1
 69 519 l 1
 216 292 l 1
 364 519 l 1
 390 519 l 1
 229 279 l 1
EndSplineSet
EndChar

StartChar: uni0446
Encoding: 1094 1094 494
Width: 572
Flags: W
LayerCount: 2
Fore
SplineSet
454 21 m 1
 513 21 l 1
 513 -138 l 1
 496 -138 l 1
 489 0 l 1
 118 0 l 1
 118 519 l 1
 140 519 l 1
 140 21 l 1
 432 21 l 1
 432 519 l 1
 454 519 l 1
 454 21 l 1
EndSplineSet
EndChar

StartChar: uni0447
Encoding: 1095 1095 495
Width: 528
Flags: W
LayerCount: 2
Fore
SplineSet
388 519 m 1
 410 519 l 1
 410 0 l 1
 388 0 l 1
 388 266 l 1
 350 223 294 185 214 185 c 0
 132 185 68 229 68 321 c 2
 68 519 l 1
 90 519 l 1
 90 323 l 2
 90 245 137 206 218 206 c 0
 296 206 353 246 388 293 c 1
 388 519 l 1
EndSplineSet
EndChar

StartChar: uni0448
Encoding: 1096 1096 496
Width: 798
Flags: W
LayerCount: 2
Fore
SplineSet
680 519 m 1
 680 0 l 1
 118 0 l 1
 118 519 l 1
 140 519 l 1
 140 21 l 1
 388 21 l 1
 388 519 l 1
 409 519 l 1
 409 21 l 1
 658 21 l 1
 658 519 l 1
 680 519 l 1
EndSplineSet
EndChar

StartChar: uni0449
Encoding: 1097 1097 497
Width: 798
Flags: W
LayerCount: 2
Fore
SplineSet
680 21 m 1
 738 21 l 1
 738 -138 l 1
 722 -138 l 1
 714 0 l 1
 118 0 l 1
 118 519 l 1
 140 519 l 1
 140 21 l 1
 388 21 l 1
 388 519 l 1
 409 519 l 1
 409 21 l 1
 658 21 l 1
 658 519 l 1
 680 519 l 1
 680 21 l 1
EndSplineSet
EndChar

StartChar: uni044A
Encoding: 1098 1098 498
Width: 571
Flags: W
LayerCount: 2
Fore
SplineSet
336 335 m 2
 471 335 527 274 527 174 c 0
 527 55 452 0 340 0 c 2
 198 0 l 1
 198 499 l 1
 11 499 l 1
 11 519 l 1
 220 519 l 1
 220 335 l 1
 336 335 l 2
338 21 m 2
 442 21 504 66 504 174 c 0
 504 262 459 315 337 315 c 2
 220 315 l 1
 220 21 l 1
 338 21 l 2
EndSplineSet
EndChar

StartChar: uni044B
Encoding: 1099 1099 499
Width: 694
Flags: W
LayerCount: 2
Fore
SplineSet
246 335 m 2
 382 335 437 274 437 174 c 0
 437 55 363 0 251 0 c 2
 118 0 l 1
 118 519 l 1
 140 519 l 1
 140 335 l 1
 246 335 l 2
554 519 m 1
 576 519 l 1
 576 0 l 1
 554 0 l 1
 554 519 l 1
248 21 m 2
 353 21 414 66 414 174 c 0
 414 262 369 315 247 315 c 2
 140 315 l 1
 140 21 l 1
 248 21 l 2
EndSplineSet
EndChar

StartChar: uni044C
Encoding: 1100 1100 500
Width: 491
Flags: W
LayerCount: 2
Fore
SplineSet
256 335 m 2
 392 335 447 274 447 174 c 0
 447 55 373 0 261 0 c 2
 118 0 l 1
 118 519 l 1
 140 519 l 1
 140 335 l 1
 256 335 l 2
258 21 m 2
 363 21 424 66 424 174 c 0
 424 262 379 315 257 315 c 2
 140 315 l 1
 140 21 l 1
 258 21 l 2
EndSplineSet
EndChar

StartChar: uni044D
Encoding: 1101 1101 501
Width: 467
Flags: W
LayerCount: 2
Fore
SplineSet
216 529 m 0
 325 529 394 457 394 265 c 0
 394 92 327 -10 204 -10 c 0
 132 -10 87 16 48 48 c 1
 60 64 l 1
 95 35 137 10 201 10 c 0
 315 10 371 100 372 259 c 1
 119 259 l 1
 119 279 l 1
 372 279 l 1
 368 451 305 509 217 509 c 0
 158 509 117 490 77 460 c 1
 66 476 l 1
 108 509 154 529 216 529 c 0
EndSplineSet
EndChar

StartChar: uni044E
Encoding: 1102 1102 502
Width: 742
Flags: W
LayerCount: 2
Fore
SplineSet
473 529 m 0
 595 529 669 430 669 262 c 0
 669 91 593 -10 471 -10 c 0
 348 -10 277 91 275 259 c 1
 140 259 l 1
 140 0 l 1
 118 0 l 1
 118 519 l 1
 140 519 l 1
 140 280 l 1
 275 280 l 1
 281 438 358 529 473 529 c 0
471 11 m 0
 580 11 646 100 646 262 c 0
 646 420 582 509 473 509 c 0
 366 509 298 421 298 260 c 0
 298 101 362 11 471 11 c 0
EndSplineSet
EndChar

StartChar: uni044F
Encoding: 1103 1103 503
Width: 532
Flags: W
LayerCount: 2
Fore
SplineSet
262 519 m 2
 414 519 l 1
 414 0 l 1
 392 0 l 1
 392 230 l 1
 225 230 l 1
 93 0 l 1
 69 0 l 1
 203 234 l 1
 127 248 85 300 85 373 c 0
 85 468 149 519 262 519 c 2
240 250 m 2
 392 250 l 1
 392 499 l 1
 262 499 l 2
 165 500 107 459 107 373 c 0
 107 290 166 250 240 250 c 2
EndSplineSet
EndChar

StartChar: uni0450
Encoding: 1104 1104 504
Width: 526
Flags: W
LayerCount: 2
Fore
SplineSet
193 761 m 1
 369 670 l 1
 361 654 l 1
 183 738 l 1
 193 761 l 1
461 284 m 0
 461 270 460 257 459 246 c 1
 96 246 l 1
 100 87 175 11 280 11 c 0
 342 11 382 31 427 68 c 1
 439 51 l 1
 394 13 347 -10 280 -10 c 0
 154 -10 73 87 73 255 c 0
 73 426 152 529 272 529 c 0
 400 529 461 429 461 284 c 0
439 265 m 1
 439 292 l 2
 439 418 388 509 274 509 c 0
 175 509 99 430 96 265 c 1
 439 265 l 1
EndSplineSet
EndChar

StartChar: uni0451
Encoding: 1105 1105 505
Width: 526
Flags: W
LayerCount: 2
Fore
SplineSet
191 712 m 0
 203 712 211 703 211 692 c 0
 211 681 203 673 191 673 c 0
 179 673 171 681 171 692 c 0
 171 703 179 712 191 712 c 0
357 712 m 0
 369 712 376 703 376 692 c 0
 376 681 369 673 357 673 c 0
 344 673 336 681 336 692 c 0
 336 703 344 712 357 712 c 0
461 284 m 0
 461 270 460 257 459 246 c 1
 96 246 l 1
 100 87 175 11 280 11 c 0
 342 11 382 31 427 68 c 1
 439 51 l 1
 394 13 347 -10 280 -10 c 0
 154 -10 73 87 73 255 c 0
 73 426 152 529 272 529 c 0
 400 529 461 429 461 284 c 0
439 265 m 1
 439 292 l 2
 439 418 388 509 274 509 c 0
 175 509 99 430 96 265 c 1
 439 265 l 1
EndSplineSet
EndChar

StartChar: uni0452
Encoding: 1106 1106 506
Width: 586
Flags: W
LayerCount: 2
Fore
SplineSet
335 529 m 0
 429 529 474 469 474 369 c 2
 474 6 l 2
 474 -122 438 -155 361 -195 c 1
 355 -178 l 1
 423 -142 452 -111 452 7 c 2
 452 367 l 2
 452 459 414 509 335 509 c 0
 251 509 194 459 145 384 c 1
 145 0 l 1
 123 0 l 1
 123 629 l 1
 48 629 l 1
 48 649 l 1
 123 649 l 1
 123 733 l 1
 145 736 l 1
 145 649 l 1
 328 649 l 1
 328 629 l 1
 145 629 l 1
 145 414 l 1
 192 484 253 529 335 529 c 0
EndSplineSet
EndChar

StartChar: uni0453
Encoding: 1107 1107 507
Width: 417
Flags: W
LayerCount: 2
Fore
SplineSet
336 761 m 1
 346 738 l 1
 168 654 l 1
 160 670 l 1
 336 761 l 1
140 0 m 1
 118 0 l 1
 118 519 l 1
 406 519 l 1
 403 499 l 1
 140 499 l 1
 140 0 l 1
EndSplineSet
EndChar

StartChar: uni0454
Encoding: 1108 1108 508
Width: 473
Flags: W
LayerCount: 2
Fore
SplineSet
414 58 m 1
 425 41 l 1
 386 12 341 -10 280 -10 c 0
 158 -10 73 87 73 263 c 0
 73 428 160 529 286 529 c 0
 339 529 379 514 422 480 c 1
 409 463 l 1
 371 494 335 509 286 509 c 0
 180 509 102 427 96 278 c 1
 363 278 l 1
 363 258 l 1
 96 258 l 1
 97 94 176 11 280 11 c 0
 337 11 373 29 414 58 c 1
EndSplineSet
EndChar

StartChar: uni0455
Encoding: 1109 1109 509
Width: 450
Flags: W
LayerCount: 2
Fore
SplineSet
224 529 m 0
 286 529 332 511 378 474 c 1
 365 458 l 1
 321 492 283 509 225 509 c 0
 147 509 89 467 89 401 c 0
 89 340 128 313 231 285 c 0
 348 253 392 220 392 134 c 0
 392 48 322 -10 223 -10 c 0
 142 -10 92 19 48 56 c 1
 61 71 l 1
 106 34 149 11 223 11 c 0
 306 11 369 55 369 134 c 0
 369 209 334 236 221 267 c 0
 111 296 66 331 66 401 c 0
 66 477 136 529 224 529 c 0
EndSplineSet
EndChar

StartChar: uni0456
Encoding: 1110 1110 510
Width: 258
Flags: W
LayerCount: 2
Fore
SplineSet
129 724 m 0
 142 724 149 714 149 704 c 0
 149 694 142 685 129 685 c 0
 116 685 109 694 109 704 c 0
 109 714 116 724 129 724 c 0
140 519 m 1
 140 0 l 1
 118 0 l 1
 118 519 l 1
 140 519 l 1
EndSplineSet
EndChar

StartChar: uni0457
Encoding: 1111 1111 511
Width: 258
Flags: W
LayerCount: 2
Fore
SplineSet
46 712 m 0
 58 712 66 703 66 692 c 0
 66 681 58 673 46 673 c 0
 34 673 26 681 26 692 c 0
 26 703 34 712 46 712 c 0
212 712 m 0
 224 712 231 703 231 692 c 0
 231 681 224 673 212 673 c 0
 199 673 191 681 191 692 c 0
 191 703 199 712 212 712 c 0
140 519 m 1
 140 0 l 1
 118 0 l 1
 118 519 l 1
 140 519 l 1
EndSplineSet
EndChar

StartChar: uni0458
Encoding: 1112 1112 512
Width: 258
Flags: W
LayerCount: 2
Fore
SplineSet
129 724 m 0
 143 724 150 714 150 704 c 0
 150 694 143 685 129 685 c 0
 117 685 109 694 109 704 c 0
 109 714 117 724 129 724 c 0
141 519 m 1
 141 6 l 2
 141 -122 105 -155 28 -195 c 1
 22 -178 l 1
 90 -142 119 -111 119 7 c 2
 119 519 l 1
 141 519 l 1
EndSplineSet
EndChar

